<svg xmlns="http://www.w3.org/2000/svg" xmlns:xlink="http://www.w3.org/1999/xlink" width="500" zoomAndPan="magnify" viewBox="0 0 375 374.999991" height="500" preserveAspectRatio="xMidYMid meet" version="1.0"><defs><clipPath id="4be6996aa7"><path d="M 30.773438 20 L 342 20 L 342 356.25 L 30.773438 356.25 Z M 30.773438 20 " clip-rule="nonzero"/></clipPath></defs><g clip-path="url(#4be6996aa7)"><path fill="#ffffff" d="M 150.410156 20.007812 C 110.875 20.007812 78.628906 52.253906 78.628906 91.789062 C 78.628906 131.324219 110.875 163.574219 150.410156 163.574219 C 189.949219 163.574219 222.195312 131.324219 222.195312 91.789062 C 222.195312 52.253906 189.949219 20.007812 150.410156 20.007812 Z M 150.410156 163.574219 C 84.425781 163.574219 30.773438 217.222656 30.773438 283.210938 L 54.699219 283.210938 C 54.699219 230.402344 97.601562 187.5 150.410156 187.5 C 172.65625 187.5 192.847656 195.445312 209.109375 208.0625 L 225.839844 191.050781 C 205.183594 174.226562 179.105469 163.574219 150.410156 163.574219 Z M 150.410156 43.933594 C 176.957031 43.933594 198.265625 65.246094 198.265625 91.789062 C 198.265625 118.332031 176.957031 139.644531 150.410156 139.644531 C 123.867188 139.644531 102.554688 118.332031 102.554688 91.789062 C 102.554688 65.246094 123.867188 43.933594 150.410156 43.933594 Z M 298.839844 163.664062 C 291.082031 163.757812 283.324219 166.75 277.527344 172.730469 L 165.925781 286.203125 L 149.289062 356.117188 L 219.203125 339.570312 L 221.539062 337.140625 L 332.765625 227.878906 C 344.636719 216.289062 344.824219 196.753906 332.953125 184.976562 L 320.429688 172.359375 C 314.542969 166.46875 306.691406 163.574219 298.839844 163.664062 Z M 299.027344 187.40625 C 300.613281 187.40625 302.203125 188.0625 303.511719 189.371094 L 316.035156 201.894531 C 318.652344 204.417969 318.652344 208.25 316.035156 210.867188 L 207.242188 317.699219 L 181.441406 323.960938 L 187.613281 298.164062 L 294.632812 189.371094 C 295.847656 188.0625 297.4375 187.40625 299.027344 187.40625 Z M 299.027344 187.40625 " fill-opacity="1" fill-rule="nonzero"/></g></svg>