<svg xmlns="http://www.w3.org/2000/svg" xmlns:xlink="http://www.w3.org/1999/xlink" width="500" zoomAndPan="magnify" viewBox="0 0 375 374.999991" height="500" preserveAspectRatio="xMidYMid meet" version="1.0"><defs><clipPath id="65fdee0963"><path d="M 127 176 L 237 176 L 237 351.695312 L 127 351.695312 Z M 127 176 " clip-rule="nonzero"/></clipPath><clipPath id="68a999429e"><path d="M 209 132 L 340.832031 132 L 340.832031 351.695312 L 209 351.695312 Z M 209 132 " clip-rule="nonzero"/></clipPath><clipPath id="9e3c3b6b71"><path d="M 34.082031 23.195312 L 155 23.195312 L 155 351.695312 L 34.082031 351.695312 Z M 34.082031 23.195312 " clip-rule="nonzero"/></clipPath></defs><g clip-path="url(#65fdee0963)"><path fill="#000000" d="M 127.226562 181.972656 L 127.226562 235.429688 C 127.234375 239.878906 127.746094 244.269531 128.769531 248.601562 C 129.792969 252.929688 131.296875 257.085938 133.28125 261.070312 C 134.886719 264.292969 136.105469 267.652344 136.933594 271.15625 C 137.757812 274.660156 138.175781 278.214844 138.179688 281.8125 L 138.179688 340.746094 C 138.179688 341.464844 138.25 342.175781 138.390625 342.882812 C 138.53125 343.585938 138.738281 344.269531 139.015625 344.933594 C 139.289062 345.597656 139.628906 346.230469 140.027344 346.828125 C 140.425781 347.425781 140.882812 347.976562 141.390625 348.484375 C 141.898438 348.996094 142.449219 349.449219 143.046875 349.847656 C 143.644531 350.246094 144.277344 350.585938 144.941406 350.859375 C 145.605469 351.136719 146.289062 351.34375 146.992188 351.484375 C 147.699219 351.625 148.410156 351.695312 149.128906 351.695312 L 214.832031 351.695312 C 215.550781 351.695312 216.265625 351.625 216.96875 351.484375 C 217.671875 351.34375 218.359375 351.136719 219.023438 350.859375 C 219.6875 350.585938 220.316406 350.246094 220.914062 349.847656 C 221.511719 349.449219 222.066406 348.996094 222.574219 348.484375 C 223.082031 347.976562 223.535156 347.425781 223.933594 346.828125 C 224.335938 346.230469 224.671875 345.597656 224.945312 344.933594 C 225.222656 344.269531 225.429688 343.585938 225.570312 342.882812 C 225.710938 342.175781 225.78125 341.464844 225.785156 340.746094 L 225.785156 281.8125 C 225.789062 278.214844 226.203125 274.660156 227.03125 271.15625 C 227.859375 267.652344 229.074219 264.292969 230.679688 261.070312 C 232.667969 257.085938 234.171875 252.929688 235.191406 248.601562 C 236.214844 244.269531 236.730469 239.878906 236.734375 235.429688 L 236.734375 181.972656 C 236.734375 181.613281 236.699219 181.257812 236.628906 180.902344 C 236.558594 180.550781 236.453125 180.207031 236.316406 179.875 C 236.179688 179.542969 236.011719 179.230469 235.8125 178.929688 C 235.613281 178.628906 235.382812 178.355469 235.128906 178.101562 C 234.875 177.847656 234.601562 177.617188 234.300781 177.417969 C 234 177.21875 233.6875 177.050781 233.355469 176.914062 C 233.023438 176.777344 232.679688 176.671875 232.328125 176.601562 C 231.972656 176.53125 231.617188 176.496094 231.257812 176.496094 L 132.703125 176.496094 C 132.34375 176.496094 131.988281 176.53125 131.636719 176.601562 C 131.28125 176.671875 130.941406 176.777344 130.609375 176.914062 C 130.277344 177.050781 129.960938 177.21875 129.660156 177.417969 C 129.363281 177.617188 129.085938 177.847656 128.832031 178.101562 C 128.578125 178.355469 128.351562 178.628906 128.152344 178.929688 C 127.953125 179.230469 127.78125 179.542969 127.644531 179.875 C 127.507812 180.207031 127.402344 180.550781 127.332031 180.902344 C 127.261719 181.257812 127.226562 181.613281 127.226562 181.972656 Z M 149.128906 340.746094 L 149.128906 328.785156 C 150.894531 329.441406 152.722656 329.777344 154.605469 329.796875 L 209.359375 329.796875 C 211.242188 329.777344 213.066406 329.441406 214.832031 328.789062 L 214.832031 340.746094 Z M 220.886719 256.171875 C 218.902344 260.15625 217.398438 264.3125 216.375 268.640625 C 215.351562 272.972656 214.839844 277.363281 214.832031 281.8125 L 214.832031 313.371094 C 214.832031 313.730469 214.796875 314.085938 214.726562 314.4375 C 214.65625 314.792969 214.550781 315.132812 214.414062 315.464844 C 214.277344 315.796875 214.109375 316.113281 213.90625 316.410156 C 213.707031 316.710938 213.480469 316.988281 213.226562 317.242188 C 212.972656 317.496094 212.695312 317.722656 212.398438 317.921875 C 212.097656 318.121094 211.785156 318.289062 211.453125 318.425781 C 211.121094 318.566406 210.777344 318.667969 210.425781 318.738281 C 210.074219 318.808594 209.71875 318.847656 209.359375 318.847656 L 154.605469 318.847656 C 154.246094 318.847656 153.890625 318.808594 153.539062 318.738281 C 153.183594 318.667969 152.84375 318.566406 152.511719 318.425781 C 152.179688 318.289062 151.863281 318.121094 151.566406 317.921875 C 151.265625 317.722656 150.988281 317.496094 150.734375 317.242188 C 150.480469 316.988281 150.253906 316.710938 150.054688 316.410156 C 149.855469 316.113281 149.6875 315.796875 149.546875 315.464844 C 149.410156 315.132812 149.304688 314.792969 149.234375 314.4375 C 149.164062 314.085938 149.128906 313.730469 149.128906 313.371094 L 149.128906 281.8125 C 149.125 277.363281 148.609375 272.972656 147.585938 268.640625 C 146.566406 264.3125 145.0625 260.15625 143.078125 256.171875 C 141.46875 252.953125 140.253906 249.589844 139.425781 246.085938 C 138.597656 242.582031 138.183594 239.03125 138.179688 235.429688 L 138.179688 214.820312 L 157.34375 214.820312 C 161.191406 214.828125 164.941406 215.441406 168.59375 216.660156 C 172.246094 217.875 175.613281 219.636719 178.695312 221.9375 C 180.699219 223.433594 182.808594 224.761719 185.023438 225.921875 C 187.242188 227.078125 189.535156 228.054688 191.90625 228.84375 C 194.28125 229.632812 196.699219 230.230469 199.167969 230.632812 C 201.636719 231.039062 204.121094 231.242188 206.621094 231.246094 L 225.785156 231.246094 L 225.785156 235.429688 C 225.78125 239.03125 225.363281 242.582031 224.535156 246.085938 C 223.710938 249.589844 222.492188 252.953125 220.886719 256.171875 Z M 225.785156 187.445312 L 225.785156 220.296875 L 206.621094 220.296875 C 202.769531 220.289062 199.019531 219.675781 195.371094 218.457031 C 191.71875 217.242188 188.351562 215.480469 185.265625 213.179688 C 183.261719 211.683594 181.152344 210.355469 178.9375 209.195312 C 176.722656 208.039062 174.425781 207.066406 172.054688 206.273438 C 169.683594 205.484375 167.261719 204.886719 164.796875 204.484375 C 162.328125 204.082031 159.84375 203.875 157.34375 203.871094 L 138.179688 203.871094 L 138.179688 187.445312 Z M 225.785156 187.445312 " fill-opacity="1" fill-rule="nonzero"/></g><path fill="#000000" d="M 154.605469 236.722656 L 165.554688 236.722656 L 165.554688 247.671875 L 154.605469 247.671875 Z M 154.605469 236.722656 " fill-opacity="1" fill-rule="nonzero"/><path fill="#000000" d="M 198.40625 242.195312 L 209.359375 242.195312 L 209.359375 253.144531 L 198.40625 253.144531 Z M 198.40625 242.195312 " fill-opacity="1" fill-rule="nonzero"/><path fill="#000000" d="M 176.507812 280.519531 L 187.457031 280.519531 L 187.457031 291.472656 L 176.507812 291.472656 Z M 176.507812 280.519531 " fill-opacity="1" fill-rule="nonzero"/><g clip-path="url(#68a999429e)"><path fill="#000000" d="M 324.339844 132.695312 L 225.785156 132.695312 C 225.425781 132.695312 225.066406 132.730469 224.714844 132.800781 C 224.363281 132.871094 224.019531 132.976562 223.6875 133.113281 C 223.355469 133.25 223.039062 133.417969 222.742188 133.621094 C 222.441406 133.820312 222.167969 134.046875 221.910156 134.300781 C 221.65625 134.554688 221.429688 134.832031 221.230469 135.128906 C 221.03125 135.429688 220.863281 135.742188 220.726562 136.078125 C 220.585938 136.410156 220.484375 136.75 220.414062 137.101562 C 220.34375 137.457031 220.308594 137.8125 220.308594 138.171875 L 220.308594 146.855469 L 210.960938 156.199219 C 210.449219 156.714844 210.054688 157.304688 209.773438 157.976562 C 209.496094 158.648438 209.359375 159.34375 209.359375 160.070312 L 209.359375 165.546875 L 220.308594 165.546875 L 220.308594 162.339844 L 229.65625 152.992188 C 230.167969 152.480469 230.5625 151.886719 230.839844 151.214844 C 231.121094 150.546875 231.257812 149.847656 231.257812 149.121094 L 231.257812 143.644531 L 318.863281 143.644531 L 318.863281 149.121094 C 318.863281 149.847656 319.003906 150.546875 319.28125 151.214844 C 319.558594 151.886719 319.953125 152.480469 320.46875 152.992188 L 329.8125 162.339844 L 329.8125 198.394531 L 247.683594 198.394531 L 247.683594 209.347656 L 329.8125 209.347656 L 329.8125 275.046875 L 236.734375 275.046875 L 236.734375 285.996094 L 329.8125 285.996094 L 329.8125 318.847656 L 236.734375 318.847656 L 236.734375 329.796875 L 322.800781 329.796875 L 320.0625 340.746094 L 236.734375 340.746094 L 236.734375 351.695312 L 324.339844 351.695312 C 324.949219 351.695312 325.542969 351.597656 326.121094 351.398438 C 326.699219 351.199219 327.226562 350.914062 327.707031 350.539062 C 328.191406 350.160156 328.597656 349.71875 328.929688 349.207031 C 329.261719 348.695312 329.503906 348.140625 329.652344 347.550781 L 334.089844 329.796875 L 335.289062 329.796875 C 335.648438 329.796875 336.003906 329.761719 336.359375 329.691406 C 336.710938 329.621094 337.050781 329.515625 337.386719 329.378906 C 337.71875 329.242188 338.03125 329.074219 338.332031 328.875 C 338.628906 328.675781 338.90625 328.445312 339.160156 328.191406 C 339.414062 327.9375 339.640625 327.660156 339.84375 327.363281 C 340.042969 327.0625 340.210938 326.75 340.347656 326.417969 C 340.484375 326.085938 340.589844 325.742188 340.660156 325.390625 C 340.730469 325.035156 340.765625 324.679688 340.765625 324.320312 L 340.765625 160.070312 C 340.765625 159.34375 340.625 158.648438 340.347656 157.976562 C 340.070312 157.304688 339.675781 156.714844 339.160156 156.199219 L 329.8125 146.855469 L 329.8125 138.171875 C 329.8125 137.8125 329.777344 137.457031 329.710938 137.101562 C 329.640625 136.75 329.535156 136.410156 329.398438 136.078125 C 329.261719 135.742188 329.089844 135.429688 328.890625 135.128906 C 328.691406 134.832031 328.464844 134.554688 328.210938 134.300781 C 327.957031 134.046875 327.679688 133.820312 327.378906 133.621094 C 327.082031 133.417969 326.765625 133.25 326.433594 133.113281 C 326.101562 132.976562 325.757812 132.871094 325.40625 132.800781 C 325.054688 132.730469 324.699219 132.695312 324.339844 132.695312 Z M 324.339844 132.695312 " fill-opacity="1" fill-rule="nonzero"/></g><g clip-path="url(#9e3c3b6b71)"><path fill="#000000" d="M 37.890625 252.402344 C 35.394531 260.019531 34.144531 267.839844 34.148438 275.855469 L 34.148438 329.796875 C 34.148438 330.511719 34.183594 331.230469 34.257812 331.941406 C 34.328125 332.65625 34.433594 333.363281 34.574219 334.066406 C 34.714844 334.769531 34.886719 335.464844 35.097656 336.152344 C 35.304688 336.835938 35.546875 337.511719 35.820312 338.171875 C 36.097656 338.835938 36.402344 339.484375 36.742188 340.113281 C 37.078125 340.746094 37.449219 341.363281 37.847656 341.957031 C 38.246094 342.554688 38.671875 343.128906 39.128906 343.683594 C 39.582031 344.238281 40.0625 344.769531 40.570312 345.273438 C 41.078125 345.78125 41.609375 346.261719 42.164062 346.71875 C 42.714844 347.171875 43.292969 347.597656 43.886719 348 C 44.484375 348.398438 45.097656 348.765625 45.730469 349.101562 C 46.363281 349.441406 47.011719 349.746094 47.671875 350.023438 C 48.335938 350.296875 49.007812 350.539062 49.695312 350.746094 C 50.378906 350.957031 51.074219 351.132812 51.777344 351.273438 C 52.480469 351.410156 53.191406 351.519531 53.902344 351.589844 C 54.617188 351.660156 55.332031 351.695312 56.050781 351.695312 L 61.523438 351.695312 C 63.078125 351.695312 64.617188 351.535156 66.136719 351.207031 C 67.65625 350.878906 69.125 350.394531 70.539062 349.753906 C 71.957031 349.113281 73.289062 348.332031 74.539062 347.40625 C 75.785156 346.480469 76.925781 345.433594 77.949219 344.265625 C 78.460938 344.847656 79.003906 345.402344 79.574219 345.925781 C 80.144531 346.453125 80.742188 346.945312 81.363281 347.40625 C 81.988281 347.867188 82.632812 348.292969 83.300781 348.683594 C 83.96875 349.078125 84.65625 349.433594 85.363281 349.753906 C 86.070312 350.074219 86.789062 350.351562 87.527344 350.597656 C 88.261719 350.839844 89.007812 351.042969 89.765625 351.203125 C 90.523438 351.367188 91.289062 351.492188 92.058594 351.574219 C 92.828125 351.65625 93.601562 351.695312 94.375 351.695312 C 95.152344 351.695312 95.925781 351.65625 96.695312 351.574219 C 97.464844 351.492188 98.230469 351.367188 98.988281 351.203125 C 99.746094 351.042969 100.492188 350.839844 101.226562 350.597656 C 101.964844 350.351562 102.683594 350.074219 103.390625 349.753906 C 104.097656 349.433594 104.785156 349.078125 105.453125 348.683594 C 106.121094 348.292969 106.765625 347.867188 107.390625 347.40625 C 108.011719 346.945312 108.609375 346.453125 109.179688 345.925781 C 109.75 345.402344 110.289062 344.847656 110.800781 344.265625 C 111.828125 345.433594 112.964844 346.480469 114.214844 347.40625 C 115.464844 348.332031 116.796875 349.113281 118.214844 349.753906 C 119.628906 350.394531 121.097656 350.878906 122.617188 351.207031 C 124.136719 351.535156 125.675781 351.695312 127.226562 351.695312 L 127.226562 340.746094 C 126.507812 340.746094 125.796875 340.675781 125.09375 340.535156 C 124.386719 340.394531 123.703125 340.183594 123.039062 339.910156 C 122.375 339.632812 121.746094 339.296875 121.148438 338.898438 C 120.550781 338.5 119.996094 338.042969 119.488281 337.535156 C 118.980469 337.027344 118.527344 336.476562 118.125 335.878906 C 117.726562 335.28125 117.390625 334.648438 117.113281 333.984375 C 116.839844 333.320312 116.628906 332.636719 116.488281 331.933594 C 116.347656 331.226562 116.277344 330.515625 116.277344 329.796875 C 116.277344 329.4375 116.242188 329.082031 116.171875 328.726562 C 116.101562 328.375 116 328.035156 115.859375 327.703125 C 115.722656 327.367188 115.554688 327.054688 115.355469 326.753906 C 115.15625 326.457031 114.929688 326.179688 114.675781 325.925781 C 114.417969 325.671875 114.144531 325.445312 113.84375 325.242188 C 113.546875 325.042969 113.230469 324.875 112.898438 324.738281 C 112.566406 324.601562 112.222656 324.496094 111.871094 324.425781 C 111.519531 324.355469 111.160156 324.320312 110.800781 324.320312 C 110.441406 324.320312 110.085938 324.355469 109.734375 324.425781 C 109.382812 324.496094 109.039062 324.601562 108.707031 324.738281 C 108.375 324.875 108.058594 325.042969 107.761719 325.242188 C 107.460938 325.445312 107.183594 325.671875 106.929688 325.925781 C 106.675781 326.179688 106.449219 326.457031 106.25 326.753906 C 106.050781 327.054688 105.882812 327.367188 105.742188 327.703125 C 105.605469 328.035156 105.503906 328.375 105.433594 328.726562 C 105.363281 329.082031 105.328125 329.4375 105.328125 329.796875 C 105.328125 330.515625 105.257812 331.226562 105.117188 331.933594 C 104.976562 332.636719 104.769531 333.324219 104.492188 333.988281 C 104.21875 334.652344 103.882812 335.28125 103.480469 335.878906 C 103.082031 336.476562 102.628906 337.03125 102.121094 337.539062 C 101.613281 338.046875 101.058594 338.5 100.460938 338.902344 C 99.863281 339.300781 99.230469 339.636719 98.566406 339.914062 C 97.902344 340.1875 97.21875 340.394531 96.511719 340.535156 C 95.808594 340.675781 95.09375 340.746094 94.375 340.746094 C 93.65625 340.746094 92.945312 340.675781 92.238281 340.535156 C 91.535156 340.394531 90.851562 340.1875 90.1875 339.914062 C 89.523438 339.636719 88.890625 339.300781 88.292969 338.902344 C 87.695312 338.5 87.140625 338.046875 86.632812 337.539062 C 86.125 337.03125 85.671875 336.476562 85.273438 335.878906 C 84.871094 335.28125 84.535156 334.652344 84.257812 333.988281 C 83.984375 333.324219 83.777344 332.636719 83.636719 331.933594 C 83.496094 331.226562 83.425781 330.515625 83.425781 329.796875 C 83.425781 329.4375 83.390625 329.082031 83.320312 328.726562 C 83.25 328.375 83.148438 328.035156 83.007812 327.703125 C 82.871094 327.367188 82.703125 327.054688 82.503906 326.753906 C 82.304688 326.457031 82.078125 326.179688 81.824219 325.925781 C 81.566406 325.671875 81.292969 325.445312 80.992188 325.242188 C 80.695312 325.042969 80.378906 324.875 80.046875 324.738281 C 79.714844 324.601562 79.371094 324.496094 79.019531 324.425781 C 78.667969 324.355469 78.308594 324.320312 77.949219 324.320312 C 77.589844 324.320312 77.234375 324.355469 76.882812 324.425781 C 76.53125 324.496094 76.1875 324.601562 75.855469 324.738281 C 75.523438 324.875 75.207031 325.042969 74.910156 325.242188 C 74.609375 325.445312 74.332031 325.671875 74.078125 325.925781 C 73.824219 326.179688 73.597656 326.457031 73.398438 326.753906 C 73.199219 327.054688 73.03125 327.367188 72.890625 327.703125 C 72.753906 328.035156 72.652344 328.375 72.582031 328.726562 C 72.511719 329.082031 72.476562 329.4375 72.476562 329.796875 C 72.476562 330.515625 72.402344 331.226562 72.261719 331.933594 C 72.121094 332.636719 71.914062 333.320312 71.640625 333.984375 C 71.363281 334.648438 71.027344 335.28125 70.625 335.878906 C 70.226562 336.476562 69.773438 337.027344 69.265625 337.535156 C 68.757812 338.042969 68.203125 338.5 67.605469 338.898438 C 67.007812 339.296875 66.378906 339.632812 65.714844 339.910156 C 65.050781 340.183594 64.367188 340.394531 63.660156 340.535156 C 62.957031 340.675781 62.242188 340.746094 61.523438 340.746094 L 56.050781 340.746094 C 55.332031 340.746094 54.617188 340.675781 53.914062 340.535156 C 53.210938 340.394531 52.523438 340.183594 51.859375 339.910156 C 51.195312 339.632812 50.566406 339.296875 49.96875 338.898438 C 49.371094 338.5 48.816406 338.042969 48.308594 337.535156 C 47.800781 337.027344 47.347656 336.476562 46.949219 335.878906 C 46.546875 335.28125 46.210938 334.648438 45.933594 333.984375 C 45.660156 333.320312 45.453125 332.636719 45.3125 331.933594 C 45.171875 331.226562 45.101562 330.515625 45.097656 329.796875 L 45.097656 275.855469 C 45.097656 269 46.164062 262.3125 48.300781 255.796875 L 48.589844 254.902344 C 49.777344 251.226562 50.683594 247.480469 51.296875 243.667969 C 51.914062 239.855469 52.238281 236.015625 52.269531 232.152344 C 52.300781 228.289062 52.039062 224.445312 51.484375 220.625 C 50.929688 216.800781 50.089844 213.042969 48.960938 209.347656 L 116.277344 209.347656 L 116.277344 198.394531 L 46.136719 198.394531 C 45.457031 194.644531 45.109375 190.863281 45.097656 187.046875 L 45.097656 165.546875 C 45.125 158.085938 46.222656 150.785156 48.382812 143.644531 L 140.367188 143.644531 C 142.53125 150.785156 143.625 158.085938 143.652344 165.546875 L 154.605469 165.546875 C 154.59375 160.839844 154.210938 156.164062 153.453125 151.519531 C 152.691406 146.875 151.570312 142.320312 150.082031 137.855469 C 148.59375 133.390625 146.757812 129.070312 144.578125 124.898438 C 142.398438 120.730469 139.898438 116.757812 137.082031 112.988281 C 134.621094 109.6875 132.433594 106.210938 130.527344 102.5625 C 128.621094 98.910156 127.015625 95.132812 125.710938 91.226562 C 124.410156 87.320312 123.425781 83.335938 122.761719 79.269531 C 122.097656 75.207031 121.761719 71.113281 121.753906 66.996094 L 121.753906 56.046875 C 122.113281 56.046875 122.46875 56.011719 122.820312 55.941406 C 123.175781 55.871094 123.515625 55.765625 123.847656 55.628906 C 124.179688 55.492188 124.496094 55.324219 124.796875 55.125 C 125.09375 54.925781 125.371094 54.695312 125.625 54.441406 C 125.878906 54.1875 126.105469 53.914062 126.304688 53.613281 C 126.503906 53.3125 126.675781 53 126.8125 52.667969 C 126.949219 52.335938 127.054688 51.992188 127.125 51.640625 C 127.191406 51.285156 127.226562 50.929688 127.226562 50.570312 L 127.226562 34.144531 C 127.226562 33.425781 127.15625 32.714844 127.015625 32.011719 C 126.875 31.304688 126.667969 30.621094 126.390625 29.957031 C 126.117188 29.292969 125.777344 28.664062 125.378906 28.066406 C 124.980469 27.46875 124.527344 26.914062 124.019531 26.40625 C 123.507812 25.898438 122.957031 25.445312 122.359375 25.046875 C 121.761719 24.644531 121.128906 24.308594 120.464844 24.03125 C 119.800781 23.757812 119.117188 23.550781 118.414062 23.410156 C 117.707031 23.269531 116.996094 23.195312 116.277344 23.195312 L 72.476562 23.195312 C 71.757812 23.195312 71.042969 23.269531 70.339844 23.410156 C 69.636719 23.550781 68.949219 23.757812 68.285156 24.03125 C 67.621094 24.308594 66.992188 24.644531 66.394531 25.046875 C 65.796875 25.445312 65.242188 25.898438 64.734375 26.40625 C 64.226562 26.914062 63.773438 27.46875 63.375 28.066406 C 62.972656 28.664062 62.636719 29.292969 62.359375 29.957031 C 62.085938 30.621094 61.878906 31.304688 61.738281 32.011719 C 61.597656 32.714844 61.527344 33.425781 61.523438 34.144531 L 61.523438 50.570312 C 61.523438 50.929688 61.558594 51.285156 61.628906 51.640625 C 61.699219 51.992188 61.804688 52.335938 61.941406 52.667969 C 62.078125 53 62.246094 53.3125 62.449219 53.613281 C 62.648438 53.914062 62.875 54.1875 63.128906 54.441406 C 63.382812 54.695312 63.660156 54.925781 63.957031 55.125 C 64.257812 55.324219 64.574219 55.492188 64.90625 55.628906 C 65.238281 55.765625 65.578125 55.871094 65.933594 55.941406 C 66.285156 56.011719 66.640625 56.046875 67 56.046875 L 67 66.996094 C 66.992188 71.113281 66.65625 75.207031 65.992188 79.269531 C 65.328125 83.335938 64.34375 87.320312 63.042969 91.226562 C 61.738281 95.132812 60.132812 98.910156 58.226562 102.5625 C 56.320312 106.210938 54.132812 109.6875 51.667969 112.988281 C 48.851562 116.757812 46.355469 120.730469 44.175781 124.898438 C 41.996094 129.070312 40.160156 133.390625 38.671875 137.855469 C 37.183594 142.320312 36.058594 146.875 35.300781 151.519531 C 34.542969 156.164062 34.15625 160.839844 34.148438 165.546875 L 34.148438 187.046875 C 34.152344 195.269531 35.460938 203.273438 38.074219 211.066406 C 39.15625 214.324219 39.96875 217.652344 40.519531 221.039062 C 41.070312 224.429688 41.351562 227.84375 41.359375 231.277344 C 41.371094 234.710938 41.109375 238.125 40.578125 241.515625 C 40.042969 244.910156 39.246094 248.238281 38.1875 251.503906 Z M 72.476562 34.144531 L 116.277344 34.144531 L 116.277344 45.097656 L 72.476562 45.097656 Z M 77.949219 66.996094 L 77.949219 56.046875 L 110.800781 56.046875 L 110.800781 66.996094 C 110.8125 71.703125 111.195312 76.378906 111.957031 81.023438 C 112.714844 85.667969 113.835938 90.222656 115.324219 94.6875 C 116.8125 99.152344 118.648438 103.472656 120.828125 107.644531 C 123.007812 111.8125 125.507812 115.785156 128.324219 119.554688 C 131.378906 123.671875 133.996094 128.050781 136.167969 132.695312 L 52.585938 132.695312 C 54.757812 128.050781 57.371094 123.671875 60.429688 119.554688 C 63.246094 115.785156 65.746094 111.8125 67.925781 107.644531 C 70.105469 103.472656 71.9375 99.152344 73.425781 94.6875 C 74.914062 90.222656 76.039062 85.667969 76.796875 81.023438 C 77.558594 76.378906 77.941406 71.703125 77.949219 66.996094 Z M 77.949219 66.996094 " fill-opacity="1" fill-rule="nonzero"/></g></svg>