<svg xmlns="http://www.w3.org/2000/svg" xmlns:xlink="http://www.w3.org/1999/xlink" width="500" zoomAndPan="magnify" viewBox="0 0 375 374.999991" height="500" preserveAspectRatio="xMidYMid meet" version="1.0"><defs><clipPath id="79e1abc4ad"><path d="M 133 181 L 232 181 L 232 337.492188 L 133 337.492188 Z M 133 181 " clip-rule="nonzero"/></clipPath><clipPath id="783e4c3cfe"><path d="M 207 142 L 323.933594 142 L 323.933594 337.492188 L 207 337.492188 Z M 207 142 " clip-rule="nonzero"/></clipPath><clipPath id="8db8b550c4"><path d="M 51 44.992188 L 159 44.992188 L 159 337.492188 L 51 337.492188 Z M 51 44.992188 " clip-rule="nonzero"/></clipPath></defs><g clip-path="url(#79e1abc4ad)"><path fill="#ffffff" d="M 133.875 186.367188 L 133.875 233.96875 C 133.878906 237.929688 134.335938 241.839844 135.246094 245.695312 C 136.15625 249.550781 137.496094 253.25 139.265625 256.796875 C 142.164062 262.613281 143.617188 268.769531 143.625 275.265625 L 143.625 327.742188 C 143.625 328.382812 143.6875 329.015625 143.8125 329.644531 C 143.9375 330.269531 144.125 330.878906 144.371094 331.472656 C 144.613281 332.0625 144.914062 332.625 145.269531 333.15625 C 145.625 333.6875 146.03125 334.179688 146.484375 334.632812 C 146.9375 335.085938 147.429688 335.488281 147.960938 335.84375 C 148.492188 336.203125 149.054688 336.5 149.644531 336.746094 C 150.234375 336.992188 150.84375 337.175781 151.472656 337.304688 C 152.101562 337.429688 152.734375 337.492188 153.375 337.492188 L 211.875 337.492188 C 212.515625 337.492188 213.148438 337.429688 213.777344 337.304688 C 214.402344 337.175781 215.011719 336.992188 215.605469 336.746094 C 216.195312 336.5 216.757812 336.203125 217.289062 335.84375 C 217.820312 335.488281 218.3125 335.085938 218.765625 334.632812 C 219.21875 334.179688 219.621094 333.6875 219.976562 333.15625 C 220.335938 332.625 220.632812 332.0625 220.878906 331.472656 C 221.125 330.878906 221.308594 330.269531 221.4375 329.644531 C 221.5625 329.015625 221.625 328.382812 221.625 327.742188 L 221.625 275.265625 C 221.632812 268.769531 223.085938 262.613281 225.984375 256.796875 C 227.753906 253.25 229.089844 249.550781 230 245.695312 C 230.914062 241.839844 231.371094 237.929688 231.375 233.96875 L 231.375 186.367188 C 231.375 186.046875 231.34375 185.730469 231.28125 185.414062 C 231.21875 185.101562 231.125 184.796875 231.003906 184.5 C 230.882812 184.207031 230.730469 183.925781 230.554688 183.660156 C 230.375 183.390625 230.171875 183.144531 229.945312 182.917969 C 229.71875 182.691406 229.472656 182.492188 229.207031 182.3125 C 228.941406 182.136719 228.660156 181.984375 228.363281 181.863281 C 228.070312 181.742188 227.765625 181.648438 227.449219 181.585938 C 227.136719 181.523438 226.820312 181.492188 226.5 181.492188 L 138.75 181.492188 C 138.429688 181.492188 138.113281 181.523438 137.796875 181.585938 C 137.484375 181.648438 137.179688 181.742188 136.882812 181.863281 C 136.589844 181.984375 136.308594 182.136719 136.042969 182.3125 C 135.773438 182.492188 135.527344 182.691406 135.300781 182.917969 C 135.078125 183.144531 134.875 183.390625 134.695312 183.660156 C 134.519531 183.925781 134.367188 184.207031 134.246094 184.5 C 134.125 184.796875 134.03125 185.101562 133.96875 185.414062 C 133.90625 185.730469 133.875 186.046875 133.875 186.367188 Z M 153.375 327.742188 L 153.375 317.09375 C 154.949219 317.675781 156.574219 317.976562 158.25 317.992188 L 207 317.992188 C 208.675781 317.976562 210.300781 317.675781 211.875 317.09375 L 211.875 327.742188 Z M 217.265625 252.4375 C 215.496094 255.980469 214.15625 259.683594 213.246094 263.539062 C 212.335938 267.394531 211.878906 271.304688 211.875 275.265625 L 211.875 303.367188 C 211.875 303.6875 211.84375 304.003906 211.78125 304.316406 C 211.71875 304.632812 211.625 304.9375 211.5 305.230469 C 211.378906 305.527344 211.230469 305.808594 211.050781 306.074219 C 210.875 306.339844 210.671875 306.585938 210.445312 306.8125 C 210.21875 307.039062 209.972656 307.238281 209.707031 307.417969 C 209.441406 307.597656 209.160156 307.746094 208.863281 307.867188 C 208.570312 307.992188 208.265625 308.085938 207.949219 308.148438 C 207.636719 308.210938 207.320312 308.242188 207 308.242188 L 158.25 308.242188 C 157.929688 308.242188 157.613281 308.210938 157.300781 308.148438 C 156.984375 308.085938 156.679688 307.992188 156.386719 307.867188 C 156.089844 307.746094 155.808594 307.597656 155.542969 307.417969 C 155.277344 307.238281 155.03125 307.039062 154.804688 306.8125 C 154.578125 306.585938 154.375 306.339844 154.199219 306.074219 C 154.019531 305.808594 153.871094 305.527344 153.746094 305.230469 C 153.625 304.9375 153.53125 304.632812 153.46875 304.316406 C 153.40625 304.003906 153.375 303.6875 153.375 303.367188 L 153.375 275.265625 C 153.371094 271.304688 152.914062 267.394531 152 263.539062 C 151.089844 259.683594 149.753906 255.980469 147.984375 252.4375 C 145.085938 246.621094 143.632812 240.464844 143.625 233.96875 L 143.625 215.617188 L 160.6875 215.617188 C 164.113281 215.625 167.453125 216.167969 170.703125 217.253906 C 173.953125 218.335938 176.953125 219.902344 179.699219 221.953125 C 183.289062 224.636719 187.210938 226.683594 191.460938 228.101562 C 195.714844 229.519531 200.082031 230.234375 204.5625 230.242188 L 221.625 230.242188 L 221.625 233.96875 C 221.617188 240.464844 220.164062 246.621094 217.265625 252.4375 Z M 221.625 191.242188 L 221.625 220.492188 L 204.5625 220.492188 C 201.136719 220.484375 197.796875 219.9375 194.546875 218.855469 C 191.292969 217.769531 188.296875 216.203125 185.550781 214.152344 C 181.960938 211.472656 178.039062 209.421875 173.785156 208.003906 C 169.535156 206.589844 165.167969 205.875 160.6875 205.867188 L 143.625 205.867188 L 143.625 191.242188 Z M 221.625 191.242188 " fill-opacity="1" fill-rule="nonzero"/></g><path fill="#ffffff" d="M 158.25 235.117188 L 168 235.117188 L 168 244.867188 L 158.25 244.867188 Z M 158.25 235.117188 " fill-opacity="1" fill-rule="nonzero"/><path fill="#ffffff" d="M 197.25 239.992188 L 207 239.992188 L 207 249.742188 L 197.25 249.742188 Z M 197.25 239.992188 " fill-opacity="1" fill-rule="nonzero"/><path fill="#ffffff" d="M 177.75 274.117188 L 187.5 274.117188 L 187.5 283.867188 L 177.75 283.867188 Z M 177.75 274.117188 " fill-opacity="1" fill-rule="nonzero"/><g clip-path="url(#783e4c3cfe)"><path fill="#ffffff" d="M 309.375 142.492188 L 221.625 142.492188 C 221.304688 142.492188 220.988281 142.523438 220.671875 142.585938 C 220.359375 142.648438 220.054688 142.742188 219.757812 142.863281 C 219.464844 142.984375 219.183594 143.136719 218.917969 143.3125 C 218.648438 143.492188 218.402344 143.691406 218.175781 143.917969 C 217.949219 144.144531 217.75 144.390625 217.570312 144.660156 C 217.394531 144.925781 217.242188 145.207031 217.121094 145.5 C 217 145.796875 216.90625 146.101562 216.84375 146.414062 C 216.78125 146.730469 216.75 147.046875 216.75 147.367188 L 216.75 155.097656 L 208.429688 163.421875 C 207.972656 163.878906 207.617188 164.402344 207.371094 165 C 207.125 165.597656 207 166.21875 207 166.867188 L 207 171.742188 L 216.75 171.742188 L 216.75 168.886719 L 225.070312 160.5625 C 225.527344 160.105469 225.878906 159.578125 226.128906 158.980469 C 226.375 158.386719 226.5 157.761719 226.5 157.117188 L 226.5 152.242188 L 304.5 152.242188 L 304.5 157.117188 C 304.5 157.761719 304.625 158.386719 304.871094 158.980469 C 305.117188 159.578125 305.472656 160.105469 305.929688 160.5625 L 314.25 168.886719 L 314.25 200.992188 L 241.125 200.992188 L 241.125 210.742188 L 314.25 210.742188 L 314.25 269.242188 L 231.375 269.242188 L 231.375 278.992188 L 314.25 278.992188 L 314.25 308.242188 L 231.375 308.242188 L 231.375 317.992188 L 308.007812 317.992188 L 305.570312 327.742188 L 231.375 327.742188 L 231.375 337.492188 L 309.375 337.492188 C 309.917969 337.492188 310.445312 337.402344 310.960938 337.226562 C 311.476562 337.050781 311.945312 336.792969 312.375 336.460938 C 312.804688 336.125 313.164062 335.730469 313.460938 335.273438 C 313.757812 334.820312 313.972656 334.328125 314.105469 333.800781 L 318.054688 317.992188 L 319.125 317.992188 C 319.445312 317.992188 319.761719 317.960938 320.074219 317.898438 C 320.390625 317.835938 320.695312 317.742188 320.988281 317.621094 C 321.285156 317.5 321.566406 317.347656 321.832031 317.171875 C 322.097656 316.992188 322.34375 316.789062 322.570312 316.5625 C 322.796875 316.335938 323 316.089844 323.179688 315.824219 C 323.355469 315.558594 323.507812 315.277344 323.628906 314.980469 C 323.75 314.6875 323.84375 314.382812 323.90625 314.066406 C 323.96875 313.753906 324 313.4375 324 313.117188 L 324 166.867188 C 324 166.21875 323.875 165.597656 323.628906 165 C 323.378906 164.402344 323.027344 163.878906 322.570312 163.421875 L 314.25 155.097656 L 314.25 147.367188 C 314.25 147.046875 314.21875 146.730469 314.15625 146.414062 C 314.09375 146.101562 314 145.796875 313.878906 145.5 C 313.757812 145.207031 313.605469 144.925781 313.429688 144.660156 C 313.25 144.390625 313.046875 144.144531 312.820312 143.917969 C 312.59375 143.691406 312.347656 143.492188 312.082031 143.3125 C 311.816406 143.136719 311.535156 142.984375 311.238281 142.863281 C 310.945312 142.742188 310.640625 142.648438 310.324219 142.585938 C 310.011719 142.523438 309.695312 142.492188 309.375 142.492188 Z M 309.375 142.492188 " fill-opacity="1" fill-rule="nonzero"/></g><g clip-path="url(#8db8b550c4)"><path fill="#ffffff" d="M 54.332031 249.078125 C 52.109375 255.863281 50.996094 262.824219 51 269.964844 L 51 317.992188 C 51 318.628906 51.03125 319.265625 51.09375 319.902344 C 51.160156 320.539062 51.253906 321.167969 51.378906 321.792969 C 51.503906 322.421875 51.660156 323.039062 51.84375 323.648438 C 52.03125 324.261719 52.246094 324.859375 52.488281 325.449219 C 52.734375 326.039062 53.007812 326.617188 53.308594 327.179688 C 53.609375 327.742188 53.9375 328.289062 54.292969 328.820312 C 54.648438 329.351562 55.027344 329.863281 55.433594 330.355469 C 55.835938 330.851562 56.265625 331.324219 56.71875 331.773438 C 57.167969 332.226562 57.640625 332.652344 58.136719 333.058594 C 58.628906 333.464844 59.140625 333.84375 59.671875 334.199219 C 60.203125 334.554688 60.75 334.882812 61.3125 335.183594 C 61.875 335.484375 62.449219 335.757812 63.039062 336 C 63.628906 336.246094 64.230469 336.460938 64.839844 336.648438 C 65.453125 336.832031 66.070312 336.988281 66.695312 337.113281 C 67.324219 337.238281 67.953125 337.332031 68.589844 337.394531 C 69.222656 337.460938 69.859375 337.492188 70.5 337.492188 L 75.375 337.492188 C 76.757812 337.492188 78.128906 337.347656 79.480469 337.054688 C 80.832031 336.765625 82.140625 336.332031 83.402344 335.761719 C 84.660156 335.191406 85.847656 334.496094 86.960938 333.671875 C 88.074219 332.847656 89.085938 331.917969 90 330.875 C 90.457031 331.394531 90.9375 331.886719 91.445312 332.355469 C 91.953125 332.820312 92.484375 333.261719 93.039062 333.671875 C 93.59375 334.082031 94.167969 334.460938 94.761719 334.8125 C 95.359375 335.160156 95.96875 335.476562 96.597656 335.761719 C 97.226562 336.046875 97.871094 336.296875 98.523438 336.511719 C 99.179688 336.726562 99.84375 336.910156 100.519531 337.054688 C 101.195312 337.199219 101.875 337.308594 102.558594 337.382812 C 103.246094 337.457031 103.933594 337.492188 104.625 337.492188 C 105.316406 337.492188 106.003906 337.457031 106.6875 337.382812 C 107.375 337.308594 108.054688 337.199219 108.730469 337.054688 C 109.402344 336.910156 110.070312 336.726562 110.722656 336.511719 C 111.378906 336.296875 112.023438 336.046875 112.648438 335.761719 C 113.277344 335.476562 113.890625 335.160156 114.484375 334.8125 C 115.082031 334.460938 115.65625 334.082031 116.210938 333.671875 C 116.765625 333.261719 117.296875 332.820312 117.804688 332.355469 C 118.3125 331.886719 118.792969 331.394531 119.25 330.875 C 120.164062 331.917969 121.175781 332.847656 122.289062 333.671875 C 123.402344 334.496094 124.585938 335.191406 125.847656 335.761719 C 127.109375 336.332031 128.417969 336.765625 129.769531 337.054688 C 131.121094 337.347656 132.492188 337.492188 133.875 337.492188 L 133.875 327.742188 C 133.234375 327.742188 132.601562 327.679688 131.972656 327.550781 C 131.34375 327.425781 130.734375 327.242188 130.144531 326.996094 C 129.554688 326.75 128.992188 326.453125 128.460938 326.09375 C 127.929688 325.738281 127.4375 325.335938 126.984375 324.882812 C 126.53125 324.429688 126.125 323.9375 125.769531 323.40625 C 125.414062 322.875 125.113281 322.3125 124.871094 321.722656 C 124.625 321.128906 124.4375 320.519531 124.3125 319.894531 C 124.1875 319.265625 124.125 318.632812 124.125 317.992188 C 124.125 317.671875 124.09375 317.355469 124.03125 317.039062 C 123.96875 316.726562 123.875 316.421875 123.753906 316.125 C 123.632812 315.832031 123.480469 315.550781 123.304688 315.285156 C 123.125 315.015625 122.921875 314.769531 122.695312 314.542969 C 122.46875 314.316406 122.222656 314.117188 121.957031 313.9375 C 121.691406 313.761719 121.410156 313.609375 121.113281 313.488281 C 120.820312 313.367188 120.515625 313.273438 120.199219 313.210938 C 119.886719 313.148438 119.570312 313.117188 119.25 313.117188 C 118.929688 313.117188 118.613281 313.148438 118.296875 313.210938 C 117.984375 313.273438 117.679688 313.367188 117.382812 313.488281 C 117.089844 313.609375 116.808594 313.761719 116.542969 313.9375 C 116.273438 314.117188 116.027344 314.316406 115.800781 314.542969 C 115.574219 314.769531 115.375 315.015625 115.195312 315.285156 C 115.019531 315.550781 114.867188 315.832031 114.746094 316.125 C 114.625 316.421875 114.53125 316.726562 114.46875 317.039062 C 114.40625 317.355469 114.375 317.671875 114.375 317.992188 C 114.375 318.632812 114.3125 319.265625 114.1875 319.894531 C 114.0625 320.523438 113.878906 321.132812 113.632812 321.722656 C 113.386719 322.3125 113.085938 322.875 112.730469 323.410156 C 112.375 323.941406 111.972656 324.433594 111.519531 324.886719 C 111.066406 325.339844 110.574219 325.742188 110.042969 326.097656 C 109.507812 326.453125 108.949219 326.753906 108.355469 327 C 107.765625 327.246094 107.15625 327.429688 106.527344 327.554688 C 105.898438 327.679688 105.265625 327.742188 104.625 327.742188 C 103.984375 327.742188 103.351562 327.679688 102.722656 327.554688 C 102.09375 327.429688 101.484375 327.246094 100.894531 327 C 100.300781 326.753906 99.738281 326.453125 99.207031 326.097656 C 98.675781 325.742188 98.183594 325.339844 97.730469 324.886719 C 97.277344 324.433594 96.875 323.941406 96.519531 323.410156 C 96.164062 322.875 95.863281 322.3125 95.617188 321.722656 C 95.371094 321.132812 95.1875 320.523438 95.0625 319.894531 C 94.9375 319.265625 94.875 318.632812 94.875 317.992188 C 94.875 317.671875 94.84375 317.355469 94.78125 317.039062 C 94.71875 316.726562 94.625 316.421875 94.503906 316.125 C 94.382812 315.832031 94.230469 315.550781 94.054688 315.285156 C 93.875 315.015625 93.671875 314.769531 93.445312 314.542969 C 93.21875 314.316406 92.972656 314.117188 92.707031 313.9375 C 92.441406 313.761719 92.160156 313.609375 91.863281 313.488281 C 91.570312 313.367188 91.265625 313.273438 90.949219 313.210938 C 90.636719 313.148438 90.320312 313.117188 90 313.117188 C 89.679688 313.117188 89.363281 313.148438 89.046875 313.210938 C 88.734375 313.273438 88.429688 313.367188 88.132812 313.488281 C 87.839844 313.609375 87.558594 313.761719 87.292969 313.9375 C 87.023438 314.117188 86.777344 314.316406 86.550781 314.542969 C 86.324219 314.769531 86.125 315.015625 85.945312 315.285156 C 85.769531 315.550781 85.617188 315.832031 85.496094 316.125 C 85.375 316.421875 85.28125 316.726562 85.21875 317.039062 C 85.15625 317.355469 85.125 317.671875 85.125 317.992188 C 85.125 318.632812 85.0625 319.265625 84.9375 319.894531 C 84.808594 320.519531 84.625 321.128906 84.378906 321.722656 C 84.132812 322.3125 83.835938 322.875 83.476562 323.40625 C 83.121094 323.9375 82.71875 324.429688 82.265625 324.882812 C 81.8125 325.335938 81.320312 325.738281 80.789062 326.09375 C 80.257812 326.453125 79.695312 326.75 79.105469 326.996094 C 78.511719 327.242188 77.902344 327.425781 77.277344 327.554688 C 76.648438 327.679688 76.015625 327.742188 75.375 327.742188 L 70.5 327.742188 C 69.859375 327.742188 69.226562 327.679688 68.597656 327.554688 C 67.96875 327.425781 67.359375 327.242188 66.769531 326.996094 C 66.179688 326.75 65.617188 326.453125 65.085938 326.09375 C 64.554688 325.738281 64.0625 325.335938 63.609375 324.882812 C 63.15625 324.429688 62.75 323.9375 62.394531 323.40625 C 62.039062 322.875 61.738281 322.3125 61.496094 321.722656 C 61.25 321.128906 61.0625 320.519531 60.9375 319.894531 C 60.8125 319.265625 60.75 318.632812 60.75 317.992188 L 60.75 269.964844 C 60.75 263.859375 61.699219 257.90625 63.597656 252.101562 L 63.859375 251.304688 C 64.917969 248.03125 65.71875 244.699219 66.269531 241.300781 C 66.820312 237.90625 67.109375 234.488281 67.136719 231.046875 C 67.164062 227.609375 66.929688 224.1875 66.4375 220.78125 C 65.941406 217.378906 65.191406 214.03125 64.1875 210.742188 L 124.125 210.742188 L 124.125 200.992188 L 61.675781 200.992188 C 61.066406 197.652344 60.757812 194.28125 60.75 190.886719 L 60.75 171.742188 C 60.773438 165.097656 61.75 158.597656 63.675781 152.242188 L 145.574219 152.242188 C 147.5 158.597656 148.476562 165.097656 148.5 171.742188 L 158.25 171.742188 C 158.242188 167.550781 157.898438 163.386719 157.222656 159.25 C 156.546875 155.117188 155.546875 151.058594 154.222656 147.085938 C 152.898438 143.109375 151.265625 139.261719 149.324219 135.550781 C 147.382812 131.835938 145.15625 128.300781 142.648438 124.941406 C 140.457031 122.003906 138.511719 118.910156 136.8125 115.660156 C 135.113281 112.410156 133.683594 109.046875 132.523438 105.566406 C 131.363281 102.089844 130.488281 98.539062 129.898438 94.921875 C 129.308594 91.300781 129.007812 87.660156 129 83.992188 L 129 74.242188 C 129.320312 74.242188 129.636719 74.210938 129.949219 74.148438 C 130.265625 74.085938 130.570312 73.992188 130.863281 73.871094 C 131.160156 73.75 131.441406 73.597656 131.707031 73.421875 C 131.972656 73.242188 132.21875 73.039062 132.445312 72.8125 C 132.671875 72.585938 132.875 72.339844 133.054688 72.074219 C 133.230469 71.808594 133.382812 71.527344 133.503906 71.230469 C 133.625 70.9375 133.71875 70.632812 133.78125 70.316406 C 133.84375 70.003906 133.875 69.6875 133.875 69.367188 L 133.875 54.742188 C 133.875 54.101562 133.8125 53.46875 133.6875 52.839844 C 133.558594 52.210938 133.375 51.601562 133.128906 51.011719 C 132.882812 50.421875 132.585938 49.859375 132.226562 49.328125 C 131.871094 48.796875 131.46875 48.304688 131.015625 47.851562 C 130.5625 47.398438 130.070312 46.992188 129.539062 46.636719 C 129.007812 46.28125 128.445312 45.980469 127.855469 45.738281 C 127.261719 45.492188 126.652344 45.304688 126.027344 45.179688 C 125.398438 45.054688 124.765625 44.992188 124.125 44.992188 L 85.125 44.992188 C 84.484375 44.992188 83.851562 45.054688 83.222656 45.179688 C 82.59375 45.304688 81.984375 45.492188 81.394531 45.738281 C 80.804688 45.980469 80.242188 46.28125 79.710938 46.636719 C 79.179688 46.992188 78.6875 47.398438 78.234375 47.851562 C 77.78125 48.304688 77.375 48.796875 77.019531 49.328125 C 76.664062 49.859375 76.363281 50.421875 76.121094 51.011719 C 75.875 51.601562 75.6875 52.210938 75.5625 52.839844 C 75.4375 53.46875 75.375 54.101562 75.375 54.742188 L 75.375 69.367188 C 75.375 69.6875 75.40625 70.003906 75.46875 70.316406 C 75.53125 70.632812 75.625 70.9375 75.746094 71.230469 C 75.867188 71.527344 76.019531 71.808594 76.195312 72.074219 C 76.375 72.339844 76.574219 72.585938 76.800781 72.8125 C 77.027344 73.039062 77.273438 73.242188 77.542969 73.421875 C 77.808594 73.597656 78.089844 73.75 78.382812 73.871094 C 78.679688 73.992188 78.984375 74.085938 79.296875 74.148438 C 79.613281 74.210938 79.929688 74.242188 80.25 74.242188 L 80.25 83.992188 C 80.242188 87.660156 79.941406 91.300781 79.351562 94.921875 C 78.757812 98.539062 77.882812 102.089844 76.726562 105.566406 C 75.566406 109.046875 74.136719 112.410156 72.4375 115.660156 C 70.738281 118.910156 68.792969 122.003906 66.601562 124.941406 C 64.09375 128.300781 61.867188 131.835938 59.925781 135.550781 C 57.984375 139.261719 56.351562 143.109375 55.027344 147.085938 C 53.703125 151.058594 52.703125 155.117188 52.027344 159.25 C 51.351562 163.386719 51.007812 167.550781 51 171.742188 L 51 190.886719 C 51 198.207031 52.167969 205.335938 54.496094 212.273438 C 55.457031 215.175781 56.183594 218.136719 56.671875 221.152344 C 57.164062 224.171875 57.414062 227.210938 57.421875 230.269531 C 57.429688 233.324219 57.195312 236.363281 56.722656 239.386719 C 56.25 242.40625 55.539062 245.371094 54.59375 248.277344 Z M 85.125 54.742188 L 124.125 54.742188 L 124.125 64.492188 L 85.125 64.492188 Z M 90 83.992188 L 90 74.242188 L 119.25 74.242188 L 119.25 83.992188 C 119.257812 88.183594 119.601562 92.347656 120.277344 96.480469 C 120.953125 100.617188 121.953125 104.671875 123.277344 108.648438 C 124.601562 112.625 126.234375 116.46875 128.175781 120.183594 C 130.117188 123.898438 132.34375 127.433594 134.851562 130.792969 C 137.570312 134.457031 139.898438 138.355469 141.832031 142.492188 L 67.414062 142.492188 C 69.347656 138.355469 71.675781 134.457031 74.398438 130.792969 C 76.90625 127.433594 79.132812 123.898438 81.074219 120.183594 C 83.015625 116.46875 84.648438 112.625 85.972656 108.648438 C 87.296875 104.671875 88.296875 100.617188 88.972656 96.480469 C 89.648438 92.347656 89.992188 88.183594 90 83.992188 Z M 90 83.992188 " fill-opacity="1" fill-rule="nonzero"/></g></svg>