<svg xmlns="http://www.w3.org/2000/svg" xmlns:xlink="http://www.w3.org/1999/xlink" width="500" zoomAndPan="magnify" viewBox="0 0 375 374.999991" height="500" preserveAspectRatio="xMidYMid meet" version="1.0"><defs><clipPath id="ff6c246de0"><path d="M 22.339844 70 L 351 70 L 351 305.117188 L 22.339844 305.117188 Z M 22.339844 70 " clip-rule="nonzero"/></clipPath></defs><g clip-path="url(#ff6c246de0)"><path fill="#ffffff" d="M 348.214844 90.046875 C 346.457031 87.59375 343.957031 85.820312 341.109375 84.953125 C 341.175781 81.945312 340.285156 78.992188 338.527344 76.539062 C 336.355469 73.515625 333.148438 71.53125 329.496094 70.953125 C 325.851562 70.398438 322.226562 71.273438 319.253906 73.460938 C 314.210938 77.175781 312.382812 83.859375 314.515625 89.59375 L 295.144531 103.871094 C 292.949219 101.382812 290.109375 99.675781 287.082031 99.199219 C 284.253906 98.75 281.492188 99.382812 279.3125 100.984375 L 273.460938 105.300781 C 271.324219 106.875 268.910156 108.082031 266.320312 108.992188 C 248.605469 90.355469 219.449219 78.078125 181.121094 73.269531 C 151.515625 69.554688 127.867188 75.296875 110.824219 90.332031 C 93.054688 106.011719 83.265625 131.742188 83.265625 162.78125 C 83.265625 164.503906 83.320312 166.113281 83.382812 167.707031 C 47.914062 176.226562 32.042969 194.191406 25.578125 204.675781 C 23.648438 207.796875 22.609375 211.421875 22.46875 215.191406 C 22.453125 215.257812 22.464844 215.324219 22.457031 215.390625 C 22.449219 215.601562 22.414062 215.808594 22.414062 216.019531 L 22.414062 258.242188 C 22.414062 261.808594 23.097656 264.925781 24.453125 267.511719 C 34.875 287.417969 80.65625 303.863281 114.621094 305.273438 C 116.195312 305.339844 117.820312 305.375 119.480469 305.375 C 133.097656 305.375 148.820312 302.84375 155.484375 292.339844 C 172.007812 266.289062 195.382812 264.371094 195.726562 264.347656 C 216.933594 262.144531 232.53125 257.613281 242.082031 250.882812 C 247.609375 247 250.882812 240.425781 250.832031 233.304688 C 250.789062 227.386719 250.480469 217.644531 249.242188 207.636719 C 260.007812 205.761719 267.605469 201.972656 273.191406 194.558594 C 279.734375 188.160156 284.28125 179.84375 286.078125 170.289062 C 286.339844 168.914062 286.546875 167.523438 286.703125 166.125 C 287.925781 155.300781 292.441406 146.503906 299.425781 141.355469 L 305.277344 137.042969 C 309.175781 134.167969 310.359375 128.78125 308.6875 123.734375 L 328.535156 109.101562 C 333.292969 112.914062 340.132812 113.199219 345.179688 109.476562 C 351.304688 104.960938 352.664062 96.246094 348.214844 90.046875 Z M 30.570312 207.753906 C 37 197.324219 60.792969 168.925781 128.300781 168.925781 C 144.625 168.925781 163.519531 170.589844 185.335938 174.570312 C 185.90625 174.675781 186.476562 174.753906 187.050781 174.804688 C 205.832031 176.589844 238.40625 183.113281 241.386719 196.261719 C 241.511719 196.8125 241.605469 197.390625 241.722656 197.949219 C 236.9375 202.609375 224.90625 209.8125 195.269531 212.890625 C 194.191406 212.960938 168.726562 214.898438 150.527344 243.554688 C 144.21875 253.511719 122.140625 256.574219 94.253906 251.355469 C 60.269531 244.996094 31.515625 229.375 28.328125 215.644531 C 28.394531 212.800781 29.132812 210.074219 30.570312 207.753906 Z M 111.652344 163.53125 C 112.191406 159.3125 114.671875 146.941406 125.394531 145.210938 C 136.136719 143.476562 148.820312 130.230469 156.480469 121.023438 C 153.996094 135.933594 150.097656 152.109375 145.40625 163.59375 C 132.96875 162.773438 121.769531 162.820312 111.652344 163.53125 Z M 238.703125 246.089844 C 232.707031 250.3125 220.277344 255.898438 195.238281 258.503906 C 194.164062 258.574219 168.726562 260.511719 150.527344 289.195312 C 145.867188 296.546875 133.199219 300.164062 114.863281 299.414062 C 79.613281 297.953125 38.203125 281.125 29.648438 264.792969 C 28.738281 263.058594 28.277344 260.851562 28.277344 258.242188 L 28.277344 227.355469 C 40.144531 241.167969 67.378906 252.292969 93.175781 257.121094 C 102.714844 258.90625 111.511719 259.78125 119.355469 259.78125 C 137.15625 259.78125 150.042969 255.277344 155.480469 246.699219 C 172.007812 220.675781 195.414062 218.761719 195.757812 218.738281 C 221.839844 216.027344 235.621094 210.136719 242.914062 204.628906 C 244.550781 215.578125 244.921875 226.832031 244.96875 233.34375 C 245.003906 238.542969 242.664062 243.308594 238.703125 246.089844 Z M 301.792969 132.324219 L 295.945312 136.636719 C 287.632812 142.761719 282.28125 153.003906 280.875 165.472656 C 280.734375 166.722656 280.546875 167.96875 280.316406 169.199219 C 277.25 185.515625 265 197.730469 248.316406 201.222656 C 248.175781 200.386719 248.019531 199.5625 247.863281 198.734375 C 247.855469 198.503906 247.789062 198.28125 247.726562 198.054688 C 247.523438 197.023438 247.335938 195.976562 247.105469 194.964844 C 242.910156 176.433594 203.84375 170.660156 189.347656 169.148438 C 188.746094 169.085938 188.113281 169.015625 187.601562 168.96875 C 187.195312 168.929688 186.792969 168.871094 186.390625 168.800781 C 173.886719 166.519531 162.359375 165.007812 151.640625 164.078125 C 159.234375 144.933594 162.953125 118.417969 163.90625 110.792969 C 164.074219 109.457031 163.3125 108.179688 162.058594 107.695312 C 160.804688 107.207031 159.378906 107.640625 158.605469 108.738281 C 153.015625 116.640625 135.996094 137.558594 124.460938 139.421875 C 110.894531 141.609375 105.449219 157.128906 104.820312 164.144531 C 99.289062 164.722656 94.046875 165.472656 89.210938 166.433594 C 89.175781 165.234375 89.132812 164.058594 89.132812 162.78125 C 89.132812 133.449219 98.214844 109.285156 114.707031 94.730469 C 130.425781 80.855469 152.519531 75.589844 180.394531 79.089844 C 215.019531 83.429688 242.460938 94.457031 259.484375 110.554688 C 255.371094 111.039062 250.960938 110.867188 246.359375 109.925781 C 232.382812 107.054688 218.082031 109.761719 208.3125 116.988281 C 207.910156 117.222656 198.378906 122.996094 191.21875 137.082031 C 190.488281 138.523438 191.0625 140.289062 192.507812 141.023438 C 192.796875 141.171875 193.109375 141.230469 193.417969 141.273438 C 194.625 141.445312 195.863281 140.882812 196.449219 139.738281 C 202.785156 127.265625 211.230469 122.074219 211.550781 121.867188 C 220.25 115.453125 232.832031 113.140625 245.179688 115.667969 C 257.339844 118.164062 268.617188 116.152344 276.945312 110.019531 L 282.792969 105.707031 C 283.945312 104.855469 285.261719 104.851562 286.167969 104.988281 C 288.132812 105.300781 290.046875 106.574219 291.414062 108.484375 L 292.167969 109.53125 C 292.1875 109.5625 292.191406 109.601562 292.210938 109.628906 L 301.929688 123.179688 C 304.1875 126.433594 304.148438 130.589844 301.792969 132.324219 Z M 341.699219 104.757812 C 338.386719 107.191406 333.714844 106.597656 331.054688 103.394531 C 330.0625 102.199219 328.3125 101.984375 327.054688 102.90625 L 305.828125 118.554688 L 298.664062 108.566406 L 319.953125 92.871094 C 321.179688 91.96875 321.507812 90.273438 320.710938 88.976562 C 318.5 85.386719 319.386719 80.648438 322.734375 78.183594 C 324.429688 76.929688 326.507812 76.429688 328.578125 76.746094 C 330.671875 77.078125 332.511719 78.21875 333.761719 79.960938 C 335.117188 81.851562 335.574219 84.277344 335.007812 86.625 C 334.808594 87.460938 334.984375 88.34375 335.488281 89.035156 C 335.996094 89.730469 336.785156 90.167969 337.640625 90.230469 C 339.984375 90.410156 342.101562 91.585938 343.449219 93.464844 C 346.039062 97.070312 345.253906 102.136719 341.699219 104.757812 Z M 341.699219 104.757812 " fill-opacity="1" fill-rule="nonzero"/></g><path fill="#ffffff" d="M 97.976562 230.75 C 109.636719 230.75 119.121094 222.929688 119.121094 213.316406 C 119.121094 203.707031 109.636719 195.886719 97.976562 195.886719 C 86.320312 195.886719 76.835938 203.707031 76.835938 213.316406 C 76.835938 222.929688 86.320312 230.75 97.976562 230.75 Z M 97.976562 201.75 C 106.402344 201.75 113.257812 206.9375 113.257812 213.316406 C 113.257812 219.695312 106.402344 224.886719 97.976562 224.886719 C 89.554688 224.886719 82.703125 219.695312 82.703125 213.316406 C 82.703125 206.9375 89.554688 201.75 97.976562 201.75 Z M 97.976562 201.75 " fill-opacity="1" fill-rule="nonzero"/></svg>