<svg xmlns="http://www.w3.org/2000/svg" xmlns:xlink="http://www.w3.org/1999/xlink" width="500" zoomAndPan="magnify" viewBox="0 0 375 374.999991" height="500" preserveAspectRatio="xMidYMid meet" version="1.0"><defs><clipPath id="cde24c4c29"><path d="M 22 70 L 351 70 L 351 305.554688 L 22 305.554688 Z M 22 70 " clip-rule="nonzero"/></clipPath></defs><g clip-path="url(#cde24c4c29)"><path fill="#000000" d="M 348.367188 89.792969 C 346.605469 87.339844 344.101562 85.5625 341.25 84.691406 C 341.3125 81.679688 340.421875 78.71875 338.660156 76.265625 C 336.484375 73.234375 333.273438 71.246094 329.617188 70.667969 C 325.964844 70.109375 322.332031 70.984375 319.355469 73.179688 C 314.304688 76.902344 312.476562 83.59375 314.609375 89.339844 L 295.207031 103.644531 C 293.003906 101.15625 290.160156 99.441406 287.128906 98.964844 C 284.292969 98.515625 281.53125 99.148438 279.347656 100.753906 L 273.484375 105.078125 C 271.34375 106.65625 268.921875 107.867188 266.328125 108.777344 C 248.585938 90.105469 219.378906 77.804688 180.984375 72.988281 C 151.328125 69.265625 127.636719 75.019531 110.566406 90.082031 C 92.765625 105.792969 82.960938 131.570312 82.960938 162.667969 C 82.960938 164.390625 83.015625 166.003906 83.078125 167.601562 C 47.542969 176.136719 31.648438 194.132812 25.171875 204.636719 C 23.238281 207.769531 22.195312 211.398438 22.058594 215.175781 C 22.042969 215.242188 22.054688 215.308594 22.042969 215.375 C 22.039062 215.585938 22 215.792969 22 216.003906 L 22 258.308594 C 22 261.882812 22.6875 265.003906 24.042969 267.597656 C 34.484375 287.539062 80.34375 304.015625 114.367188 305.425781 C 115.945312 305.492188 117.574219 305.53125 119.234375 305.53125 C 132.875 305.53125 148.625 302.992188 155.300781 292.46875 C 171.855469 266.367188 195.269531 264.449219 195.617188 264.425781 C 216.859375 262.214844 232.480469 257.679688 242.050781 250.9375 C 247.585938 247.042969 250.863281 240.457031 250.816406 233.324219 C 250.773438 227.394531 250.464844 217.632812 249.222656 207.605469 C 260.007812 205.730469 267.617188 201.929688 273.210938 194.503906 C 279.765625 188.09375 284.324219 179.761719 286.121094 170.1875 C 286.382812 168.808594 286.59375 167.417969 286.75 166.019531 C 287.972656 155.171875 292.496094 146.355469 299.492188 141.203125 L 305.355469 136.882812 C 309.261719 134 310.445312 128.601562 308.769531 123.546875 L 328.65625 108.886719 C 333.417969 112.707031 340.269531 112.992188 345.324219 109.261719 C 345.328125 109.261719 345.328125 109.261719 345.328125 109.261719 C 351.460938 104.738281 352.824219 96.007812 348.367188 89.792969 Z M 30.171875 207.726562 C 36.613281 197.277344 60.445312 168.820312 128.070312 168.820312 C 144.425781 168.820312 163.355469 170.488281 185.203125 174.476562 C 185.777344 174.582031 186.351562 174.664062 186.921875 174.714844 C 205.738281 176.503906 238.367188 183.039062 241.351562 196.210938 C 241.476562 196.761719 241.574219 197.339844 241.691406 197.898438 C 236.894531 202.570312 224.84375 209.785156 195.15625 212.871094 C 194.078125 212.941406 168.570312 214.882812 150.339844 243.59375 C 144.019531 253.570312 121.898438 256.636719 93.96875 251.410156 C 59.921875 245.035156 31.121094 229.386719 27.925781 215.628906 C 27.992188 212.78125 28.734375 210.050781 30.171875 207.726562 Z M 111.394531 163.417969 C 111.933594 159.191406 114.417969 146.796875 125.160156 145.0625 C 135.921875 143.324219 148.625 130.054688 156.300781 120.828125 C 153.8125 135.765625 149.90625 151.976562 145.207031 163.480469 C 132.75 162.65625 121.53125 162.707031 111.394531 163.417969 Z M 238.667969 246.132812 C 232.660156 250.363281 220.210938 255.960938 195.125 258.570312 C 194.050781 258.640625 168.566406 260.582031 150.339844 289.320312 C 145.667969 296.683594 132.980469 300.308594 114.609375 299.558594 C 79.300781 298.09375 37.820312 281.234375 29.246094 264.871094 C 28.339844 263.132812 27.875 260.921875 27.875 258.308594 L 27.875 227.363281 C 39.761719 241.199219 67.042969 252.347656 92.886719 257.183594 C 102.441406 258.976562 111.253906 259.851562 119.113281 259.851562 C 136.941406 259.851562 149.851562 255.335938 155.296875 246.742188 C 171.855469 220.671875 195.304688 218.75 195.648438 218.726562 C 221.773438 216.015625 235.578125 210.109375 242.882812 204.59375 C 244.523438 215.5625 244.894531 226.835938 244.941406 233.363281 C 244.976562 238.570312 242.632812 243.34375 238.667969 246.132812 Z M 301.867188 132.152344 L 296.003906 136.472656 C 287.679688 142.609375 282.316406 152.871094 280.910156 165.363281 C 280.769531 166.617188 280.582031 167.863281 280.351562 169.097656 C 277.277344 185.441406 265.007812 197.683594 248.296875 201.183594 C 248.152344 200.34375 248 199.519531 247.839844 198.6875 C 247.835938 198.457031 247.765625 198.234375 247.703125 198.007812 C 247.5 196.972656 247.3125 195.925781 247.085938 194.914062 C 242.878906 176.347656 203.746094 170.558594 189.222656 169.042969 C 188.621094 168.980469 187.988281 168.914062 187.472656 168.863281 C 187.066406 168.828125 186.664062 168.769531 186.261719 168.699219 C 173.734375 166.414062 162.1875 164.898438 151.453125 163.96875 C 159.058594 144.785156 162.785156 118.21875 163.742188 110.582031 C 163.90625 109.242188 163.144531 107.964844 161.886719 107.476562 C 160.632812 106.988281 159.207031 107.421875 158.429688 108.519531 C 152.832031 116.4375 135.777344 137.398438 124.226562 139.261719 C 110.636719 141.457031 105.179688 157.003906 104.550781 164.03125 C 99.011719 164.613281 93.761719 165.363281 88.914062 166.324219 C 88.878906 165.125 88.835938 163.949219 88.835938 162.667969 C 88.835938 133.28125 97.933594 109.070312 114.453125 94.488281 C 130.203125 80.585938 152.332031 75.3125 180.257812 78.816406 C 214.941406 83.167969 242.429688 94.210938 259.480469 110.339844 C 255.363281 110.828125 250.941406 110.65625 246.335938 109.710938 C 232.335938 106.835938 218.007812 109.546875 208.222656 116.785156 C 207.820312 117.023438 198.273438 122.808594 191.101562 136.917969 C 190.367188 138.363281 190.941406 140.132812 192.386719 140.867188 C 192.683594 141.015625 192.992188 141.078125 193.300781 141.121094 C 194.511719 141.292969 195.75 140.726562 196.339844 139.582031 C 202.6875 127.085938 211.144531 121.882812 211.464844 121.675781 C 220.179688 115.25 232.785156 112.933594 245.152344 115.464844 C 257.335938 117.964844 268.632812 115.953125 276.972656 109.804688 L 282.832031 105.484375 C 283.988281 104.628906 285.304688 104.628906 286.210938 104.765625 C 288.183594 105.078125 290.097656 106.355469 291.46875 108.269531 L 292.222656 109.320312 C 292.242188 109.347656 292.246094 109.386719 292.265625 109.414062 L 302.003906 122.992188 C 304.265625 126.25 304.226562 130.414062 301.867188 132.152344 Z M 341.839844 104.53125 C 338.523438 106.972656 333.839844 106.378906 331.175781 103.167969 C 330.183594 101.972656 328.429688 101.753906 327.171875 102.679688 L 305.90625 118.355469 L 298.730469 108.347656 L 320.058594 92.625 C 321.285156 91.71875 321.613281 90.023438 320.8125 88.722656 C 318.597656 85.128906 319.488281 80.378906 322.84375 77.910156 C 324.539062 76.65625 326.621094 76.152344 328.699219 76.472656 C 330.792969 76.804688 332.636719 77.945312 333.886719 79.691406 C 335.246094 81.582031 335.703125 84.015625 335.136719 86.367188 C 334.9375 87.203125 335.113281 88.085938 335.621094 88.78125 C 336.128906 89.480469 336.917969 89.914062 337.773438 89.980469 C 340.121094 90.160156 342.242188 91.339844 343.59375 93.21875 C 346.183594 96.832031 345.398438 101.90625 341.839844 104.53125 Z M 341.839844 104.53125 " fill-opacity="1" fill-rule="nonzero"/></g><path fill="#000000" d="M 97.695312 230.765625 C 109.375 230.765625 118.875 222.929688 118.875 213.296875 C 118.875 203.667969 109.375 195.832031 97.695312 195.832031 C 86.019531 195.832031 76.519531 203.667969 76.519531 213.296875 C 76.519531 222.929688 86.019531 230.765625 97.695312 230.765625 Z M 97.695312 201.710938 C 106.136719 201.710938 113 206.90625 113 213.296875 C 113 219.6875 106.136719 224.886719 97.695312 224.886719 C 89.257812 224.886719 82.394531 219.6875 82.394531 213.296875 C 82.394531 206.90625 89.257812 201.710938 97.695312 201.710938 Z M 97.695312 201.710938 " fill-opacity="1" fill-rule="nonzero"/></svg>