<svg xmlns="http://www.w3.org/2000/svg" xmlns:xlink="http://www.w3.org/1999/xlink" width="500" zoomAndPan="magnify" viewBox="0 0 375 374.999991" height="500" preserveAspectRatio="xMidYMid meet" version="1.0"><defs><clipPath id="bc14a64852"><path d="M 119.378906 49.023438 L 255.878906 49.023438 L 255.878906 337.773438 L 119.378906 337.773438 Z M 119.378906 49.023438 " clip-rule="nonzero"/></clipPath></defs><g clip-path="url(#bc14a64852)"><path fill="#ffffff" d="M 224.390625 96.964844 L 255.878906 96.964844 L 255.878906 49.535156 L 215.667969 49.535156 L 215.667969 49.714844 C 162.800781 51.652344 151.902344 81.234375 150.992188 112.511719 L 150.871094 112.511719 L 150.871094 145.421875 L 119.378906 145.421875 L 119.378906 192.914062 L 150.871094 192.914062 L 150.871094 337.261719 L 207.371094 337.261719 L 207.371094 192.914062 L 247.886719 192.914062 L 255.878906 145.421875 L 207.371094 145.421875 L 207.371094 115.960938 C 207.371094 105.496094 214.398438 96.964844 224.390625 96.964844 Z M 224.390625 96.964844 " fill-opacity="1" fill-rule="nonzero"/></g></svg>