<svg xmlns="http://www.w3.org/2000/svg" xmlns:xlink="http://www.w3.org/1999/xlink" width="500" zoomAndPan="magnify" viewBox="0 0 375 374.999991" height="500" preserveAspectRatio="xMidYMid meet" version="1.0"><defs><clipPath id="9d8b30852a"><path d="M 33.015625 68 L 342 68 L 342 307 L 33.015625 307 Z M 33.015625 68 " clip-rule="nonzero"/></clipPath></defs><g clip-path="url(#9d8b30852a)"><path fill="#ffffff" d="M 101.054688 198.484375 C 101.203125 197.484375 101.40625 196.429688 101.664062 195.40625 C 93.109375 196.558594 84.863281 199.039062 76.023438 199.097656 C 68.410156 199.128906 60.394531 198.707031 52.910156 197.113281 C 49.195312 196.296875 44.921875 194.773438 41.339844 192.515625 C 44.550781 198.855469 49.648438 204.894531 54.753906 207.675781 C 58.757812 209.890625 63.460938 211.46875 67.464844 213.785156 C 74.710938 204.304688 88.734375 199.207031 101.054688 198.484375 Z M 104.503906 171.640625 C 104.503906 170.617188 104.503906 169.5625 104.503906 168.527344 C 104.445312 168.488281 104.355469 168.46875 104.292969 168.398438 C 95.847656 162.691406 82.753906 163.414062 73.105469 163.722656 C 64.296875 163.984375 51.925781 165.621094 44.492188 170.828125 C 36.96875 176.125 37.449219 181.378906 40.96875 185.382812 C 41.472656 184.640625 42.125 183.957031 43.027344 183.328125 C 43.679688 182.867188 44.230469 182.664062 44.992188 182.402344 C 45.292969 182.3125 45.585938 182.214844 45.886719 182.101562 C 45.867188 181.289062 45.867188 180.457031 46.015625 179.625 C 46.386719 177.527344 48.101562 174.617188 50.460938 174.199219 C 52.015625 173.9375 53.308594 174.097656 54.515625 174.597656 C 55.539062 172.972656 57.113281 171.789062 59.058594 170.828125 C 60.242188 170.246094 61.929688 169.472656 63.28125 169.824219 C 63.984375 170.003906 64.597656 170.375 65.226562 170.65625 C 69.964844 167.285156 76.195312 168.296875 79.414062 172.710938 C 82.472656 170.265625 87.007812 169.761719 89.917969 172.363281 C 93.019531 170.617188 96.921875 170.433594 100 172.191406 C 101.6875 171.789062 103.070312 171.289062 104.503906 171.640625 Z M 105.296875 187.398438 C 105.335938 187.328125 105.40625 187.289062 105.449219 187.21875 C 104.964844 183.957031 104.726562 180.589844 104.59375 177.15625 C 104.132812 177.085938 103.652344 176.894531 103.242188 176.496094 C 102.757812 176.0625 99.871094 177.546875 98.867188 177.289062 C 96.179688 176.546875 93.832031 174.988281 91.203125 177.597656 C 89.738281 179.03125 87.699219 178.160156 87.007812 176.476562 C 86.046875 174.15625 81.511719 176.304688 81.269531 178.269531 C 80.878906 181.441406 75.84375 181.492188 76.242188 178.269531 C 76.265625 178.121094 76.304688 177.988281 76.324219 177.859375 C 75.472656 174.46875 72.5625 172.933594 69.300781 174.136719 C 68.039062 174.617188 67.175781 175.992188 65.730469 175.992188 C 64.726562 175.992188 63.652344 175.710938 62.851562 175.121094 C 61.496094 174.117188 58.425781 177.007812 58.296875 178.269531 C 58.164062 179.542969 57.3125 180.308594 56.308594 180.566406 C 55.496094 180.898438 54.554688 180.828125 53.722656 180.046875 C 50.378906 176.847656 51.292969 182.84375 50.609375 184.570312 C 50.089844 185.886719 49.238281 186.304688 47.972656 186.71875 C 47.179688 186.980469 46.085938 187.148438 45.476562 187.769531 C 45.144531 188.09375 45.011719 188.382812 44.921875 188.664062 C 47.832031 190.5 51.292969 191.773438 54.273438 192.253906 C 60.023438 193.167969 66.300781 194.113281 72.191406 194.070312 C 83.003906 194.019531 93.109375 191.222656 103.652344 190.148438 C 104.164062 189.164062 104.707031 188.253906 105.296875 187.398438 Z M 146.609375 245.378906 C 147.171875 244.613281 147.765625 243.800781 148.335938 242.988281 C 141.132812 247.191406 131.292969 252.398438 122.785156 252.710938 C 108.800781 253.230469 86.367188 254.003906 73.003906 244.65625 C 78.007812 251.726562 86.476562 256.414062 93.4375 261.328125 C 101.335938 266.886719 109.824219 267.589844 119.253906 267.570312 C 134.421875 266.535156 138.464844 256.210938 146.609375 245.378906 Z M 154.417969 221.730469 C 154.355469 221.550781 154.304688 221.378906 154.246094 221.199219 C 151.464844 213.9375 134.480469 206.191406 127.589844 204.726562 C 118.640625 202.78125 108.035156 202.667969 98.90625 203.933594 C 91.554688 204.964844 85.253906 205.988281 79.0625 210.433594 C 75.894531 212.691406 73.636719 215.191406 71.710938 218.230469 C 71.429688 218.679688 71.117188 219.511719 70.765625 220.4375 C 70.003906 222.511719 69.132812 225.183594 68.1875 225.683594 C 68.75 225.421875 69.371094 225.253906 70.023438 225.121094 C 70.15625 223.4375 70.566406 221.921875 71.910156 220.496094 C 73.265625 219.082031 74.859375 218.269531 76.695312 218.378906 C 77.707031 215.660156 81.140625 213.875 84.328125 213.523438 C 85.191406 211.207031 87.027344 209.761719 89.847656 209.210938 C 91.34375 208.929688 92.757812 209.359375 93.941406 210.171875 C 95.738281 208.359375 98.273438 207.242188 100.683594 207.566406 C 102.167969 206.5 103.964844 204.988281 106.242188 205.378906 C 107.765625 205.640625 109.5 206.453125 110.855469 207.613281 C 111.707031 207.152344 112.652344 206.824219 113.632812 206.742188 C 115.359375 206.5625 116.585938 206.28125 118.160156 207.195312 C 118.621094 207.464844 119.140625 208.027344 119.472656 208.617188 C 121.511719 208.175781 124.007812 208.246094 125.34375 209.121094 C 126.65625 209.972656 127.398438 211.097656 127.808594 212.359375 C 130.21875 211.15625 133.015625 210.503906 135.292969 210.304688 C 138.183594 210.042969 140.019531 212.269531 140.652344 214.839844 C 141.664062 215.160156 142.578125 215.820312 143.28125 216.734375 C 143.691406 217.265625 144.09375 218.492188 144.3125 219.605469 C 145.910156 219.675781 147.523438 220.175781 148.839844 221.046875 C 149.210938 220.917969 149.582031 220.789062 149.953125 220.71875 C 151.507812 220.386719 153.082031 220.847656 154.417969 221.730469 Z M 160.105469 228.050781 C 160.253906 228.050781 160.414062 228.050781 160.546875 228.050781 C 160.394531 228.050781 160.253906 228.050781 160.105469 228.03125 C 160.105469 228.050781 160.105469 228.050781 160.105469 228.050781 Z M 160.546875 249.863281 C 165.121094 249.359375 171.269531 249.339844 177.300781 250.28125 C 172.363281 245.003906 168.53125 238.554688 166.144531 231 C 165.992188 231.050781 165.863281 231.089844 165.683594 231.109375 C 164.640625 231.203125 163.65625 231.832031 162.5625 231.902344 C 161.96875 231.945312 161.699219 232.203125 161.066406 232.386719 C 160.636719 232.515625 159.824219 232.515625 159.25 232.515625 C 157.414062 239.1875 153.230469 245.425781 149.128906 251.15625 C 149.230469 251.246094 149.339844 251.335938 149.449219 251.4375 C 149.742188 251.675781 149.910156 251.988281 150.042969 252.320312 C 153.964844 250.984375 157.765625 250.191406 160.546875 249.863281 Z M 184.632812 132.011719 C 184.28125 131.910156 183.960938 131.691406 183.652344 131.359375 C 182.726562 130.394531 182.707031 130.4375 181.332031 130.464844 C 179.707031 130.488281 178.292969 130.726562 176.847656 131.488281 C 175.964844 131.949219 175.144531 131.859375 174.480469 131.488281 C 173.546875 131.429688 172.644531 130.878906 172.332031 129.714844 C 171.753906 127.597656 168.289062 128.378906 167.238281 129.714844 C 166.386719 130.808594 164.570312 130.617188 163.675781 129.714844 C 163.585938 129.632812 163.566406 129.523438 163.476562 129.433594 C 163.125 129.132812 162.863281 128.691406 162.753906 128.078125 C 162.53125 126.652344 161.859375 124.746094 160.214844 124.46875 C 159.363281 124.316406 155.800781 124.046875 155.578125 125.339844 C 155.578125 125.359375 155.558594 125.378906 155.558594 125.410156 C 155.558594 125.429688 155.558594 125.449219 155.539062 125.449219 C 154.929688 128.210938 151.003906 127.335938 150.703125 124.796875 C 150.675781 124.667969 150.652344 124.527344 150.632812 124.375 C 150.574219 123.746094 148.398438 124.398438 148.136719 124.488281 C 147.082031 124.816406 145.777344 125.300781 145.074219 126.210938 C 145.074219 126.984375 144.683594 127.597656 144.09375 127.96875 C 142.796875 129.394531 140.191406 128.730469 139.738281 126.933594 C 139.496094 126.914062 139.148438 126.824219 138.867188 126.855469 C 138.3125 126.855469 137.652344 126.785156 137.109375 126.894531 C 135.476562 127.246094 133.648438 127.769531 132.625 129.210938 C 132.253906 129.714844 131.8125 130.023438 131.332031 130.175781 C 130.609375 130.917969 129.515625 131.269531 128.363281 130.65625 C 128.050781 130.507812 126.675781 130.726562 126.125 130.726562 C 125.554688 130.746094 125.050781 130.808594 124.507812 130.898438 C 124.398438 130.898438 124.308594 130.898438 124.199219 130.917969 C 126.585938 134.027344 129.015625 137.25 132.816406 138.902344 C 140.039062 142.054688 144.59375 146.757812 152.730469 147.941406 C 156.695312 148.535156 162.25 149.890625 167.238281 150.199219 C 167.289062 150.109375 167.328125 150.019531 167.398438 149.910156 C 169.625 146.347656 173.738281 145.164062 176.257812 142.035156 C 179.207031 138.339844 182.035156 135.511719 184.632812 132.011719 Z M 187.332031 127.96875 C 188.15625 126.542969 189.910156 124.910156 191.898438 123.765625 C 189.296875 122.933594 186.230469 123.082031 183.519531 123.0625 C 182.628906 123.0625 182.015625 122.691406 181.59375 122.148438 C 162.992188 111.867188 145.136719 117.203125 125.382812 119.984375 C 125.160156 120.003906 124.992188 119.960938 124.8125 119.933594 C 124.230469 120.132812 123.566406 120.09375 122.882812 119.722656 C 121.789062 119.128906 117.699219 120.0625 116.28125 121.117188 C 115.429688 121.757812 114.46875 122.449219 113.632812 123.242188 C 116.675781 123.503906 118.882812 124.949219 120.789062 126.875 C 121.089844 126.5625 121.441406 126.324219 121.921875 126.171875 C 122.753906 125.890625 123.765625 125.933594 124.640625 125.820312 C 126.035156 125.628906 127.621094 125.492188 129.0625 125.761719 C 131.992188 122.78125 138.183594 120.464844 142.078125 122.28125 C 145.296875 119.371094 150.785156 118.078125 153.714844 120.414062 C 155.75 119.410156 158.359375 119.148438 160.253906 119.410156 C 163.144531 119.800781 165.492188 121.558594 166.734375 124.027344 C 168.160156 123.503906 169.734375 123.375 171.269531 123.523438 C 173.425781 123.746094 175.164062 124.6875 176.257812 126.304688 C 178.050781 125.671875 179.910156 125.429688 181.886719 125.429688 C 184.191406 125.429688 185.617188 126.132812 187.191406 127.816406 C 187.261719 127.859375 187.28125 127.917969 187.332031 127.96875 Z M 193.652344 273.054688 C 193.210938 272.976562 192.78125 272.707031 192.398438 272.222656 C 192.320312 272.144531 191.246094 270.871094 191.355469 270.808594 C 190.761719 271.148438 190.242188 271.480469 189.507812 271.480469 C 188.617188 271.480469 187.5625 271.050781 186.929688 270.40625 C 186.019531 269.496094 182.515625 262.972656 181.28125 266.734375 C 180.28125 269.796875 175.425781 268.480469 176.425781 265.402344 C 176.425781 265.382812 176.445312 265.382812 176.445312 265.351562 C 176.40625 265.160156 176.347656 264.980469 176.347656 264.75 C 176.386719 263.625 176.796875 263.273438 175.425781 263.644531 C 175.074219 263.757812 174.742188 263.957031 174.421875 264.109375 C 173.757812 264.367188 172.996094 264.660156 172.3125 264.457031 C 171.332031 264.199219 170.496094 262.882812 169.40625 263.234375 C 168.03125 263.644531 167.980469 265.25 167.980469 265.25 C 167.980469 267.4375 162.933594 267.4375 162.933594 265.25 C 162.933594 264.417969 162.992188 263.714844 163.105469 263.085938 C 162.082031 261.308594 158.289062 263.386719 157.394531 264.289062 C 156.503906 265.179688 154.859375 265.25 153.785156 264.609375 C 153.503906 264.4375 152.582031 263.195312 152.488281 263.828125 C 152.378906 264.480469 152.378906 265.140625 152.378906 265.792969 C 152.359375 268.753906 148.246094 268.992188 147.503906 266.566406 C 147.222656 266.386719 147.003906 266.125 146.832031 265.773438 C 146.722656 265.773438 146.609375 265.773438 146.5 265.773438 C 146.148438 265.8125 145.886719 265.753906 145.667969 265.992188 C 144.855469 266.886719 145.054688 268.050781 144.90625 269.144531 C 144.746094 270.296875 143.851562 271.742188 142.578125 271.960938 C 141.613281 272.113281 139.980469 272.113281 139.828125 273.40625 C 141.292969 276.125 143.984375 278.683594 147.3125 280.851562 C 156.082031 286.578125 167.199219 286.167969 177.109375 283.371094 C 183.210938 281.632812 191.355469 278.964844 193.652344 273.054688 Z M 192.691406 288.175781 C 193.742188 285.488281 194.503906 282.707031 194.917969 279.929688 C 190.351562 284.574219 182.949219 287.300781 176.316406 288.746094 C 164.417969 291.355469 149.761719 290.734375 140.261719 282.816406 C 143.671875 291.507812 150.484375 299.339844 158.878906 300.9375 C 169.644531 302.992188 188.175781 299.863281 192.691406 288.175781 Z M 201.378906 173.433594 C 200.867188 172.453125 200.414062 171.417969 200.234375 170.457031 C 199.863281 168.597656 200.0625 166.804688 199.753906 164.949219 C 199.542969 163.613281 199.402344 162.277344 199.421875 160.945312 C 196.824219 163.542969 194.246094 166.0625 191.042969 168.296875 C 186.960938 171.136719 182.90625 173.363281 178.164062 174.941406 C 175.074219 175.972656 173.757812 171.117188 176.820312 170.113281 C 181.703125 168.46875 185.667969 165.992188 189.820312 163.019531 C 193.632812 160.3125 196.191406 156.980469 199.511719 153.78125 C 199.710938 153.589844 199.953125 153.460938 200.171875 153.332031 C 200.023438 152.9375 199.84375 152.539062 199.691406 152.144531 C 199.210938 151.625 199.03125 150.871094 199.402344 149.980469 C 199.84375 148.925781 200.171875 147.984375 200.476562 147.089844 C 199.511719 146.066406 198.597656 144.792969 198.378906 143.457031 C 198.328125 143.175781 198.269531 142.886719 198.226562 142.605469 C 194.726562 147.070312 190.320312 150.921875 187.785156 152.820312 C 183.722656 155.867188 182.558594 160.441406 178.222656 163.210938 C 174.089844 165.859375 167.859375 166.582031 163.125 167.285156 C 155.136719 168.507812 149.378906 165.78125 142.578125 161.777344 C 138.074219 159.097656 133.679688 156.167969 128.902344 153.941406 C 125.625 152.40625 120.4375 151.554688 117.65625 148.796875 C 114.578125 145.714844 112.542969 141.050781 110.945312 136.476562 C 109.890625 143.917969 109.710938 151.425781 109.710938 159 C 109.710938 166.019531 109.300781 174.066406 109.84375 181.472656 C 110.003906 181.21875 110.152344 180.960938 110.324219 180.738281 C 111.878906 178.753906 113.101562 176.496094 114.726562 174.578125 C 116.804688 172.101562 120.355469 175.671875 118.269531 178.140625 C 117.285156 179.324219 116.585938 180.769531 115.640625 182.011719 C 114.898438 182.996094 114.097656 183.957031 113.394531 184.992188 C 112.167969 186.789062 111.15625 188.996094 109.519531 190.441406 C 109.410156 190.550781 109.300781 190.609375 109.191406 190.679688 C 107.765625 192.90625 106.671875 195.625 106.191406 198.316406 C 119.304688 198.054688 130.238281 199.519531 142.246094 205.890625 C 150.113281 210.0625 160.003906 214.898438 160.234375 225.070312 C 160.253906 225.902344 160.234375 226.71875 160.175781 227.53125 C 160.484375 227.328125 160.785156 227.128906 161.085938 227.046875 C 161.640625 226.867188 162.230469 226.957031 162.792969 226.777344 C 163.675781 226.496094 164.488281 226.253906 165.382812 226.144531 C 165.011719 224.882812 164.808594 223.566406 164.808594 222.164062 C 165.070312 202.6875 181.746094 194.855469 198.769531 193.058594 C 198.808594 187.980469 199.011719 185.34375 199.453125 181.421875 C 199.710938 179.03125 199.953125 175.621094 201.378906 173.433594 Z M 210.609375 133.023438 C 210.105469 132.824219 209.605469 132.652344 209.050781 132.523438 C 207.808594 132.230469 206.585938 131.859375 205.332031 131.507812 C 204.769531 134.25 204.527344 137.046875 203.195312 139.605469 C 203.101562 139.785156 202.992188 139.9375 202.882812 140.085938 C 202.882812 140.289062 202.914062 140.480469 202.921875 140.699219 C 202.992188 141.011719 203.0625 141.269531 203.125 141.53125 C 204.105469 140.527344 205.492188 139.675781 207.71875 138.933594 C 207.988281 138.84375 208.21875 138.773438 208.492188 138.691406 C 209.144531 136.765625 209.84375 134.878906 210.609375 133.023438 Z M 213.777344 105.015625 C 213.515625 104.84375 213.277344 104.621094 213.054688 104.332031 C 211.398438 101.996094 209.824219 99.957031 207.988281 97.730469 C 207.105469 96.636719 206.214844 95.605469 205.289062 94.601562 C 204.589844 99.195312 203.976562 103.789062 203.171875 108.386719 C 202.339844 113.070312 202.210938 118.097656 200.695312 122.601562 C 200.675781 122.652344 200.65625 122.722656 200.636719 122.761719 C 201.265625 123.261719 201.828125 123.785156 202.359375 124.355469 C 202.992188 123.222656 203.65625 122.128906 204.238281 121.167969 C 207.476562 115.871094 210.457031 110.292969 213.777344 105.015625 Z M 214.769531 124.507812 C 213.976562 124.136719 213.195312 123.746094 212.421875 123.375 C 211.769531 123.023438 210.828125 122.429688 210.285156 122.449219 C 209.996094 122.46875 209.683594 122.46875 209.421875 122.429688 C 208.589844 123.855469 207.789062 125.300781 206.996094 126.746094 C 208.359375 127.09375 209.683594 127.4375 211.019531 127.816406 C 211.609375 127.96875 212.164062 128.210938 212.683594 128.449219 C 213.347656 127.117188 214.039062 125.800781 214.769531 124.507812 Z M 220.347656 135.644531 C 218.644531 135.363281 216.796875 135.414062 215.253906 135.382812 C 215 135.914062 214.742188 136.4375 214.519531 136.988281 C 216.425781 136.503906 218.371094 136.0625 220.347656 135.644531 Z M 217.371094 120.203125 C 218.222656 118.890625 219.144531 117.59375 220.109375 116.332031 C 219.183594 115.910156 218.242188 115.226562 217.277344 114.945312 C 216.316406 114.644531 215.351562 114.292969 214.519531 113.742188 C 213.738281 115.078125 212.945312 116.410156 212.164062 117.726562 C 212.773438 117.925781 213.40625 118.226562 214.039062 118.558594 C 215.03125 119.039062 216.164062 119.609375 217.371094 120.203125 Z M 225.6875 126.933594 C 225.535156 126.894531 225.375 126.875 225.222656 126.804688 C 223.929688 126.375 222.644531 125.863281 221.242188 125.800781 C 221.050781 125.800781 220.890625 125.742188 220.71875 125.691406 C 219.835938 127.023438 219.003906 128.378906 218.183594 129.765625 C 218.3125 129.785156 218.421875 129.804688 218.554688 129.804688 C 219.234375 129.804688 219.925781 129.785156 220.609375 129.84375 C 221.925781 129.984375 223.207031 130.175781 224.460938 130.578125 C 224.832031 129.34375 225.222656 128.140625 225.6875 126.933594 Z M 230.480469 97.789062 C 229.839844 97.660156 229.269531 97.441406 228.59375 97.269531 C 227.894531 97.070312 227.171875 97.089844 226.449219 97.089844 C 226.039062 97.089844 225.6875 97.007812 225.375 96.878906 C 224.171875 98.421875 223.015625 100.027344 221.894531 101.644531 C 223.929688 102.324219 225.96875 103.019531 228.054688 103.5 C 228.90625 101.601562 229.667969 99.695312 230.480469 97.789062 Z M 227.59375 122.210938 C 228.285156 120.523438 229.007812 118.867188 229.710938 117.183594 C 229.558594 117.132812 229.429688 117.074219 229.269531 116.984375 C 228.59375 116.589844 227.722656 116.410156 226.910156 116.128906 C 225.855469 117.855469 224.78125 119.519531 223.71875 121.117188 C 225.035156 121.40625 226.296875 121.820312 227.59375 122.210938 Z M 232.359375 110.070312 C 232.449219 109.808594 232.558594 109.570312 232.660156 109.296875 C 232.597656 109.296875 232.558594 109.277344 232.488281 109.257812 C 232.117188 109.167969 231.746094 109.105469 231.375 108.996094 C 231.195312 108.957031 231.042969 108.867188 230.894531 108.796875 C 230.410156 109.808594 229.929688 110.8125 229.429688 111.777344 C 230.121094 112.015625 230.851562 112.167969 231.523438 112.5 C 231.816406 111.707031 232.117188 110.902344 232.359375 110.070312 Z M 235.75 87.335938 C 234.984375 87.097656 234.222656 86.785156 233.472656 86.484375 C 232.488281 87.859375 231.566406 89.121094 230.742188 90.136719 C 230.152344 90.839844 229.558594 91.5625 228.964844 92.304688 C 230.171875 92.503906 231.355469 92.804688 232.488281 93.246094 C 233.449219 91.210938 234.503906 89.214844 235.75 87.335938 Z M 235.546875 132.734375 C 236.058594 131.398438 236.5625 130.09375 237.082031 128.75 C 234.304688 128.671875 230.824219 128.539062 230.824219 128.539062 C 230.691406 128.539062 230.601562 128.511719 230.5 128.488281 C 229.800781 130.324219 229.1875 132.171875 228.6875 134.046875 C 231.003906 133.617188 233.300781 133.195312 235.546875 132.734375 Z M 238.246094 98.421875 C 237.957031 98.34375 237.65625 98.273438 237.375 98.191406 C 236.863281 98.050781 236.359375 97.75 235.878906 97.550781 C 234.855469 99.738281 233.914062 101.972656 232.949219 104.203125 C 233.230469 104.273438 233.542969 104.332031 233.824219 104.421875 C 234.101562 104.492188 234.394531 104.574219 234.65625 104.664062 C 235.75 102.546875 236.992188 100.480469 238.246094 98.421875 Z M 238.988281 123.816406 C 239.378906 122.78125 239.75 121.726562 240.152344 120.703125 C 238.117188 120.375 236.101562 119.984375 234.0625 119.851562 C 233.542969 121.074219 233.007812 122.320312 232.488281 123.542969 C 234.453125 123.59375 236.800781 123.722656 238.898438 123.785156 C 238.917969 123.785156 238.9375 123.816406 238.988281 123.816406 Z M 258.8125 239.707031 C 248.972656 250.324219 230.78125 253.625 216.605469 253.804688 C 207.507812 253.933594 193.691406 252.097656 186.390625 246.230469 C 183.167969 243.671875 178.625 240.960938 174.511719 237.742188 C 177.960938 243.953125 182.777344 249.359375 188.484375 253.5625 C 190.433594 254.507812 192.1875 255.640625 193.714844 256.972656 C 200.414062 260.714844 207.957031 262.902344 215.773438 262.992188 C 232.097656 263.195312 251.628906 254.636719 258.8125 239.707031 Z M 240.765625 94.027344 C 241.566406 92.542969 242.289062 90.988281 242.902344 89.375 C 242.308594 89.042969 241.699219 88.710938 241.066406 88.519531 C 239.992188 89.976562 239.007812 91.539062 238.136719 93.15625 C 238.308594 93.226562 238.507812 93.285156 238.707031 93.328125 C 239.398438 93.527344 240.101562 93.746094 240.765625 94.027344 Z M 241.808594 115.929688 C 242.269531 114.535156 242.710938 113.128906 243.140625 111.707031 C 242.308594 111.464844 241.476562 111.222656 240.632812 111.035156 C 239.621094 110.8125 238.636719 110.480469 237.65625 110.199219 C 237.496094 110.59375 237.34375 111.011719 237.214844 111.425781 C 236.863281 112.628906 236.449219 113.8125 236.007812 115.015625 C 237.855469 115.257812 239.640625 115.648438 241.507812 115.847656 C 241.609375 115.871094 241.699219 115.910156 241.808594 115.929688 Z M 245.488281 101.824219 C 245.488281 101.773438 245.511719 101.714844 245.511719 101.664062 C 245.140625 101.472656 244.699219 101.210938 244.496094 101.183594 C 244.046875 101.160156 243.582031 101.03125 243.121094 100.882812 C 241.957031 102.4375 240.84375 104.011719 239.863281 105.644531 C 240.5625 105.847656 241.265625 106.046875 241.957031 106.179688 C 242.769531 106.347656 243.605469 106.699219 244.417969 106.921875 C 244.808594 105.253906 245.179688 103.550781 245.488281 101.824219 Z M 248.160156 90.898438 C 248.089844 90.878906 248.007812 90.839844 247.9375 90.808594 C 247.4375 92.714844 246.863281 94.769531 246.050781 96.507812 C 246.273438 96.585938 246.492188 96.675781 246.695312 96.769531 C 247.234375 94.839844 247.789062 92.863281 248.160156 90.898438 Z M 248.289062 125.691406 C 248.21875 125.652344 248.136719 125.601562 248.027344 125.539062 C 247.496094 125.28125 246.976562 125.058594 246.492188 124.746094 C 245.941406 124.425781 245.160156 123.675781 244.496094 123.613281 C 243.273438 126.414062 242.210938 129.210938 241.136719 132.101562 C 242.25 132.101562 243.402344 132.140625 244.546875 132.253906 C 245.550781 129.984375 246.863281 127.816406 248.289062 125.691406 Z M 248.460938 85.582031 C 248.488281 85.582031 248.507812 85.613281 248.53125 85.613281 C 248.398438 83.746094 247.886719 81.910156 246.824219 80.203125 C 245.75 78.449219 245.308594 76.132812 244.699219 74.035156 C 241.808594 75.539062 239.007812 78.839844 236.492188 82.261719 C 238.898438 83.074219 241.398438 83.335938 243.804688 84.226562 C 245.398438 84.800781 246.824219 85.191406 248.460938 85.582031 Z M 251.046875 121.558594 C 251.679688 120.574219 252.3125 119.542969 252.882812 118.539062 C 251.960938 118.054688 250.976562 117.402344 249.996094 117.132812 C 249.292969 116.960938 248.640625 116.722656 247.976562 116.460938 C 247.695312 117.152344 247.386719 117.835938 247.046875 118.46875 C 246.90625 118.707031 246.792969 118.929688 246.695312 119.167969 C 247.457031 119.519531 248.199219 119.960938 249.03125 120.414062 C 249.753906 120.816406 250.4375 121.167969 251.046875 121.558594 Z M 255.132812 114.054688 C 255.59375 113 256.035156 111.945312 256.476562 110.902344 C 256.445312 110.882812 256.425781 110.882812 256.40625 110.851562 C 255.882812 110.402344 254.921875 110.292969 254.257812 110.089844 C 253.535156 109.890625 252.84375 109.628906 252.179688 109.277344 C 251.609375 110.222656 251.027344 111.113281 250.414062 111.996094 C 251.046875 112.1875 251.71875 112.347656 252.332031 112.648438 C 253.273438 113.109375 254.199219 113.570312 255.132812 114.054688 Z M 258.460938 134.601562 C 258.722656 134.226562 258.945312 133.808594 259.203125 133.4375 C 257.871094 133.023438 256.425781 132.84375 255.132812 132.414062 C 253.644531 131.910156 252.160156 131.449219 250.648438 131.027344 C 250.296875 131.660156 249.972656 132.324219 249.664062 133.003906 C 252.574219 133.546875 255.460938 134.269531 258.261719 134.992188 C 258.332031 134.859375 258.371094 134.730469 258.460938 134.601562 Z M 258.984375 216.253906 C 259.515625 216.625 259.90625 216.976562 260.238281 217.417969 C 255.53125 200.875 229.449219 199.296875 216.074219 198.164062 C 206.914062 197.132812 196.933594 196.589844 188.15625 200.019531 C 179.316406 203.5 169.324219 211.007812 169.976562 220.546875 C 170.40625 218.230469 171.402344 216.492188 173.347656 215.339844 C 174.238281 212.03125 176.910156 208.289062 180.5 208.289062 C 180.890625 208.359375 181.28125 208.429688 181.683594 208.488281 C 181.765625 208.398438 181.886719 208.289062 182.035156 208.15625 C 182.496094 207.523438 183.128906 206.761719 183.851562 206.429688 C 185.597656 205.667969 186.980469 204.964844 188.835938 204.785156 C 191.023438 202.117188 195.539062 200.742188 198.617188 201.925781 C 199.101562 201.667969 199.863281 201.335938 200.0625 201.285156 C 201.066406 200.964844 202.140625 200.632812 203.214844 200.632812 C 204.699219 200.671875 205.902344 200.851562 207.066406 201.554688 C 207.609375 201.316406 208.179688 201.132812 208.839844 201.054688 C 210.847656 200.78125 213.957031 200.390625 215.792969 201.464844 C 216.558594 201.925781 216.296875 202.246094 216.949219 202.078125 C 217.699219 201.875 218.460938 201.707031 219.207031 201.554688 C 220.390625 201.316406 221.632812 201.203125 222.816406 201.375 C 224.652344 201.6875 226.449219 202.6875 227.691406 204.113281 C 229.007812 203.632812 230.5 203.523438 231.925781 203.652344 C 233.449219 203.761719 234.804688 204.09375 235.75 205.378906 C 236.101562 205.859375 236.300781 206.339844 236.449219 206.914062 C 238.546875 206.871094 240.234375 206.953125 241.789062 208.597656 C 243.140625 208.175781 244.617188 208.15625 246.101562 208.636719 C 247.304688 209.007812 248.441406 210.042969 248.832031 211.246094 C 248.851562 211.265625 248.851562 211.335938 248.851562 211.378906 C 250.015625 211.265625 251.328125 211.335938 252.332031 211.917969 C 253.9375 212.863281 255.050781 214.046875 255.773438 215.511719 C 256.90625 215.421875 258.039062 215.621094 258.984375 216.253906 Z M 261.152344 98.695312 C 260.648438 98.273438 260.015625 97.710938 259.59375 97.660156 C 258.683594 98.644531 257.808594 99.765625 256.976562 101.070312 C 256.164062 102.304688 255.441406 103.589844 254.699219 104.902344 C 255.3125 105.144531 255.964844 105.316406 256.667969 105.566406 C 257.238281 105.738281 257.757812 105.957031 258.292969 106.199219 C 259.222656 103.699219 260.148438 101.183594 261.152344 98.695312 Z M 260.910156 224.417969 C 260.476562 224.308594 260.058594 224.109375 259.6875 223.808594 C 259.59375 223.757812 259.535156 223.695312 259.445312 223.65625 C 258.683594 223.515625 257.960938 223.234375 257.386719 222.664062 C 256.796875 222.082031 256.574219 221.328125 256.292969 220.605469 C 255.8125 220.476562 255.402344 220.65625 254.738281 220.898438 C 253.457031 221.378906 251.992188 220.367188 251.660156 219.140625 C 251.570312 218.882812 251.589844 218.621094 251.589844 218.378906 C 251.589844 218.308594 251.570312 218.269531 251.550781 218.199219 C 251.507812 217.675781 250.164062 215.839844 249.472656 216.28125 C 248.832031 216.695312 248.328125 217.046875 247.636719 217.347656 C 246.605469 217.769531 245.308594 217.066406 244.789062 216.191406 C 243.90625 214.679688 244.746094 211.839844 242.441406 213.695312 C 240.605469 215.191406 238.175781 213.65625 238.046875 211.917969 C 237.34375 211.378906 235.898438 211.96875 235.097656 211.96875 C 233.933594 211.96875 233.191406 211.660156 232.488281 210.726562 C 232.027344 210.132812 231.414062 208.6875 231.925781 208.6875 C 231.003906 208.6875 229.40625 208.359375 228.90625 209.359375 C 227.652344 211.859375 224.261719 210.304688 224.261719 207.988281 C 222.707031 205.359375 220.109375 207.003906 217.832031 206.953125 C 215.511719 206.933594 215 205.539062 212.863281 204.785156 C 213.015625 204.855469 208.972656 206.652344 209.183594 206.019531 C 208.289062 208.75 204.367188 208.007812 204.195312 205.640625 C 202.914062 204.925781 200.734375 206.894531 199.621094 207.195312 C 198.46875 207.503906 197.636719 207.171875 196.863281 206.5625 C 195.359375 206.742188 192.621094 207.195312 192.597656 207.816406 C 192.429688 210.023438 190.0625 210.675781 188.617188 209.871094 C 187.632812 210.042969 186.519531 210.503906 185.949219 211.265625 C 185.355469 212.078125 184.503906 213.101562 183.480469 213.34375 C 182.535156 213.585938 181.050781 213.171875 180.320312 213.605469 C 179.1875 214.328125 178.222656 215.449219 178.09375 216.84375 C 178.011719 217.636719 177.632812 218.25 177.128906 218.640625 C 176.847656 219.011719 176.476562 219.34375 175.964844 219.542969 C 174.238281 220.234375 174.921875 223.085938 174.8125 224.480469 C 174.742188 225.554688 174.289062 226.605469 173.519531 227.367188 C 173.347656 227.550781 173.125 227.660156 172.90625 227.789062 C 172.90625 227.832031 172.90625 227.921875 172.90625 228.050781 C 172.886719 228.140625 172.84375 228.203125 172.84375 228.292969 C 172.976562 228.511719 173.085938 228.703125 173.238281 228.902344 C 182.445312 241.816406 201.136719 248.769531 216.605469 248.769531 C 231.675781 248.769531 259.574219 243.390625 260.910156 224.417969 Z M 261.851562 129.023438 C 262.625 127.65625 263.335938 126.261719 264.019531 124.839844 C 261.570312 123.675781 258.722656 122.78125 256.035156 122.582031 C 255.132812 123.914062 254.238281 125.257812 253.367188 126.613281 C 254.648438 127.023438 255.921875 127.464844 257.238281 127.789062 C 258.773438 128.167969 260.386719 128.449219 261.851562 129.023438 Z M 267.820312 115.347656 C 267.519531 115.40625 267.171875 115.40625 266.796875 115.316406 C 264.851562 114.925781 262.796875 114.183594 260.78125 113.902344 C 260.328125 114.996094 259.847656 116.089844 259.292969 117.152344 C 259.164062 117.402344 259.003906 117.664062 258.882812 117.90625 C 261.351562 118.367188 263.777344 119.21875 266.054688 120.242188 C 266.6875 118.648438 267.28125 117.003906 267.820312 115.347656 Z M 269.136719 110.902344 C 269.335938 110.222656 269.515625 109.546875 269.6875 108.847656 C 268.726562 108.535156 267.671875 108.292969 266.738281 108.035156 C 265.613281 107.703125 264.480469 107.421875 263.367188 107.109375 C 263.117188 107.792969 262.886719 108.476562 262.636719 109.148438 C 264.480469 109.546875 266.316406 110.089844 268.152344 110.480469 C 268.554688 110.550781 268.875 110.703125 269.136719 110.902344 Z M 267.890625 158.164062 C 269.1875 157 270.5625 155.839844 271.964844 154.703125 C 269.1875 152.457031 265.222656 151.332031 262.183594 153.632812 C 260.960938 154.574219 259.777344 154.074219 259.09375 153.109375 C 258.722656 152.820312 258.402344 152.40625 258.222656 151.867188 C 257.609375 150.128906 256.292969 150.332031 254.851562 150.589844 C 254.550781 150.832031 254.21875 151.074219 253.9375 151.332031 C 253.164062 152.054688 251.832031 152.386719 250.886719 151.726562 C 249.996094 151.074219 248.289062 149.519531 248.109375 151.726562 C 247.847656 154.945312 242.820312 154.964844 243.082031 151.726562 C 243.140625 150.871094 243.34375 150.109375 243.605469 149.425781 C 243.304688 146.277344 239.53125 148.664062 237.65625 148.773438 C 236.890625 148.84375 236.230469 148.664062 235.546875 148.382812 C 235.46875 148.464844 235.398438 148.535156 235.265625 148.625 C 234.835938 149.238281 234.542969 149.910156 234.433594 150.640625 C 234.0625 153.832031 229.035156 153.871094 229.40625 150.640625 C 229.449219 150.199219 229.558594 149.777344 229.640625 149.367188 C 227.671875 149.015625 225.355469 149.328125 224.132812 150.792969 C 223.410156 151.644531 222.757812 152.558594 221.761719 153.128906 C 219.835938 154.261719 217.609375 153.832031 215.464844 154.132812 C 221.742188 158.648438 227.652344 163.671875 235.636719 165.277344 C 242.269531 166.613281 247.234375 172.382812 254.238281 168.320312 C 254.5 167.988281 254.769531 167.707031 255.050781 167.414062 C 255.863281 166.613281 256.886719 166.300781 257.890625 165.910156 C 261.371094 163.523438 264.871094 160.855469 267.890625 158.164062 Z M 270.730469 103.921875 C 270.800781 103.53125 270.839844 103.136719 270.910156 102.738281 C 269.707031 102.386719 268.632812 102.515625 267.449219 101.972656 C 266.820312 101.664062 266.207031 101.363281 265.574219 101.050781 C 265.394531 101.492188 265.242188 101.925781 265.074219 102.367188 C 266.949219 102.886719 268.875 103.328125 270.730469 103.921875 Z M 271.785156 93.746094 C 271.914062 88.652344 271.746094 89.746094 268.042969 91.691406 C 266.378906 92.5625 264.914062 93.398438 263.578125 94.289062 C 264.199219 94.730469 264.832031 95.191406 265.523438 95.511719 C 266.796875 96.105469 268.042969 96.699219 269.285156 97.289062 C 269.96875 97.621094 270.78125 97.621094 271.523438 97.75 C 271.65625 96.394531 271.765625 95.0625 271.785156 93.746094 Z M 275.988281 151.515625 C 277.914062 150.050781 279.839844 148.625 281.726562 147.289062 C 279.160156 145.515625 276.007812 144.25 272.65625 143.308594 C 271.945312 143.5 271.152344 143.269531 270.519531 142.757812 C 266.597656 141.824219 262.636719 141.199219 259.316406 140.640625 C 250.976562 139.195312 243.382812 136.304688 234.785156 138.03125 C 227.632812 139.457031 220.519531 140.992188 213.40625 142.535156 C 209.144531 143.476562 207.214844 145.34375 205.621094 148.363281 C 207.257812 149.035156 208.8125 149.847656 210.328125 150.742188 C 210.347656 150.722656 210.367188 150.679688 210.417969 150.660156 C 212.113281 149.589844 214.257812 148.664062 216.347656 148.664062 C 216.738281 148.664062 219.144531 148.945312 219.40625 148.625 C 220.058594 147.832031 220.648438 147.160156 221.414062 146.476562 C 224.132812 144.089844 228.6875 143.628906 232.078125 144.773438 C 232.265625 144.570312 232.429688 144.359375 232.636719 144.160156 C 234.746094 142.453125 236.710938 144.03125 238.898438 143.308594 C 242.570312 142.082031 245.921875 143.128906 247.566406 145.90625 C 248.941406 145.625 250.476562 145.824219 252.011719 146.566406 C 253.585938 145.625 255.261719 145.324219 257.347656 145.445312 C 259.59375 145.585938 260.960938 146.546875 261.894531 148.03125 C 266.628906 146.125 272.265625 148.164062 275.988281 151.515625 Z M 282.691406 114.535156 C 282.859375 114.242188 283.011719 113.921875 283.160156 113.632812 C 279.910156 115.40625 276.320312 116.632812 272.789062 117.796875 C 272.558594 117.886719 272.304688 117.90625 272.074219 117.925781 C 270 124.316406 267.039062 130.726562 263.40625 136.214844 C 263.539062 136.253906 263.6875 136.285156 263.820312 136.304688 C 266.054688 136.785156 268.304688 137.21875 270.519531 137.730469 C 274.191406 129.671875 278.214844 122.238281 282.691406 114.535156 Z M 286.621094 163.832031 C 289.121094 161.988281 287.917969 154.222656 287.644531 151.726562 C 287.457031 149.519531 276.710938 157.703125 276.140625 158.296875 C 272.207031 160.652344 269.226562 164.207031 265.335938 166.582031 C 264.914062 166.855469 264.5 167.113281 264.109375 167.394531 C 264 167.707031 263.800781 168.007812 263.519531 168.296875 C 261.832031 169.953125 261.832031 169.84375 259.90625 170.433594 C 259.09375 171.046875 258.292969 171.617188 257.457031 172.171875 C 256.597656 173.265625 256.015625 174.597656 254.871094 175.511719 C 252.292969 177.617188 249.773438 178.601562 246.472656 179.214844 C 241.195312 180.175781 233.261719 180.21875 228.175781 177.988281 C 226.46875 177.21875 226.609375 174.417969 228.175781 173.636719 C 228.375 173.546875 228.554688 173.453125 228.726562 173.363281 C 229.96875 172.753906 231.132812 173.195312 231.855469 174.007812 C 234.875 174.988281 239.300781 175.011719 243.234375 174.507812 C 241.859375 174.199219 240.515625 173.714844 239.160156 172.84375 C 235.316406 170.394531 232.046875 170.414062 228.175781 168.449219 C 220.429688 164.484375 213.648438 157.703125 205.84375 153.921875 C 208.332031 159.800781 211.109375 165.820312 214.609375 171.226562 C 223.839844 185.515625 238.085938 189.535156 254.367188 186.167969 C 260.257812 184.972656 265.375 182.84375 270.839844 180.476562 C 274.746094 178.792969 275.023438 175.582031 277.300781 172.691406 C 279.859375 169.433594 283.273438 166.28125 286.621094 163.832031 Z M 258.632812 205.6875 C 266.257812 196.738281 278.105469 193.410156 289.734375 193.742188 C 289.421875 191.753906 288.347656 190.070312 287.433594 188.3125 C 287.324219 188.492188 287.253906 188.664062 287.144531 188.84375 C 285.621094 191.683594 281.253906 189.144531 282.820312 186.304688 C 285.109375 182.054688 287.035156 176.476562 285.660156 171.527344 C 284.324219 172.453125 283.140625 173.34375 282.378906 174.308594 C 279.730469 177.679688 279.710938 182.101562 275.417969 183.9375 C 264.148438 188.816406 253.105469 193.019531 240.515625 192.207031 C 227.875 191.421875 219.867188 186.476562 212.09375 176.496094 C 209.03125 172.542969 206.753906 168.398438 204.769531 164.113281 C 204.828125 164.554688 204.898438 164.988281 204.9375 165.429688 C 205.140625 167.917969 205.332031 170.085938 206.542969 172.339844 C 206.9375 173.082031 206.753906 173.804688 206.753906 174.417969 C 206.753906 174.417969 206.753906 174.4375 206.753906 174.46875 C 206.753906 175.339844 208.179688 176.214844 208.722656 177.265625 C 209.363281 178.53125 210.367188 179.382812 211.109375 180.546875 C 212.886719 183.277344 208.53125 185.792969 206.773438 183.105469 C 206.101562 182.054688 205.140625 181.269531 204.527344 180.175781 C 204.285156 181.773438 204.175781 183.417969 204.007812 184.199219 C 203.433594 186.828125 203.65625 189.515625 203.734375 192.6875 C 208.027344 192.515625 212.203125 192.6875 216.074219 193.128906 C 227.851562 194.132812 247.917969 196.347656 258.632812 205.6875 Z M 304.1875 248.558594 C 310.539062 244.542969 315.265625 239.207031 317.953125 232.976562 C 304.851562 241.3125 280.152344 235.726562 266.988281 229.074219 C 267.109375 237.523438 268.746094 246.359375 279.097656 248.617188 C 284.976562 249.910156 298.660156 252.027344 304.1875 248.558594 Z M 319.175781 211.355469 C 319.226562 211.226562 319.246094 211.097656 319.316406 211.007812 C 314.082031 202.78125 300.316406 199.609375 291.546875 198.835938 C 280.972656 197.925781 269.007812 201.183594 262.144531 209.320312 C 262.113281 209.339844 262.09375 209.359375 262.074219 209.390625 C 262.375 209.824219 262.664062 210.242188 262.945312 210.695312 C 264.21875 209.691406 265.726562 208.929688 267.019531 208.378906 C 268.261719 207.835938 269.667969 207.59375 271.023438 207.675781 C 271.523438 206.410156 272.398438 205.359375 273.882812 204.765625 C 276.140625 203.851562 277.503906 203.914062 279.117188 205.058594 C 279.359375 204.707031 279.601562 204.375 279.882812 204.203125 C 280.625 203.804688 281.34375 203.390625 282.117188 203.039062 C 283.582031 202.359375 285.085938 202.015625 286.734375 202.015625 C 288.109375 202.039062 289.421875 202.710938 290.496094 203.671875 C 291.238281 203.171875 292.121094 202.820312 293.183594 202.820312 C 294.917969 202.820312 296.425781 203.78125 297.519531 205.078125 C 299.3125 204.042969 301.441406 203.523438 303.207031 204.554688 C 304.410156 205.226562 305.113281 206.152344 305.523438 207.195312 C 306.164062 207.113281 306.816406 207.113281 307.539062 207.304688 C 309.074219 207.726562 310.277344 208.507812 311.171875 209.542969 C 312.796875 208.800781 314.894531 208.929688 317.011719 209.78125 C 317.914062 210.132812 318.546875 210.746094 319.175781 211.355469 Z M 320.292969 223.625 C 320.402344 222.292969 320.453125 220.9375 320.382812 219.542969 C 319.949219 219.253906 319.597656 218.769531 319.488281 218.050781 C 319.316406 217.046875 317.101562 216.625 316.378906 215.800781 C 315.835938 215.160156 313.539062 212.429688 313.117188 215.320312 C 312.6875 218.308594 308.414062 217.265625 308.171875 214.65625 C 307.910156 211.726562 306.597656 211.96875 305.503906 212.914062 C 305.375 213.0625 305.242188 213.191406 305.070312 213.304688 C 304.671875 213.714844 304.339844 214.175781 304.109375 214.546875 C 302.445312 217.328125 298.089844 214.789062 299.773438 212.007812 C 300.144531 211.378906 300.609375 210.726562 301.109375 210.082031 C 301.109375 209.761719 301.089844 209.410156 300.980469 209.121094 C 300.796875 208.597656 298.679688 210.503906 298.53125 210.675781 C 297.257812 212.078125 294.757812 211.355469 294.328125 209.582031 C 293.9375 208.007812 292.992188 207.355469 292.972656 209.449219 C 292.921875 212.691406 287.886719 212.691406 287.9375 209.449219 C 287.9375 209.121094 287.976562 208.769531 287.996094 208.449219 C 287.253906 206.472656 285.179688 207.152344 283.792969 207.785156 C 282.660156 208.316406 282.117188 209.5625 281.042969 210.023438 C 279.972656 210.472656 279.097656 210.855469 277.953125 210.265625 C 277.28125 209.890625 275.988281 208.488281 275.578125 209.78125 C 276.730469 211.820312 274.542969 214.839844 272.226562 213.261719 C 270.953125 212.402344 269.515625 212.621094 268.222656 213.34375 C 267.429688 213.785156 265.484375 214.585938 265.242188 215.601562 C 265.242188 215.660156 265.203125 215.710938 265.183594 215.773438 C 265.574219 217.175781 265.816406 218.640625 265.875 220.195312 C 265.964844 220.386719 266.035156 220.585938 266.078125 220.808594 C 266.207031 221.570312 266.296875 222.363281 266.355469 223.125 C 266.597656 223.195312 266.859375 223.277344 267.109375 223.40625 C 274.023438 227.460938 281.195312 229.476562 288.941406 231.351562 C 296.964844 233.296875 315.65625 233.367188 320.292969 223.625 Z M 328.738281 165.621094 C 329.359375 165.648438 329.992188 165.667969 330.605469 165.710938 C 330.515625 165.488281 330.472656 165.320312 330.382812 165.097656 C 328.566406 164.855469 326.730469 164.617188 324.917969 164.375 C 321.585938 164.375 318.113281 164.136719 314.804688 164.375 C 310.800781 164.65625 304.609375 165.1875 300.847656 166.722656 C 293.382812 169.742188 294.566406 172.542969 298.351562 174.417969 C 298.773438 171.007812 302.164062 168.226562 305.765625 168.136719 C 307.410156 168.097656 307.820312 168.207031 309.445312 168.730469 C 309.90625 168.878906 310.117188 168.96875 310.230469 169.011719 C 312.484375 167.394531 314.785156 167.546875 317.511719 167.546875 C 318.476562 167.546875 319.75 167.394531 320.734375 167.617188 C 320.824219 167.4375 320.953125 167.226562 321.214844 166.914062 C 322.878906 165.058594 326.640625 165.621094 328.738281 165.621094 Z M 326.710938 176.9375 C 330.925781 176.9375 332.703125 174.808594 332.070312 170.636719 C 329.269531 169.691406 323.863281 171.789062 322.640625 172.523438 C 321.363281 173.234375 320.402344 172.582031 319.175781 172.582031 C 315.9375 172.582031 313.027344 174.488281 310.136719 174.488281 C 308.984375 174.488281 302.402344 171.527344 303.277344 175.140625 C 303.367188 175.492188 303.367188 175.824219 303.316406 176.105469 C 305.484375 176.605469 307.742188 176.867188 309.507812 176.847656 C 315.246094 176.734375 321.023438 177.808594 326.710938 176.9375 Z M 333.574219 187.570312 C 334.886719 184.589844 335.550781 181.640625 335.769531 178.601562 C 333.492188 180.15625 330.753906 181.269531 328.046875 181.792969 C 320.101562 182.996094 311.300781 182.214844 303.277344 181.660156 C 299.273438 181.402344 295.03125 179.914062 292.011719 177.195312 C 290.164062 191.421875 308.683594 201.265625 320.953125 196.367188 C 325.789062 194.421875 331.308594 192.816406 333.574219 187.570312 Z M 337.9375 163.0625 C 341.238281 166.472656 341.78125 169.824219 340.71875 172.734375 C 342 188.683594 333.515625 199.628906 318.304688 202.359375 C 323.160156 205.730469 326.730469 210.214844 326.621094 216.011719 C 326.550781 219.191406 326.011719 221.921875 325.085938 224.289062 C 323.734375 238.394531 315.246094 252.582031 300.558594 255.027344 C 293.214844 256.253906 277.28125 255.839844 270.839844 251.285156 C 267.519531 248.929688 265.414062 244.324219 264.109375 239.839844 C 262.375 244.59375 259.847656 249.039062 256.667969 252.800781 C 250.414062 260.285156 232.488281 267.757812 222.6875 268 C 214.238281 268.199219 205.972656 266.867188 198.378906 264.085938 C 198.527344 264.527344 198.6875 264.941406 198.789062 265.402344 C 198.898438 265.8125 198.917969 266.214844 199.011719 266.625 C 199.011719 266.664062 199.058594 266.714844 199.058594 266.757812 C 201.949219 276.296875 199.953125 287.695312 194.324219 295.859375 C 189.1875 303.324219 175.773438 306.054688 167.476562 306.3125 C 157.65625 306.664062 150.59375 305.351562 144.152344 298.066406 C 138.035156 291.132812 133.238281 281.816406 132.867188 272.445312 C 132.476562 271.3125 132.273438 270.238281 132.234375 269.203125 C 128.644531 271.109375 124.507812 272.242188 119.253906 272.59375 C 113.234375 272.625 105.757812 272.726562 100 270.519531 C 93.589844 268.089844 88.644531 263.757812 82.957031 260.035156 C 72.492188 253.191406 65.960938 246.46875 63.242188 233.910156 C 61.90625 227.832031 62.671875 222.535156 64.855469 218.007812 C 61.816406 216.28125 57.945312 214.878906 55.1875 213.5625 C 51.292969 211.726562 48.054688 209.339844 45.253906 206.039062 C 39.414062 199.1875 33.785156 191.3125 33.023438 182.101562 C 32.984375 181.601562 33.09375 181.179688 33.265625 180.828125 C 33.226562 178.753906 33.746094 176.496094 35.039062 174.046875 C 40.820312 163.171875 55.757812 160.503906 66.984375 159.097656 C 77.839844 157.746094 94.070312 157.183594 104.59375 162.730469 C 104.644531 160.222656 104.6875 157.703125 104.6875 155.296875 C 104.6875 145.796875 105.296875 136.527344 107.574219 127.304688 C 107.554688 127.265625 107.554688 127.226562 107.523438 127.175781 C 107.203125 126.542969 107.09375 125.800781 107.285156 125.167969 C 107.285156 125.007812 107.265625 124.878906 107.285156 124.746094 C 107.554688 122.148438 109.128906 120.484375 111.097656 118.867188 C 113.414062 116.984375 115.5625 115.429688 118.550781 114.867188 C 120.285156 114.515625 122.695312 114.445312 124.53125 115.054688 C 136.367188 113.351562 147.59375 110.664062 159.714844 110.664062 C 169.105469 110.664062 176.015625 113.289062 184.242188 117.835938 C 184.351562 117.90625 184.441406 117.964844 184.523438 118.054688 C 188.042969 118.054688 191.726562 118.1875 194.875 119.5 C 195.136719 119.542969 195.417969 119.609375 195.730469 119.761719 C 195.878906 119.832031 196.058594 119.933594 196.210938 120.023438 C 197.59375 115.148438 197.894531 109.5 198.730469 104.574219 C 199.582031 99.367188 200.234375 94.140625 201.15625 88.953125 C 201.328125 87.898438 202.53125 87.046875 203.585938 87.097656 C 207.144531 87.265625 209.421875 91.691406 211.550781 94.160156 C 213.476562 96.4375 215 98.472656 216.667969 100.75 C 216.847656 100.507812 217 100.21875 217.199219 99.976562 C 222.644531 92.472656 228.875 85.582031 234.195312 78.039062 C 236.972656 74.074219 240.28125 69.628906 245.140625 68.445312 C 246.492188 68.125 247.496094 68.847656 247.976562 69.8125 C 248.417969 70.070312 248.769531 70.484375 248.992188 71.054688 C 250.777344 75.457031 253.714844 80.113281 253.714844 84.988281 C 253.714844 90.285156 251.921875 93.9375 251.046875 99.085938 C 250.828125 100.347656 250.648438 101.695312 250.496094 103.046875 C 253.816406 97.53125 256.757812 91.902344 263.277344 88.5 C 267.742188 86.171875 272.539062 81.246094 276.210938 86.746094 C 279.953125 92.304688 275.617188 105.625 273.800781 112.078125 C 276.910156 110.882812 279.882812 109.386719 282.972656 108.074219 C 285.269531 107.089844 286.511719 106.21875 288.941406 106.660156 C 289.703125 106.789062 290.554688 107.621094 290.695312 108.40625 C 291.367188 112.628906 286.53125 117.636719 284.414062 121.003906 C 280.804688 126.785156 278.105469 132.804688 275.394531 138.953125 C 279.621094 140.199219 283.582031 141.953125 286.902344 144.992188 C 287.585938 144.992188 288.269531 145.125 288.980469 145.476562 C 291.960938 146.917969 292.703125 148.332031 292.703125 151.726562 C 292.703125 155.886719 294.085938 159.78125 293.445312 163.832031 C 293.382812 164.265625 293.234375 164.707031 293.035156 165.117188 C 296.074219 163.082031 300.015625 161.707031 302.351562 161.074219 C 308.484375 159.410156 315.265625 159.347656 321.566406 159.347656 C 326.359375 159.347656 334.257812 159.210938 337.9375 163.0625 Z M 135.40625 215.140625 C 135.40625 215.492188 133.128906 215.902344 133.105469 215.902344 C 131.203125 216.363281 128.644531 217.066406 127.699219 218.921875 C 126.234375 221.832031 121.902344 219.273438 123.347656 216.382812 C 123.367188 216.363281 123.394531 216.324219 123.417969 216.304688 C 123.367188 216.121094 123.285156 215.953125 123.285156 215.75 C 123.195312 211.578125 118.839844 215.070312 116.433594 213.675781 C 115.910156 213.363281 115.601562 212.882812 115.28125 212.402344 C 115.121094 212.121094 115.058594 211.839844 114.988281 211.546875 C 114.417969 211.636719 113.746094 211.769531 113.191406 212.03125 C 113.101562 212.84375 112.652344 213.496094 112.039062 213.914062 C 111.285156 216.453125 107.042969 216.28125 107.132812 213.285156 C 107.183594 212.621094 107.335938 211.988281 107.523438 211.398438 C 106.703125 210.726562 105.378906 210.414062 104.644531 210.804688 C 103.941406 211.175781 103.652344 211.726562 102.949219 212.140625 C 101.6875 212.914062 99.871094 212.101562 98.816406 212.78125 C 97.964844 213.324219 97.3125 213.914062 96.890625 214.726562 C 96.890625 215.25 96.71875 215.710938 96.4375 216.0625 C 95.777344 218.902344 91.402344 217.675781 91.644531 214.75 C 90.8125 213.695312 89.015625 214.398438 88.863281 215.773438 C 88.773438 216.765625 88.3125 217.636719 87.441406 218.160156 C 86.675781 218.601562 80.308594 218.199219 81.75 220.476562 C 83.398438 223.125 79.523438 225.53125 77.660156 223.367188 C 77.289062 223.457031 76.894531 223.476562 76.433594 223.367188 C 74.75 222.976562 74.988281 226.535156 74.988281 227.21875 C 74.988281 228.242188 74.226562 229.496094 73.132812 229.644531 C 72.339844 229.777344 71.339844 229.738281 70.597656 230.039062 C 69.632812 230.457031 69.300781 232.074219 69.230469 232.976562 C 69.230469 232.996094 69.210938 233.015625 69.210938 233.039062 C 76.855469 249.429688 108.035156 249.449219 122.785156 247.675781 C 129.367188 246.910156 134.941406 242.949219 140.984375 240.933594 C 147.3125 238.835938 150.894531 233.367188 152.910156 227.328125 C 152.800781 227.179688 152.710938 227.019531 152.652344 226.828125 C 152.652344 226.996094 151.507812 225.753906 151.265625 225.644531 C 151.207031 225.625 151.15625 225.625 151.09375 225.601562 C 150.914062 226.476562 150.433594 227.328125 149.492188 228.03125 C 148.597656 228.703125 147.171875 228.351562 146.449219 227.628906 C 145.578125 226.777344 145.296875 225.84375 145.425781 224.941406 C 144.855469 224.789062 144.261719 224.679688 143.671875 224.621094 C 143.429688 224.640625 143.28125 224.640625 143.128906 224.660156 C 143.039062 224.71875 143 224.8125 142.890625 224.902344 C 142.648438 225.121094 142.386719 225.273438 142.148438 225.382812 C 142.117188 225.402344 142.097656 225.421875 142.078125 225.441406 C 140.019531 227.960938 136.476562 224.398438 138.515625 221.902344 C 138.777344 221.601562 139.054688 221.328125 139.347656 221.089844 C 139.277344 220.738281 139.054688 220.195312 138.976562 219.976562 C 138.945312 219.953125 138.976562 219.953125 138.945312 219.953125 C 137.441406 220.328125 135.664062 219.5625 135.867188 217.65625 C 135.957031 216.84375 135.90625 215.839844 135.40625 215.140625 Z M 193.582031 266.535156 C 191.203125 255.882812 171.660156 253.652344 162.84375 254.636719 C 156.84375 255.289062 150.542969 255.949219 145.296875 259.273438 C 141.054688 261.992188 139.015625 264.898438 138.644531 267.789062 C 138.683594 267.757812 138.707031 267.738281 138.777344 267.71875 C 139.167969 267.546875 139.578125 267.40625 140 267.308594 C 140.019531 267.128906 140.039062 266.976562 140.058594 266.828125 C 140.242188 265.550781 140.613281 264.4375 141.3125 263.386719 C 142.496094 261.570312 145.777344 260.34375 148.296875 260.765625 C 148.617188 260.175781 149.039062 259.644531 149.628906 259.25 C 151.578125 257.878906 153.582031 258.398438 155.339844 259.53125 C 158.53125 257.4375 163.433594 256.625 166.234375 258.992188 C 166.566406 258.859375 166.894531 258.75 167.238281 258.640625 C 169.976562 257.785156 171.621094 257.847656 173.496094 259.050781 C 175.121094 258.601562 176.566406 257.976562 178.402344 258.789062 C 179.476562 259.273438 180.148438 259.933594 180.609375 260.738281 C 181.664062 260.367188 182.816406 260.285156 184.09375 260.605469 C 185.707031 261.046875 187.132812 262.492188 188.15625 263.734375 C 188.6875 264.367188 189.167969 265.011719 189.691406 265.664062 C 189.800781 265.773438 189.78125 265.921875 189.871094 266.054688 C 191.15625 265.703125 193.242188 265.902344 193.582031 266.535156 Z M 173.910156 149.777344 C 176.585938 149.777344 177.550781 154.003906 174.609375 154.703125 C 169.695312 155.910156 163.566406 154.445312 158.53125 153.960938 C 153.414062 153.480469 147.171875 153.480469 142.628906 150.589844 C 136.871094 146.960938 130.386719 144.070312 125.070312 139.957031 C 120.527344 136.457031 120.726562 128.210938 113.464844 128.097656 C 115.097656 133.023438 117.066406 139.175781 120.023438 143.4375 C 122.953125 147.660156 132.796875 150.019531 137.199219 152.609375 C 142.519531 155.738281 147.632812 159.167969 153.324219 161.597656 C 162.714844 165.601562 176.476562 159.960938 181.332031 151.835938 C 183.589844 148.101562 188.925781 145.035156 192.117188 142.035156 C 194.09375 140.175781 201.660156 125.628906 194.574219 128.449219 C 191.988281 129.503906 186.449219 138.070312 184.371094 140.328125 C 181.59375 143.289062 177.050781 146.457031 173.910156 149.777344 Z M 217.410156 109.699219 C 217.410156 109.589844 218.371094 109.980469 218.613281 110.089844 C 219.316406 110.371094 220.019531 110.664062 220.679688 111.011719 C 221.542969 111.464844 222.425781 111.847656 223.320312 112.167969 C 224.261719 110.832031 225.074219 109.457031 225.835938 108.035156 C 225.132812 107.945312 224.523438 107.992188 223.800781 107.703125 C 222.273438 107.070312 220.78125 106.550781 219.207031 106.015625 C 219.164062 106.015625 219.125 105.976562 219.074219 105.957031 C 218.664062 106.628906 218.242188 107.3125 217.871094 107.972656 C 217.628906 108.40625 217.371094 108.847656 217.109375 109.296875 C 217.21875 109.410156 217.308594 109.546875 217.410156 109.699219 " fill-opacity="1" fill-rule="nonzero"/></g><path fill="#ffffff" d="M 315.746094 221.347656 C 316.621094 222.230469 316.839844 224.066406 315.746094 224.902344 C 315.042969 225.441406 314.671875 226.457031 313.839844 227.089844 C 312.746094 227.941406 311.34375 228.160156 310.277344 227.089844 C 309.394531 226.214844 309.207031 224.371094 310.277344 223.546875 C 310.980469 222.996094 311.371094 221.992188 312.195312 221.347656 C 313.269531 220.496094 314.691406 220.285156 315.746094 221.347656 " fill-opacity="1" fill-rule="nonzero"/><path fill="#ffffff" d="M 301.128906 222.402344 C 302.683594 219.5625 307.039062 222.101562 305.484375 224.941406 C 305.09375 225.644531 304.5625 226.253906 304 226.828125 C 301.703125 229.125 298.128906 225.554688 300.425781 223.253906 C 300.847656 222.84375 300.980469 222.664062 301.128906 222.402344 " fill-opacity="1" fill-rule="nonzero"/><path fill="#ffffff" d="M 291.21875 221.75 C 291.308594 218.511719 296.335938 218.511719 296.242188 221.75 C 296.203125 223.585938 295.660156 225.292969 295.332031 227.089844 C 295.089844 228.421875 293.464844 229.164062 292.25 228.832031 C 290.847656 228.441406 290.234375 227.089844 290.496094 225.734375 C 290.734375 224.417969 291.175781 223.125 291.21875 221.75 " fill-opacity="1" fill-rule="nonzero"/><path fill="#ffffff" d="M 291.238281 218.359375 C 291.457031 219.714844 290.90625 221.046875 289.492188 221.441406 C 288.269531 221.789062 286.601562 221.046875 286.382812 219.695312 C 286.363281 219.542969 286.363281 219.511719 286.363281 219.511719 C 285.621094 218.492188 285.507812 217.136719 286.492188 216.144531 C 287.386719 215.25 289.160156 215.097656 290.035156 216.144531 C 290.585938 216.785156 291.105469 217.507812 291.238281 218.359375 " fill-opacity="1" fill-rule="nonzero"/><path fill="#ffffff" d="M 284.957031 221.859375 C 285.71875 222.996094 285.179688 224.640625 284.0625 225.292969 C 282.820312 226.035156 281.394531 225.53125 280.625 224.398438 C 279.839844 223.253906 279.117188 222.121094 278.71875 220.789062 C 277.804688 217.675781 282.660156 216.34375 283.582031 219.453125 C 283.84375 220.347656 284.457031 221.089844 284.957031 221.859375 " fill-opacity="1" fill-rule="nonzero"/><path fill="#ffffff" d="M 249.84375 157.613281 C 250.957031 154.90625 255.480469 156.238281 254.589844 159.257812 C 254.347656 160.023438 253.957031 160.59375 253.386719 161.183594 C 251.128906 163.523438 247.585938 159.960938 249.84375 157.613281 " fill-opacity="1" fill-rule="nonzero"/><path fill="#ffffff" d="M 245.882812 157.421875 C 247.195312 157.421875 248.460938 158.578125 248.398438 159.960938 C 248.328125 161.113281 248.027344 162.078125 247.496094 163.132812 C 246.882812 164.355469 245.179688 164.6875 244.046875 164.023438 C 242.820312 163.300781 242.53125 161.816406 243.140625 160.59375 C 243.273438 160.351562 243.34375 160.242188 243.34375 159.960938 C 243.433594 158.578125 244.4375 157.421875 245.882812 157.421875 " fill-opacity="1" fill-rule="nonzero"/><path fill="#ffffff" d="M 243.863281 223.144531 C 246.734375 224.640625 244.195312 228.996094 241.304688 227.480469 C 240.605469 227.128906 239.839844 226.496094 239.027344 226.457031 C 237.65625 226.386719 236.511719 225.382812 236.511719 223.9375 C 236.511719 222.625 237.65625 221.347656 239.027344 221.417969 C 240.84375 221.53125 242.269531 222.3125 243.863281 223.144531 " fill-opacity="1" fill-rule="nonzero"/><path fill="#ffffff" d="M 240.304688 156.128906 C 243.121094 157.746094 240.585938 162.097656 237.765625 160.484375 C 237.191406 160.152344 236.691406 159.71875 236.121094 159.390625 C 233.300781 157.765625 235.839844 153.410156 238.65625 155.035156 C 239.230469 155.355469 239.730469 155.796875 240.304688 156.128906 " fill-opacity="1" fill-rule="nonzero"/><path fill="#ffffff" d="M 238.617188 234.371094 C 239.839844 234.722656 240.84375 236.1875 240.363281 237.480469 C 239.398438 240.039062 237.042969 240.171875 234.65625 240.128906 C 231.414062 240.089844 231.414062 235.054688 234.65625 235.09375 C 235.066406 235.113281 235.488281 235.132812 235.878906 235.132812 C 235.929688 235.132812 236.058594 235.113281 236.160156 235.09375 C 236.78125 234.460938 237.632812 234.109375 238.617188 234.371094 " fill-opacity="1" fill-rule="nonzero"/><path fill="#ffffff" d="M 231.003906 221.21875 C 232.136719 221.882812 232.660156 223.515625 231.894531 224.679688 C 231.195312 225.703125 230.480469 226.738281 229.597656 227.628906 C 227.339844 229.976562 223.800781 226.4375 226.039062 224.089844 C 226.628906 223.476562 227.089844 222.824219 227.570312 222.121094 C 228.304688 220.976562 229.75 220.496094 231.003906 221.21875 " fill-opacity="1" fill-rule="nonzero"/><path fill="#ffffff" d="M 223.871094 237.390625 C 226.980469 236.429688 228.304688 241.285156 225.203125 242.226562 C 224.703125 242.378906 224.171875 242.46875 223.667969 242.648438 C 223.539062 242.667969 223.410156 242.707031 223.277344 242.777344 L 223.257812 242.777344 C 222.074219 245.378906 217.699219 244.042969 218.554688 241.042969 C 219.296875 238.535156 221.683594 238.054688 223.871094 237.390625 " fill-opacity="1" fill-rule="nonzero"/><path fill="#ffffff" d="M 224.261719 212.730469 C 228.636719 212.730469 228.636719 217.105469 224.261719 217.105469 C 221.019531 217.105469 221.019531 212.730469 224.261719 212.730469 " fill-opacity="1" fill-rule="nonzero"/><path fill="#ffffff" d="M 221.222656 227.109375 C 221.574219 228.382812 220.800781 229.90625 219.464844 230.199219 C 218.050781 230.5 216.695312 231.019531 215.351562 231.574219 C 214.089844 232.074219 212.59375 231.019531 212.273438 229.828125 C 211.882812 228.382812 212.753906 227.21875 214.019531 226.71875 C 215.351562 226.183594 216.71875 225.664062 218.113281 225.363281 C 219.464844 225.050781 220.851562 225.734375 221.222656 227.109375 " fill-opacity="1" fill-rule="nonzero"/><path fill="#ffffff" d="M 217.871094 217.675781 C 220.628906 219.363281 218.113281 223.71875 215.332031 222.011719 C 214.21875 221.328125 213.125 220.386719 211.832031 220.085938 C 208.679688 219.324219 210.015625 214.457031 213.164062 215.230469 C 214.921875 215.660156 216.367188 216.734375 217.871094 217.675781 " fill-opacity="1" fill-rule="nonzero"/><path fill="#ffffff" d="M 211.378906 237.5 C 211.75 238.875 210.917969 240.171875 209.625 240.589844 C 207.789062 241.203125 205.972656 241.726562 204.027344 241.765625 C 200.785156 241.875 200.785156 236.828125 204.027344 236.738281 C 205.492188 236.71875 206.886719 236.207031 208.269531 235.757812 C 209.574219 235.316406 211.019531 236.238281 211.378906 237.5 " fill-opacity="1" fill-rule="nonzero"/><path fill="#ffffff" d="M 206.082031 219.976562 C 208.289062 217.585938 211.832031 221.160156 209.625 223.546875 C 209.273438 223.917969 208.992188 224.441406 208.660156 224.941406 C 206.886719 227.660156 202.53125 225.140625 204.308594 222.402344 C 204.847656 221.570312 205.378906 220.71875 206.082031 219.976562 " fill-opacity="1" fill-rule="nonzero"/><path fill="#ffffff" d="M 205.03125 228.332031 C 207.878906 229.886719 205.332031 234.242188 202.472656 232.6875 C 202.007812 232.425781 201.566406 232.113281 201.117188 231.851562 C 198.269531 230.308594 200.804688 225.953125 203.65625 227.53125 C 204.105469 227.761719 204.546875 228.089844 205.03125 228.332031 " fill-opacity="1" fill-rule="nonzero"/><path fill="#ffffff" d="M 203.734375 215.550781 C 204.257812 216.824219 204.136719 218.25 202.84375 219.011719 C 201.769531 219.625 199.933594 219.363281 199.382812 218.117188 C 199.140625 217.527344 198.617188 217.15625 198.136719 216.695312 C 195.769531 214.457031 199.339844 210.914062 201.699219 213.152344 C 202.472656 213.875 203.304688 214.546875 203.734375 215.550781 " fill-opacity="1" fill-rule="nonzero"/><path fill="#ffffff" d="M 198.730469 232.445312 C 199.863281 233.109375 200.382812 234.742188 199.621094 235.886719 C 199.230469 236.476562 198.769531 237.089844 198.507812 237.742188 C 198.027344 239.035156 196.84375 239.890625 195.417969 239.488281 C 194.195312 239.167969 193.171875 237.703125 193.671875 236.40625 C 194.09375 235.292969 194.636719 234.332031 195.289062 233.347656 C 196.03125 232.203125 197.503906 231.722656 198.730469 232.445312 " fill-opacity="1" fill-rule="nonzero"/><path fill="#ffffff" d="M 196.492188 222.714844 C 197.546875 223.625 197.414062 225.363281 196.492188 226.277344 C 195.488281 227.277344 193.972656 227.179688 192.949219 226.277344 C 192.46875 225.863281 191.796875 225.625 191.265625 225.292969 C 188.527344 223.585938 191.042969 219.234375 193.804688 220.957031 C 194.726562 221.53125 195.667969 221.992188 196.492188 222.714844 " fill-opacity="1" fill-rule="nonzero"/><path fill="#ffffff" d="M 186.058594 179.9375 C 188.835938 178.199219 191.355469 182.5625 188.617188 184.269531 C 187.722656 184.8125 186.601562 185.183594 186.097656 185.792969 C 185.265625 186.867188 183.429688 186.675781 182.558594 185.792969 C 181.484375 184.75 181.703125 183.308594 182.558594 182.234375 C 183.429688 181.089844 184.875 180.660156 186.058594 179.9375 " fill-opacity="1" fill-rule="nonzero"/><path fill="#ffffff" d="M 187.460938 227.257812 C 190.613281 228.050781 189.277344 232.90625 186.117188 232.113281 C 184.765625 231.773438 183.5 231.351562 182.226562 230.761719 C 181 230.167969 180.699219 228.421875 181.332031 227.328125 C 182.074219 226.054688 183.539062 225.84375 184.785156 226.4375 C 185.617188 226.828125 186.558594 227.046875 187.460938 227.257812 " fill-opacity="1" fill-rule="nonzero"/><path fill="#ffffff" d="M 176.214844 185.402344 C 178.90625 183.546875 181.421875 187.921875 178.773438 189.738281 C 172.183594 194.292969 166.011719 198.203125 157.785156 198.003906 C 154.546875 197.945312 154.546875 192.90625 157.785156 192.976562 C 165.03125 193.148438 170.457031 189.386719 176.214844 185.402344 " fill-opacity="1" fill-rule="nonzero"/><path fill="#ffffff" d="M 169.554688 133.96875 C 171.753906 133.96875 171.753906 140.527344 169.554688 140.527344 C 167.378906 140.527344 167.917969 140.527344 167.378906 140.527344 C 164.128906 140.527344 164.128906 133.96875 167.378906 133.96875 C 167.917969 133.96875 167.378906 133.96875 169.554688 133.96875 " fill-opacity="1" fill-rule="nonzero"/><path fill="#ffffff" d="M 169.554688 176.847656 C 171.753906 176.847656 171.753906 181.882812 169.554688 181.882812 C 167.378906 181.882812 165.050781 181.902344 162.953125 182.144531 C 161.597656 182.3125 160.125 180.898438 160.125 179.644531 C 160.125 178.140625 161.507812 177.289062 162.863281 177.117188 C 164.941406 176.867188 169.554688 176.847656 169.554688 176.847656 " fill-opacity="1" fill-rule="nonzero"/><path fill="#ffffff" d="M 157.394531 137.117188 C 159.691406 134.820312 163.265625 138.382812 160.9375 140.660156 C 159.953125 141.640625 158.949219 142.40625 157.65625 142.957031 C 156.382812 143.476562 154.878906 142.386719 154.546875 141.199219 C 154.15625 139.765625 155.058594 138.621094 156.300781 138.101562 C 156.671875 137.949219 157.085938 137.398438 157.394531 137.117188 " fill-opacity="1" fill-rule="nonzero"/><path fill="#ffffff" d="M 152.230469 133.695312 C 153.324219 134.507812 153.894531 135.863281 153.132812 137.15625 C 152.488281 138.230469 150.785156 138.863281 149.691406 138.050781 C 148.648438 137.269531 147.632812 135.863281 146.671875 135.320312 C 143.871094 133.71875 146.390625 129.363281 149.230469 130.96875 C 149.933594 131.359375 150.574219 131.910156 151.117188 132.492188 C 151.394531 132.804688 151.6875 133.105469 151.96875 133.414062 C 151.988281 133.414062 152.230469 133.636719 152.339844 133.765625 C 152.320312 133.746094 152.269531 133.746094 152.230469 133.695312 " fill-opacity="1" fill-rule="nonzero"/><path fill="#ffffff" d="M 145.488281 135.542969 C 147.683594 135.542969 145.488281 140.570312 145.488281 140.570312 C 141.113281 140.570312 141.113281 135.542969 145.488281 135.542969 " fill-opacity="1" fill-rule="nonzero"/><path fill="#ffffff" d="M 134.089844 228.332031 C 136.828125 226.566406 139.347656 230.921875 136.648438 232.6875 C 136.238281 232.945312 135.835938 233.128906 135.625 233.429688 C 134.832031 234.523438 133.457031 235.074219 132.183594 234.332031 C 131.089844 233.667969 130.480469 231.984375 131.292969 230.871094 C 132.085938 229.796875 132.976562 229.074219 134.089844 228.332031 " fill-opacity="1" fill-rule="nonzero"/><path fill="#ffffff" d="M 129.585938 223.828125 C 129.90625 225.011719 129.316406 226.085938 128.332031 226.648438 C 128.03125 226.867188 127.699219 227.046875 127.289062 227.199219 C 125.996094 227.660156 124.53125 226.695312 124.199219 225.441406 C 123.878906 224.238281 124.460938 223.195312 125.441406 222.625 C 125.753906 222.382812 126.085938 222.210938 126.496094 222.082031 C 127.789062 221.621094 129.253906 222.582031 129.585938 223.828125 " fill-opacity="1" fill-rule="nonzero"/><path fill="#ffffff" d="M 125.972656 233.257812 C 127.21875 233.980469 127.480469 235.464844 126.867188 236.71875 C 126.515625 237.390625 126.40625 237.632812 126.40625 238.445312 C 126.34375 241.683594 121.308594 241.683594 121.359375 238.445312 C 121.398438 236.847656 121.839844 235.574219 122.535156 234.152344 C 123.144531 232.925781 124.859375 232.597656 125.972656 233.257812 " fill-opacity="1" fill-rule="nonzero"/><path fill="#ffffff" d="M 120.457031 165.558594 C 122.714844 163.210938 126.285156 166.785156 124.027344 169.101562 C 123.285156 169.863281 122.714844 170.675781 122.230469 171.617188 C 120.726562 174.488281 116.375 171.949219 117.878906 169.0625 C 118.550781 167.765625 119.453125 166.613281 120.457031 165.558594 " fill-opacity="1" fill-rule="nonzero"/><path fill="#ffffff" d="M 117.46875 228.179688 C 118.378906 229.203125 118.46875 230.738281 117.46875 231.753906 C 116.523438 232.667969 114.808594 232.777344 113.894531 231.753906 C 113.542969 231.351562 113.171875 230.519531 112.75 230.21875 C 111.6875 229.386719 111.117188 228.070312 111.859375 226.777344 C 112.5 225.703125 114.226562 225.050781 115.320312 225.882812 C 116.171875 226.535156 116.894531 227.550781 117.46875 228.179688 " fill-opacity="1" fill-rule="nonzero"/><path fill="#ffffff" d="M 111.285156 235.796875 C 112.078125 236.929688 111.488281 238.59375 110.394531 239.257812 C 109.128906 239.96875 107.726562 239.46875 106.933594 238.355469 C 106.59375 237.832031 106.152344 237.390625 105.6875 236.929688 C 103.390625 234.632812 106.953125 231.089844 109.261719 233.386719 C 110.003906 234.128906 110.675781 234.945312 111.285156 235.796875 " fill-opacity="1" fill-rule="nonzero"/><path fill="#ffffff" d="M 101.726562 223.675781 C 101.726562 219.292969 106.109375 219.292969 106.109375 223.675781 C 106.109375 226.917969 101.726562 226.917969 101.726562 223.675781 " fill-opacity="1" fill-rule="nonzero"/><path fill="#ffffff" d="M 100.3125 187 C 98.554688 189.628906 94.292969 187.109375 95.996094 184.378906 C 96.570312 183.476562 97.332031 182.867188 98.273438 182.382812 C 99.5 181.773438 100.984375 182.054688 101.707031 183.277344 C 102.386719 184.421875 102.039062 186.105469 100.8125 186.738281 C 100.742188 186.757812 100.3125 187.109375 100.3125 187 " fill-opacity="1" fill-rule="nonzero"/><path fill="#ffffff" d="M 100.410156 233.257812 C 100.480469 234.613281 99.21875 235.757812 97.902344 235.757812 C 96.480469 235.757812 95.445312 234.613281 95.386719 233.257812 C 95.34375 232.515625 95.144531 231.792969 95.09375 231.070312 C 95.035156 229.6875 96.308594 228.53125 97.613281 228.53125 C 99.058594 228.53125 100.0625 229.6875 100.152344 231.070312 C 100.179688 231.792969 100.371094 232.515625 100.410156 233.257812 " fill-opacity="1" fill-rule="nonzero"/><path fill="#ffffff" d="M 95.625 238.183594 C 98.367188 239.890625 95.847656 244.242188 93.066406 242.539062 C 92.625 242.246094 91.996094 241.613281 91.703125 241.445312 C 88.953125 239.738281 91.492188 235.386719 94.253906 237.089844 C 94.703125 237.371094 95.34375 238.003906 95.625 238.183594 " fill-opacity="1" fill-rule="nonzero"/><path fill="#ffffff" d="M 92.976562 184.289062 C 92.976562 186.476562 92.976562 185.925781 92.976562 186.476562 C 92.976562 189.71875 88.605469 189.71875 88.605469 186.476562 C 88.605469 185.925781 88.605469 186.476562 88.605469 184.289062 C 88.605469 182.101562 92.976562 182.101562 92.976562 184.289062 " fill-opacity="1" fill-rule="nonzero"/><path fill="#ffffff" d="M 86.757812 229.90625 C 85.5625 229.367188 84.679688 228.273438 85.082031 226.828125 C 85.402344 225.644531 86.917969 224.550781 88.183594 225.070312 C 88.664062 225.292969 89.144531 225.472656 89.585938 225.792969 C 89.847656 225.972656 90.089844 226.164062 90.308594 226.367188 C 90.378906 226.4375 90.417969 226.476562 90.460938 226.496094 C 90.53125 226.535156 90.53125 226.535156 90.460938 226.496094 C 90.460938 226.496094 90.441406 226.457031 90.417969 226.4375 C 93.199219 228.089844 90.660156 232.445312 87.882812 230.761719 C 87.550781 230.570312 87.238281 230.347656 86.9375 230.085938 C 86.757812 229.9375 86.738281 229.90625 86.757812 229.90625 " fill-opacity="1" fill-rule="nonzero"/><path fill="#ffffff" d="M 85.492188 235.183594 C 86.636719 235.925781 87.117188 237.390625 86.386719 238.617188 C 85.734375 239.757812 84.097656 240.28125 82.957031 239.519531 C 82.050781 238.925781 81.160156 238.375 80.226562 237.871094 C 77.335938 236.40625 79.867188 232.054688 82.753906 233.539062 C 83.699219 234.019531 84.601562 234.59375 85.492188 235.183594 " fill-opacity="1" fill-rule="nonzero"/><path fill="#ffffff" d="M 84.769531 186.496094 C 85.472656 187.109375 85.792969 188.140625 85.5625 189.054688 C 85.191406 190.441406 83.808594 191.113281 82.453125 190.8125 C 80.617188 190.410156 79.867188 188.445312 79.785156 186.738281 C 79.714844 185.382812 80.988281 184.21875 82.304688 184.21875 C 83.636719 184.21875 84.582031 185.253906 84.769531 186.496094 " fill-opacity="1" fill-rule="nonzero"/><path fill="#ffffff" d="M 79.363281 187.832031 C 79.34375 188.703125 79.304688 189.605469 78.992188 190.441406 C 78.492188 191.703125 77.335938 192.585938 75.894531 192.183594 C 74.679688 191.855469 73.636719 190.371094 74.136719 189.074219 C 74.316406 188.644531 74.316406 188.332031 74.316406 187.832031 C 74.335938 184.589844 79.363281 184.589844 79.363281 187.832031 " fill-opacity="1" fill-rule="nonzero"/><path fill="#ffffff" d="M 71.617188 183.015625 C 73.265625 185.84375 68.910156 188.363281 67.285156 185.554688 C 67.023438 185.121094 66.671875 184.792969 66.300781 184.421875 C 64.003906 182.121094 67.574219 178.550781 69.875 180.878906 C 70.527344 181.53125 71.15625 182.214844 71.617188 183.015625 " fill-opacity="1" fill-rule="nonzero"/><path fill="#ffffff" d="M 64.445312 183.757812 C 67.175781 185.472656 64.667969 189.828125 61.886719 188.09375 C 60.855469 187.460938 59.699219 187.070312 58.929688 186.054688 C 58.074219 184.992188 57.855469 183.566406 58.929688 182.515625 C 59.800781 181.621094 61.648438 181.421875 62.46875 182.515625 C 62.941406 183.105469 63.703125 183.308594 64.445312 183.757812 " fill-opacity="1" fill-rule="nonzero"/></svg>