<svg xmlns="http://www.w3.org/2000/svg" xmlns:xlink="http://www.w3.org/1999/xlink" width="500" zoomAndPan="magnify" viewBox="0 0 375 374.999991" height="500" preserveAspectRatio="xMidYMid meet" version="1.0"><defs><clipPath id="19e259f793"><path d="M 28.222656 64.058594 L 346.972656 64.058594 L 346.972656 310 L 28.222656 310 Z M 28.222656 64.058594 " clip-rule="nonzero"/></clipPath></defs><g clip-path="url(#19e259f793)"><path fill="#000000" d="M 98.417969 198.757812 C 98.570312 197.722656 98.777344 196.636719 99.046875 195.582031 C 90.21875 196.773438 81.710938 199.324219 72.59375 199.386719 C 64.738281 199.417969 56.46875 198.984375 48.746094 197.339844 C 44.917969 196.503906 40.507812 194.933594 36.8125 192.605469 C 40.125 199.140625 45.382812 205.363281 50.652344 208.226562 C 54.78125 210.511719 59.636719 212.136719 63.765625 214.523438 C 71.238281 204.753906 85.707031 199.5 98.417969 198.757812 Z M 101.976562 171.09375 C 101.976562 170.039062 101.976562 168.953125 101.976562 167.886719 C 101.914062 167.847656 101.820312 167.824219 101.757812 167.753906 C 93.042969 161.871094 79.539062 162.613281 69.582031 162.933594 C 60.492188 163.203125 47.730469 164.890625 40.0625 170.253906 C 32.300781 175.714844 32.796875 181.128906 36.429688 185.253906 C 36.949219 184.492188 37.621094 183.789062 38.550781 183.136719 C 39.222656 182.660156 39.792969 182.453125 40.582031 182.183594 C 40.890625 182.09375 41.191406 181.988281 41.5 181.875 C 41.480469 181.039062 41.480469 180.179688 41.636719 179.320312 C 42.019531 177.160156 43.789062 174.164062 46.222656 173.726562 C 47.824219 173.460938 49.160156 173.625 50.402344 174.140625 C 51.457031 172.46875 53.082031 171.246094 55.089844 170.253906 C 56.3125 169.65625 58.050781 168.859375 59.449219 169.222656 C 60.171875 169.40625 60.804688 169.789062 61.457031 170.078125 C 66.339844 166.605469 72.769531 167.648438 76.089844 172.199219 C 79.25 169.675781 83.925781 169.160156 86.929688 171.835938 C 90.125 170.039062 94.152344 169.851562 97.328125 171.660156 C 99.070312 171.246094 100.496094 170.730469 101.976562 171.09375 Z M 102.792969 187.332031 C 102.835938 187.261719 102.910156 187.21875 102.949219 187.148438 C 102.453125 183.789062 102.203125 180.3125 102.070312 176.777344 C 101.59375 176.707031 101.097656 176.507812 100.671875 176.097656 C 100.175781 175.652344 97.195312 177.179688 96.160156 176.914062 C 93.386719 176.148438 90.964844 174.546875 88.253906 177.234375 C 86.742188 178.710938 84.640625 177.8125 83.925781 176.074219 C 82.933594 173.6875 78.253906 175.898438 78.007812 177.925781 C 77.601562 181.191406 72.40625 181.246094 72.820312 177.925781 C 72.839844 177.769531 72.882812 177.636719 72.902344 177.5 C 72.023438 174.007812 69.023438 172.425781 65.660156 173.667969 C 64.355469 174.164062 63.464844 175.578125 61.972656 175.578125 C 60.9375 175.578125 59.832031 175.289062 59.003906 174.679688 C 57.605469 173.644531 54.4375 176.621094 54.304688 177.925781 C 54.167969 179.238281 53.289062 180.023438 52.253906 180.292969 C 51.417969 180.632812 50.445312 180.5625 49.585938 179.753906 C 46.136719 176.457031 47.082031 182.640625 46.375 184.417969 C 45.839844 185.773438 44.957031 186.207031 43.652344 186.628906 C 42.835938 186.898438 41.707031 187.074219 41.078125 187.714844 C 40.734375 188.046875 40.601562 188.347656 40.507812 188.636719 C 43.507812 190.527344 47.082031 191.839844 50.152344 192.335938 C 56.085938 193.277344 62.5625 194.25 68.640625 194.207031 C 79.796875 194.15625 90.21875 191.273438 101.097656 190.167969 C 101.625 189.152344 102.183594 188.210938 102.792969 187.332031 Z M 145.417969 247.078125 C 145.996094 246.292969 146.605469 245.453125 147.195312 244.617188 C 139.765625 248.949219 129.613281 254.316406 120.835938 254.636719 C 106.40625 255.171875 83.265625 255.96875 69.476562 246.332031 C 74.640625 253.621094 83.378906 258.449219 90.5625 263.515625 C 98.707031 269.242188 107.460938 269.96875 117.191406 269.945312 C 132.839844 268.882812 137.011719 258.242188 145.417969 247.078125 Z M 153.46875 222.710938 C 153.40625 222.523438 153.355469 222.347656 153.292969 222.164062 C 150.425781 214.679688 132.902344 206.695312 125.792969 205.1875 C 116.558594 203.183594 105.621094 203.066406 96.203125 204.371094 C 88.613281 205.4375 82.113281 206.488281 75.730469 211.070312 C 72.457031 213.394531 70.128906 215.96875 68.140625 219.101562 C 67.851562 219.566406 67.53125 220.425781 67.167969 221.378906 C 66.382812 223.515625 65.484375 226.265625 64.507812 226.785156 C 65.089844 226.515625 65.730469 226.339844 66.402344 226.207031 C 66.539062 224.46875 66.960938 222.90625 68.347656 221.4375 C 69.746094 219.980469 71.390625 219.144531 73.285156 219.257812 C 74.332031 216.457031 77.871094 214.617188 81.164062 214.253906 C 82.054688 211.867188 83.945312 210.378906 86.855469 209.808594 C 88.398438 209.519531 89.855469 209.964844 91.078125 210.800781 C 92.929688 208.929688 95.550781 207.78125 98.035156 208.113281 C 99.566406 207.015625 101.417969 205.457031 103.769531 205.859375 C 105.339844 206.128906 107.132812 206.964844 108.527344 208.164062 C 109.410156 207.6875 110.382812 207.347656 111.394531 207.265625 C 113.175781 207.078125 114.4375 206.789062 116.0625 207.730469 C 116.539062 208.011719 117.078125 208.589844 117.417969 209.199219 C 119.519531 208.742188 122.097656 208.816406 123.472656 209.714844 C 124.828125 210.59375 125.597656 211.753906 126.019531 213.054688 C 128.503906 211.8125 131.390625 211.140625 133.742188 210.9375 C 136.722656 210.667969 138.617188 212.960938 139.269531 215.609375 C 140.3125 215.9375 141.253906 216.621094 141.980469 217.5625 C 142.40625 218.109375 142.820312 219.371094 143.046875 220.519531 C 144.691406 220.589844 146.359375 221.109375 147.714844 222.007812 C 148.097656 221.875 148.480469 221.738281 148.863281 221.667969 C 150.46875 221.324219 152.09375 221.800781 153.46875 222.710938 Z M 159.335938 229.222656 C 159.492188 229.222656 159.65625 229.222656 159.792969 229.222656 C 159.636719 229.222656 159.492188 229.222656 159.335938 229.203125 C 159.335938 229.222656 159.335938 229.222656 159.335938 229.222656 Z M 159.792969 251.699219 C 164.511719 251.183594 170.855469 251.160156 177.078125 252.132812 C 171.984375 246.695312 168.03125 240.046875 165.566406 232.261719 C 165.414062 232.316406 165.277344 232.355469 165.09375 232.378906 C 164.015625 232.46875 163 233.121094 161.875 233.195312 C 161.261719 233.234375 160.984375 233.503906 160.332031 233.691406 C 159.886719 233.824219 159.046875 233.824219 158.457031 233.824219 C 156.5625 240.699219 152.246094 247.128906 148.015625 253.03125 C 148.117188 253.125 148.230469 253.21875 148.34375 253.324219 C 148.644531 253.570312 148.820312 253.890625 148.957031 254.230469 C 153.003906 252.855469 156.925781 252.039062 159.792969 251.699219 Z M 184.644531 130.257812 C 184.28125 130.152344 183.949219 129.925781 183.628906 129.585938 C 182.675781 128.589844 182.65625 128.632812 181.238281 128.664062 C 179.5625 128.683594 178.101562 128.933594 176.613281 129.71875 C 175.699219 130.195312 174.851562 130.101562 174.167969 129.71875 C 173.207031 129.65625 172.273438 129.085938 171.953125 127.886719 C 171.355469 125.707031 167.78125 126.511719 166.695312 127.886719 C 165.816406 129.015625 163.941406 128.820312 163.023438 127.886719 C 162.929688 127.804688 162.90625 127.691406 162.816406 127.597656 C 162.453125 127.289062 162.183594 126.835938 162.070312 126.203125 C 161.84375 124.734375 161.148438 122.769531 159.449219 122.480469 C 158.570312 122.328125 154.898438 122.046875 154.667969 123.382812 C 154.667969 123.402344 154.648438 123.421875 154.648438 123.453125 C 154.648438 123.472656 154.648438 123.496094 154.628906 123.496094 C 153.996094 126.335938 149.949219 125.4375 149.640625 122.824219 C 149.609375 122.6875 149.585938 122.542969 149.566406 122.386719 C 149.503906 121.738281 147.257812 122.410156 146.988281 122.503906 C 145.902344 122.84375 144.558594 123.339844 143.832031 124.28125 C 143.832031 125.078125 143.429688 125.707031 142.820312 126.089844 C 141.484375 127.558594 138.792969 126.875 138.328125 125.023438 C 138.078125 125.003906 137.714844 124.910156 137.425781 124.941406 C 136.855469 124.941406 136.171875 124.871094 135.613281 124.984375 C 133.929688 125.34375 132.042969 125.882812 130.988281 127.371094 C 130.605469 127.886719 130.148438 128.210938 129.652344 128.363281 C 128.90625 129.128906 127.78125 129.492188 126.589844 128.859375 C 126.269531 128.707031 124.851562 128.933594 124.28125 128.933594 C 123.691406 128.953125 123.175781 129.015625 122.613281 129.109375 C 122.5 129.109375 122.40625 129.109375 122.292969 129.128906 C 124.757812 132.335938 127.261719 135.652344 131.183594 137.359375 C 138.636719 140.605469 143.335938 145.453125 151.730469 146.671875 C 155.816406 147.28125 161.550781 148.679688 166.695312 149 C 166.746094 148.90625 166.789062 148.8125 166.863281 148.699219 C 169.160156 145.03125 173.402344 143.808594 176 140.582031 C 179.042969 136.78125 181.960938 133.863281 184.644531 130.257812 Z M 187.425781 126.089844 C 188.277344 124.621094 190.085938 122.9375 192.136719 121.757812 C 189.457031 120.898438 186.289062 121.054688 183.496094 121.035156 C 182.574219 121.035156 181.941406 120.652344 181.507812 120.09375 C 162.316406 109.496094 143.894531 114.996094 123.515625 117.859375 C 123.289062 117.882812 123.113281 117.839844 122.925781 117.808594 C 122.324219 118.015625 121.640625 117.972656 120.9375 117.589844 C 119.808594 116.980469 115.585938 117.941406 114.128906 119.027344 C 113.25 119.691406 112.253906 120.402344 111.394531 121.21875 C 114.53125 121.488281 116.808594 122.976562 118.773438 124.960938 C 119.085938 124.640625 119.449219 124.394531 119.945312 124.238281 C 120.804688 123.949219 121.847656 123.992188 122.75 123.878906 C 124.1875 123.679688 125.824219 123.535156 127.3125 123.816406 C 130.335938 120.746094 136.722656 118.355469 140.738281 120.226562 C 144.058594 117.230469 149.722656 115.894531 152.746094 118.304688 C 154.84375 117.269531 157.535156 117.003906 159.492188 117.269531 C 162.472656 117.675781 164.894531 119.484375 166.179688 122.027344 C 167.648438 121.488281 169.273438 121.355469 170.855469 121.511719 C 173.082031 121.738281 174.871094 122.710938 176 124.375 C 177.855469 123.722656 179.769531 123.472656 181.808594 123.472656 C 184.1875 123.472656 185.65625 124.199219 187.28125 125.933594 C 187.355469 125.976562 187.375 126.039062 187.425781 126.089844 Z M 193.949219 275.601562 C 193.492188 275.519531 193.046875 275.238281 192.652344 274.742188 C 192.570312 274.660156 191.464844 273.347656 191.578125 273.285156 C 190.96875 273.636719 190.429688 273.976562 189.671875 273.976562 C 188.753906 273.976562 187.664062 273.535156 187.011719 272.871094 C 186.070312 271.929688 182.460938 265.210938 181.1875 269.089844 C 180.152344 272.242188 175.140625 270.886719 176.175781 267.714844 C 176.175781 267.691406 176.199219 267.691406 176.199219 267.660156 C 176.15625 267.464844 176.09375 267.277344 176.09375 267.042969 C 176.136719 265.882812 176.558594 265.519531 175.140625 265.902344 C 174.78125 266.019531 174.4375 266.222656 174.105469 266.378906 C 173.421875 266.648438 172.636719 266.949219 171.933594 266.742188 C 170.917969 266.472656 170.058594 265.117188 168.933594 265.480469 C 167.515625 265.902344 167.460938 267.558594 167.460938 267.558594 C 167.460938 269.8125 162.257812 269.8125 162.257812 267.558594 C 162.257812 266.699219 162.316406 265.976562 162.433594 265.324219 C 161.375 263.496094 157.464844 265.636719 156.542969 266.566406 C 155.621094 267.484375 153.925781 267.558594 152.816406 266.894531 C 152.527344 266.71875 151.574219 265.4375 151.480469 266.089844 C 151.367188 266.761719 151.367188 267.445312 151.367188 268.117188 C 151.347656 271.167969 147.101562 271.414062 146.335938 268.914062 C 146.046875 268.726562 145.820312 268.457031 145.644531 268.09375 C 145.53125 268.09375 145.417969 268.09375 145.300781 268.09375 C 144.941406 268.136719 144.671875 268.074219 144.445312 268.324219 C 143.605469 269.242188 143.8125 270.441406 143.65625 271.570312 C 143.492188 272.757812 142.570312 274.246094 141.253906 274.472656 C 140.261719 274.628906 138.574219 274.628906 138.417969 275.964844 C 139.929688 278.765625 142.703125 281.402344 146.140625 283.632812 C 155.1875 289.539062 166.65625 289.113281 176.878906 286.230469 C 183.171875 284.441406 191.578125 281.691406 193.949219 275.601562 Z M 192.953125 291.179688 C 194.042969 288.410156 194.828125 285.546875 195.253906 282.683594 C 190.542969 287.46875 182.90625 290.28125 176.0625 291.769531 C 163.789062 294.457031 148.667969 293.816406 138.863281 285.660156 C 142.382812 294.613281 149.410156 302.6875 158.074219 304.332031 C 169.179688 306.449219 188.296875 303.226562 192.953125 291.179688 Z M 201.917969 172.941406 C 201.390625 171.929688 200.925781 170.863281 200.738281 169.871094 C 200.355469 167.960938 200.5625 166.109375 200.242188 164.195312 C 200.023438 162.820312 199.878906 161.445312 199.898438 160.070312 C 197.21875 162.75 194.558594 165.34375 191.257812 167.648438 C 187.042969 170.574219 182.863281 172.871094 177.96875 174.492188 C 174.78125 175.558594 173.421875 170.554688 176.582031 169.519531 C 181.621094 167.824219 185.710938 165.273438 189.996094 162.210938 C 193.925781 159.421875 196.566406 155.988281 199.992188 152.691406 C 200.199219 152.492188 200.449219 152.359375 200.675781 152.226562 C 200.519531 151.820312 200.335938 151.40625 200.179688 151.003906 C 199.683594 150.46875 199.496094 149.691406 199.878906 148.773438 C 200.335938 147.6875 200.675781 146.714844 200.984375 145.792969 C 199.992188 144.738281 199.050781 143.425781 198.824219 142.050781 C 198.769531 141.761719 198.710938 141.460938 198.667969 141.171875 C 195.054688 145.773438 190.511719 149.742188 187.894531 151.699219 C 183.703125 154.839844 182.5 159.554688 178.03125 162.40625 C 173.765625 165.136719 167.339844 165.882812 162.453125 166.605469 C 154.214844 167.867188 148.273438 165.054688 141.253906 160.929688 C 136.609375 158.167969 132.074219 155.152344 127.148438 152.855469 C 123.765625 151.273438 118.414062 150.394531 115.546875 147.550781 C 112.367188 144.378906 110.265625 139.570312 108.621094 134.855469 C 107.535156 142.527344 107.347656 150.261719 107.347656 158.066406 C 107.347656 165.300781 106.925781 173.59375 107.484375 181.222656 C 107.648438 180.964844 107.804688 180.695312 107.980469 180.46875 C 109.585938 178.421875 110.847656 176.097656 112.523438 174.121094 C 114.667969 171.566406 118.332031 175.246094 116.175781 177.792969 C 115.164062 179.011719 114.4375 180.5 113.464844 181.78125 C 112.699219 182.792969 111.871094 183.789062 111.148438 184.851562 C 109.882812 186.703125 108.839844 188.976562 107.152344 190.464844 C 107.039062 190.578125 106.925781 190.640625 106.808594 190.714844 C 105.339844 193.007812 104.210938 195.8125 103.714844 198.582031 C 117.242188 198.3125 128.523438 199.820312 140.914062 206.386719 C 149.027344 210.6875 159.234375 215.671875 159.472656 226.152344 C 159.492188 227.011719 159.472656 227.847656 159.410156 228.6875 C 159.730469 228.480469 160.042969 228.273438 160.351562 228.191406 C 160.921875 228.003906 161.53125 228.097656 162.109375 227.910156 C 163.023438 227.621094 163.859375 227.375 164.78125 227.257812 C 164.398438 225.957031 164.191406 224.601562 164.191406 223.15625 C 164.460938 203.089844 181.664062 195.015625 199.226562 193.164062 C 199.269531 187.933594 199.476562 185.214844 199.929688 181.171875 C 200.199219 178.710938 200.449219 175.195312 201.917969 172.941406 Z M 211.441406 131.300781 C 210.921875 131.09375 210.40625 130.917969 209.835938 130.785156 C 208.550781 130.484375 207.289062 130.101562 205.996094 129.738281 C 205.414062 132.5625 205.167969 135.445312 203.789062 138.082031 C 203.699219 138.269531 203.582031 138.421875 203.46875 138.578125 C 203.46875 138.785156 203.5 138.980469 203.511719 139.207031 C 203.582031 139.53125 203.65625 139.796875 203.71875 140.066406 C 204.734375 139.03125 206.160156 138.15625 208.457031 137.390625 C 208.738281 137.296875 208.976562 137.222656 209.253906 137.140625 C 209.929688 135.15625 210.652344 133.210938 211.441406 131.300781 Z M 214.710938 102.4375 C 214.441406 102.261719 214.191406 102.03125 213.964844 101.734375 C 212.257812 99.324219 210.632812 97.226562 208.738281 94.929688 C 207.828125 93.804688 206.90625 92.738281 205.953125 91.703125 C 205.230469 96.441406 204.597656 101.175781 203.769531 105.910156 C 202.910156 110.738281 202.777344 115.917969 201.214844 120.558594 C 201.191406 120.609375 201.171875 120.683594 201.152344 120.722656 C 201.804688 121.242188 202.382812 121.777344 202.933594 122.367188 C 203.582031 121.199219 204.265625 120.074219 204.867188 119.082031 C 208.210938 113.621094 211.285156 107.875 214.710938 102.4375 Z M 215.734375 122.523438 C 214.917969 122.140625 214.109375 121.738281 213.3125 121.355469 C 212.640625 120.992188 211.667969 120.382812 211.109375 120.402344 C 210.808594 120.425781 210.488281 120.425781 210.21875 120.382812 C 209.359375 121.851562 208.53125 123.339844 207.714844 124.828125 C 209.121094 125.191406 210.488281 125.542969 211.863281 125.933594 C 212.476562 126.089844 213.042969 126.335938 213.582031 126.585938 C 214.265625 125.210938 214.980469 123.855469 215.734375 122.523438 Z M 221.488281 134 C 219.730469 133.710938 217.824219 133.761719 216.230469 133.730469 C 215.972656 134.277344 215.703125 134.816406 215.476562 135.382812 C 217.441406 134.886719 219.449219 134.433594 221.488281 134 Z M 218.414062 118.089844 C 219.296875 116.734375 220.246094 115.398438 221.242188 114.097656 C 220.289062 113.664062 219.316406 112.960938 218.324219 112.671875 C 217.328125 112.359375 216.335938 112 215.476562 111.429688 C 214.667969 112.804688 213.851562 114.179688 213.042969 115.535156 C 213.675781 115.742188 214.328125 116.050781 214.980469 116.390625 C 216.003906 116.890625 217.171875 117.476562 218.414062 118.089844 Z M 226.996094 125.023438 C 226.839844 124.984375 226.675781 124.960938 226.519531 124.890625 C 225.183594 124.445312 223.859375 123.917969 222.410156 123.855469 C 222.214844 123.855469 222.046875 123.792969 221.871094 123.742188 C 220.960938 125.117188 220.101562 126.511719 219.253906 127.941406 C 219.386719 127.960938 219.503906 127.980469 219.636719 127.980469 C 220.339844 127.980469 221.054688 127.960938 221.757812 128.023438 C 223.113281 128.167969 224.4375 128.363281 225.734375 128.777344 C 226.117188 127.507812 226.519531 126.265625 226.996094 125.023438 Z M 231.941406 94.992188 C 231.28125 94.859375 230.691406 94.628906 229.996094 94.453125 C 229.273438 94.246094 228.527344 94.269531 227.78125 94.269531 C 227.359375 94.269531 226.996094 94.1875 226.675781 94.050781 C 225.433594 95.644531 224.242188 97.296875 223.082031 98.960938 C 225.183594 99.664062 227.285156 100.378906 229.4375 100.875 C 230.316406 98.921875 231.105469 96.957031 231.941406 94.992188 Z M 228.960938 120.15625 C 229.675781 118.417969 230.421875 116.714844 231.144531 114.976562 C 230.992188 114.925781 230.855469 114.863281 230.691406 114.769531 C 229.996094 114.367188 229.097656 114.179688 228.257812 113.890625 C 227.171875 115.667969 226.0625 117.386719 224.96875 119.027344 C 226.324219 119.328125 227.628906 119.753906 228.960938 120.15625 Z M 233.878906 107.644531 C 233.972656 107.378906 234.085938 107.128906 234.1875 106.851562 C 234.128906 106.851562 234.085938 106.828125 234.011719 106.808594 C 233.628906 106.714844 233.246094 106.652344 232.863281 106.539062 C 232.679688 106.5 232.523438 106.40625 232.367188 106.332031 C 231.871094 107.378906 231.375 108.410156 230.855469 109.402344 C 231.570312 109.652344 232.328125 109.808594 233.019531 110.148438 C 233.320312 109.332031 233.628906 108.503906 233.878906 107.644531 Z M 237.378906 84.21875 C 236.589844 83.972656 235.804688 83.652344 235.027344 83.339844 C 234.011719 84.757812 233.0625 86.058594 232.210938 87.105469 C 231.601562 87.828125 230.992188 88.574219 230.378906 89.335938 C 231.621094 89.542969 232.84375 89.855469 234.011719 90.308594 C 235.007812 88.210938 236.09375 86.152344 237.378906 84.21875 Z M 237.171875 131 C 237.699219 129.625 238.214844 128.28125 238.753906 126.894531 C 235.886719 126.8125 232.296875 126.679688 232.296875 126.679688 C 232.160156 126.679688 232.066406 126.648438 231.964844 126.628906 C 231.238281 128.519531 230.609375 130.421875 230.089844 132.355469 C 232.480469 131.910156 234.851562 131.476562 237.171875 131 Z M 239.953125 95.644531 C 239.652344 95.5625 239.34375 95.488281 239.054688 95.40625 C 238.527344 95.261719 238.007812 94.949219 237.511719 94.746094 C 236.457031 96.996094 235.484375 99.304688 234.488281 101.597656 C 234.777344 101.671875 235.101562 101.734375 235.390625 101.824219 C 235.679688 101.898438 235.980469 101.980469 236.25 102.074219 C 237.378906 99.894531 238.660156 97.761719 239.953125 95.644531 Z M 240.71875 121.808594 C 241.125 120.746094 241.507812 119.660156 241.921875 118.605469 C 239.820312 118.261719 237.738281 117.859375 235.636719 117.726562 C 235.101562 118.988281 234.550781 120.269531 234.011719 121.53125 C 236.042969 121.582031 238.464844 121.714844 240.628906 121.777344 C 240.648438 121.777344 240.667969 121.808594 240.71875 121.808594 Z M 261.171875 241.238281 C 251.019531 252.175781 232.253906 255.574219 217.628906 255.761719 C 208.242188 255.898438 193.988281 254.003906 186.453125 247.957031 C 183.132812 245.320312 178.445312 242.527344 174.199219 239.210938 C 177.761719 245.609375 182.726562 251.183594 188.617188 255.515625 C 190.625 256.484375 192.4375 257.652344 194.011719 259.027344 C 200.925781 262.886719 208.707031 265.140625 216.769531 265.230469 C 233.609375 265.4375 253.761719 256.621094 261.171875 241.238281 Z M 242.550781 91.117188 C 243.378906 89.585938 244.125 87.984375 244.757812 86.320312 C 244.144531 85.976562 243.515625 85.636719 242.863281 85.441406 C 241.753906 86.9375 240.742188 88.550781 239.839844 90.214844 C 240.015625 90.289062 240.222656 90.351562 240.429688 90.390625 C 241.144531 90.597656 241.867188 90.824219 242.550781 91.117188 Z M 243.628906 113.683594 C 244.105469 112.246094 244.558594 110.800781 245.003906 109.332031 C 244.144531 109.082031 243.285156 108.835938 242.417969 108.640625 C 241.371094 108.410156 240.359375 108.070312 239.34375 107.78125 C 239.179688 108.183594 239.023438 108.617188 238.886719 109.042969 C 238.527344 110.28125 238.101562 111.503906 237.644531 112.742188 C 239.550781 112.992188 241.394531 113.394531 243.316406 113.601562 C 243.421875 113.621094 243.515625 113.664062 243.628906 113.683594 Z M 247.425781 99.148438 C 247.425781 99.097656 247.449219 99.035156 247.449219 98.984375 C 247.066406 98.785156 246.609375 98.519531 246.402344 98.488281 C 245.9375 98.464844 245.460938 98.332031 244.984375 98.175781 C 243.785156 99.777344 242.636719 101.402344 241.621094 103.085938 C 242.34375 103.292969 243.070312 103.5 243.785156 103.636719 C 244.621094 103.8125 245.480469 104.171875 246.320312 104.398438 C 246.722656 102.683594 247.105469 100.925781 247.425781 99.148438 Z M 250.179688 87.890625 C 250.109375 87.871094 250.023438 87.828125 249.953125 87.796875 C 249.433594 89.761719 248.84375 91.878906 248.007812 93.667969 C 248.234375 93.75 248.460938 93.84375 248.667969 93.9375 C 249.226562 91.953125 249.796875 89.917969 250.179688 87.890625 Z M 250.316406 123.742188 C 250.242188 123.703125 250.160156 123.648438 250.046875 123.585938 C 249.496094 123.320312 248.957031 123.089844 248.460938 122.769531 C 247.894531 122.441406 247.085938 121.664062 246.402344 121.601562 C 245.140625 124.488281 244.042969 127.371094 242.933594 130.347656 C 244.082031 130.347656 245.273438 130.390625 246.453125 130.503906 C 247.488281 128.167969 248.84375 125.933594 250.316406 123.742188 Z M 250.492188 82.410156 C 250.523438 82.410156 250.542969 82.441406 250.5625 82.441406 C 250.429688 80.519531 249.902344 78.625 248.804688 76.871094 C 247.695312 75.058594 247.242188 72.671875 246.609375 70.511719 C 243.628906 72.0625 240.742188 75.464844 238.144531 78.988281 C 240.628906 79.824219 243.203125 80.09375 245.6875 81.015625 C 247.332031 81.605469 248.804688 82.007812 250.492188 82.410156 Z M 253.160156 119.484375 C 253.8125 118.46875 254.464844 117.40625 255.054688 116.371094 C 254.101562 115.875 253.089844 115.203125 252.074219 114.925781 C 251.351562 114.75 250.675781 114.5 249.992188 114.230469 C 249.703125 114.945312 249.382812 115.648438 249.03125 116.300781 C 248.886719 116.546875 248.773438 116.773438 248.667969 117.023438 C 249.457031 117.386719 250.222656 117.839844 251.082031 118.304688 C 251.824219 118.71875 252.53125 119.082031 253.160156 119.484375 Z M 257.375 111.75 C 257.847656 110.664062 258.304688 109.578125 258.761719 108.503906 C 258.730469 108.484375 258.707031 108.484375 258.6875 108.453125 C 258.148438 107.988281 257.15625 107.875 256.472656 107.667969 C 255.726562 107.460938 255.011719 107.191406 254.332031 106.828125 C 253.742188 107.800781 253.140625 108.722656 252.507812 109.632812 C 253.160156 109.828125 253.855469 109.992188 254.484375 110.304688 C 255.457031 110.777344 256.410156 111.253906 257.375 111.75 Z M 260.808594 132.921875 C 261.078125 132.539062 261.304688 132.105469 261.574219 131.722656 C 260.199219 131.300781 258.707031 131.113281 257.375 130.667969 C 255.839844 130.152344 254.308594 129.675781 252.746094 129.242188 C 252.382812 129.894531 252.054688 130.578125 251.734375 131.28125 C 254.734375 131.835938 257.714844 132.582031 260.601562 133.328125 C 260.675781 133.191406 260.714844 133.058594 260.808594 132.921875 Z M 261.347656 217.066406 C 261.894531 217.449219 262.300781 217.808594 262.640625 218.265625 C 257.789062 201.21875 230.878906 199.59375 217.082031 198.425781 C 207.628906 197.363281 197.332031 196.804688 188.277344 200.339844 C 179.15625 203.925781 168.847656 211.660156 169.523438 221.492188 C 169.96875 219.101562 170.992188 217.3125 173 216.125 C 173.921875 212.714844 176.671875 208.859375 180.378906 208.859375 C 180.78125 208.929688 181.1875 209.003906 181.601562 209.0625 C 181.683594 208.972656 181.808594 208.859375 181.960938 208.722656 C 182.4375 208.070312 183.089844 207.285156 183.835938 206.945312 C 185.636719 206.160156 187.066406 205.4375 188.980469 205.25 C 191.234375 202.5 195.894531 201.082031 199.070312 202.304688 C 199.566406 202.035156 200.355469 201.691406 200.5625 201.640625 C 201.597656 201.3125 202.703125 200.96875 203.8125 200.96875 C 205.34375 201.011719 206.585938 201.195312 207.785156 201.921875 C 208.34375 201.671875 208.933594 201.488281 209.617188 201.402344 C 211.6875 201.125 214.898438 200.722656 216.789062 201.828125 C 217.578125 202.304688 217.308594 202.632812 217.980469 202.457031 C 218.757812 202.25 219.542969 202.074219 220.308594 201.921875 C 221.53125 201.671875 222.8125 201.558594 224.035156 201.734375 C 225.929688 202.054688 227.78125 203.089844 229.066406 204.558594 C 230.421875 204.0625 231.964844 203.945312 233.433594 204.082031 C 235.007812 204.195312 236.402344 204.535156 237.378906 205.859375 C 237.738281 206.355469 237.945312 206.851562 238.101562 207.441406 C 240.265625 207.398438 242.003906 207.484375 243.609375 209.179688 C 245.003906 208.742188 246.527344 208.722656 248.058594 209.21875 C 249.300781 209.601562 250.46875 210.667969 250.875 211.90625 C 250.894531 211.929688 250.894531 212 250.894531 212.042969 C 252.09375 211.929688 253.449219 212 254.484375 212.601562 C 256.140625 213.570312 257.289062 214.792969 258.035156 216.300781 C 259.207031 216.207031 260.375 216.414062 261.347656 217.066406 Z M 263.582031 95.921875 C 263.066406 95.488281 262.414062 94.910156 261.980469 94.859375 C 261.039062 95.871094 260.136719 97.027344 259.277344 98.371094 C 258.441406 99.644531 257.695312 100.96875 256.929688 102.320312 C 257.558594 102.570312 258.234375 102.746094 258.957031 103.003906 C 259.546875 103.179688 260.085938 103.40625 260.632812 103.65625 C 261.597656 101.082031 262.546875 98.488281 263.582031 95.921875 Z M 263.335938 225.480469 C 262.890625 225.367188 262.457031 225.160156 262.074219 224.851562 C 261.980469 224.800781 261.917969 224.738281 261.824219 224.695312 C 261.039062 224.550781 260.292969 224.261719 259.703125 223.671875 C 259.089844 223.074219 258.863281 222.296875 258.574219 221.554688 C 258.078125 221.417969 257.652344 221.605469 256.96875 221.851562 C 255.644531 222.347656 254.132812 221.304688 253.792969 220.042969 C 253.699219 219.773438 253.71875 219.507812 253.71875 219.257812 C 253.71875 219.183594 253.699219 219.144531 253.679688 219.070312 C 253.636719 218.535156 252.25 216.640625 251.535156 217.097656 C 250.875 217.519531 250.355469 217.882812 249.640625 218.191406 C 248.574219 218.628906 247.242188 217.902344 246.703125 217.003906 C 245.792969 215.441406 246.660156 212.515625 244.28125 214.429688 C 242.386719 215.96875 239.882812 214.386719 239.746094 212.601562 C 239.023438 212.042969 237.53125 212.652344 236.703125 212.652344 C 235.503906 212.652344 234.738281 212.332031 234.011719 211.371094 C 233.539062 210.761719 232.90625 209.269531 233.433594 209.269531 C 232.480469 209.269531 230.835938 208.929688 230.316406 209.964844 C 229.023438 212.539062 225.527344 210.9375 225.527344 208.546875 C 223.921875 205.839844 221.242188 207.535156 218.890625 207.484375 C 216.5 207.460938 215.972656 206.023438 213.769531 205.25 C 213.921875 205.320312 209.753906 207.171875 209.96875 206.519531 C 209.046875 209.332031 205 208.566406 204.824219 206.128906 C 203.5 205.394531 201.253906 207.421875 200.105469 207.730469 C 198.917969 208.050781 198.058594 207.710938 197.261719 207.078125 C 195.707031 207.265625 192.882812 207.730469 192.859375 208.371094 C 192.683594 210.644531 190.242188 211.316406 188.753906 210.492188 C 187.738281 210.667969 186.589844 211.140625 186 211.929688 C 185.386719 212.765625 184.507812 213.820312 183.453125 214.066406 C 182.480469 214.316406 180.949219 213.890625 180.191406 214.335938 C 179.023438 215.082031 178.03125 216.238281 177.894531 217.675781 C 177.8125 218.492188 177.417969 219.125 176.902344 219.527344 C 176.613281 219.910156 176.230469 220.25 175.699219 220.457031 C 173.921875 221.171875 174.625 224.105469 174.511719 225.542969 C 174.4375 226.648438 173.972656 227.734375 173.175781 228.519531 C 173 228.707031 172.773438 228.820312 172.542969 228.957031 C 172.542969 228.996094 172.542969 229.089844 172.542969 229.222656 C 172.523438 229.316406 172.480469 229.378906 172.480469 229.472656 C 172.617188 229.699219 172.730469 229.894531 172.886719 230.101562 C 182.386719 243.40625 201.667969 250.574219 217.628906 250.574219 C 233.175781 250.574219 261.957031 245.03125 263.335938 225.480469 Z M 264.308594 127.175781 C 265.105469 125.769531 265.839844 124.332031 266.542969 122.863281 C 264.019531 121.664062 261.078125 120.746094 258.304688 120.539062 C 257.375 121.914062 256.453125 123.296875 255.550781 124.695312 C 256.875 125.117188 258.191406 125.574219 259.546875 125.902344 C 261.128906 126.296875 262.796875 126.585938 264.308594 127.175781 Z M 270.464844 113.085938 C 270.15625 113.144531 269.792969 113.144531 269.410156 113.054688 C 267.402344 112.648438 265.28125 111.886719 263.199219 111.59375 C 262.734375 112.722656 262.238281 113.847656 261.667969 114.945312 C 261.535156 115.203125 261.367188 115.472656 261.246094 115.71875 C 263.789062 116.195312 266.296875 117.074219 268.644531 118.128906 C 269.296875 116.484375 269.90625 114.789062 270.464844 113.085938 Z M 271.820312 108.503906 C 272.027344 107.800781 272.214844 107.109375 272.390625 106.386719 C 271.398438 106.066406 270.3125 105.816406 269.347656 105.546875 C 268.1875 105.207031 267.019531 104.917969 265.871094 104.597656 C 265.613281 105.300781 265.375 106.003906 265.117188 106.695312 C 267.019531 107.109375 268.914062 107.667969 270.808594 108.070312 C 271.222656 108.140625 271.554688 108.296875 271.820312 108.503906 Z M 270.539062 157.207031 C 271.875 156.007812 273.292969 154.808594 274.742188 153.640625 C 271.875 151.324219 267.785156 150.167969 264.648438 152.535156 C 263.386719 153.507812 262.164062 152.988281 261.460938 151.996094 C 261.078125 151.699219 260.746094 151.273438 260.5625 150.714844 C 259.929688 148.925781 258.574219 149.132812 257.082031 149.402344 C 256.773438 149.652344 256.429688 149.898438 256.140625 150.167969 C 255.34375 150.910156 253.96875 151.253906 252.996094 150.570312 C 252.074219 149.898438 250.316406 148.296875 250.128906 150.570312 C 249.859375 153.890625 244.675781 153.910156 244.941406 150.570312 C 245.003906 149.691406 245.210938 148.90625 245.480469 148.203125 C 245.171875 144.957031 241.277344 147.417969 239.34375 147.53125 C 238.558594 147.605469 237.875 147.417969 237.171875 147.128906 C 237.085938 147.210938 237.015625 147.28125 236.878906 147.375 C 236.433594 148.007812 236.136719 148.699219 236.019531 149.453125 C 235.636719 152.742188 230.453125 152.78125 230.835938 149.453125 C 230.878906 149 230.992188 148.566406 231.074219 148.140625 C 229.046875 147.78125 226.65625 148.101562 225.390625 149.609375 C 224.644531 150.488281 223.972656 151.429688 222.949219 152.019531 C 220.960938 153.1875 218.664062 152.742188 216.449219 153.050781 C 222.929688 157.703125 229.023438 162.882812 237.261719 164.539062 C 244.105469 165.914062 249.226562 171.855469 256.453125 167.671875 C 256.722656 167.328125 257 167.039062 257.289062 166.738281 C 258.128906 165.914062 259.183594 165.59375 260.21875 165.1875 C 263.8125 162.726562 267.421875 159.976562 270.539062 157.207031 Z M 273.46875 101.308594 C 273.539062 100.90625 273.582031 100.503906 273.652344 100.089844 C 272.414062 99.726562 271.304688 99.863281 270.082031 99.304688 C 269.429688 98.984375 268.800781 98.671875 268.148438 98.351562 C 267.960938 98.808594 267.804688 99.25 267.628906 99.707031 C 269.566406 100.242188 271.554688 100.699219 273.46875 101.308594 Z M 274.554688 90.824219 C 274.6875 85.574219 274.511719 86.699219 270.695312 88.707031 C 268.976562 89.605469 267.464844 90.464844 266.089844 91.382812 C 266.730469 91.839844 267.382812 92.316406 268.097656 92.644531 C 269.410156 93.253906 270.695312 93.867188 271.976562 94.476562 C 272.679688 94.816406 273.519531 94.816406 274.285156 94.949219 C 274.421875 93.554688 274.535156 92.179688 274.554688 90.824219 Z M 278.890625 150.355469 C 280.878906 148.84375 282.867188 147.375 284.8125 146 C 282.160156 144.171875 278.910156 142.867188 275.453125 141.898438 C 274.71875 142.09375 273.902344 141.855469 273.25 141.328125 C 269.203125 140.367188 265.117188 139.726562 261.6875 139.148438 C 253.089844 137.65625 245.253906 134.679688 236.382812 136.457031 C 229.003906 137.925781 221.664062 139.507812 214.328125 141.101562 C 209.929688 142.074219 207.941406 143.996094 206.296875 147.105469 C 207.984375 147.800781 209.585938 148.636719 211.148438 149.558594 C 211.171875 149.535156 211.191406 149.496094 211.242188 149.476562 C 212.992188 148.367188 215.207031 147.417969 217.359375 147.417969 C 217.761719 147.417969 220.246094 147.707031 220.515625 147.375 C 221.191406 146.558594 221.800781 145.867188 222.585938 145.164062 C 225.390625 142.703125 230.089844 142.226562 233.589844 143.40625 C 233.785156 143.199219 233.949219 142.980469 234.167969 142.777344 C 236.34375 141.019531 238.371094 142.640625 240.628906 141.898438 C 244.414062 140.636719 247.871094 141.710938 249.570312 144.574219 C 250.988281 144.285156 252.570312 144.492188 254.15625 145.257812 C 255.78125 144.285156 257.507812 143.976562 259.660156 144.097656 C 261.980469 144.242188 263.386719 145.234375 264.347656 146.765625 C 269.234375 144.800781 275.050781 146.902344 278.890625 150.355469 Z M 285.804688 112.246094 C 285.980469 111.945312 286.136719 111.617188 286.292969 111.316406 C 282.9375 113.144531 279.234375 114.40625 275.589844 115.605469 C 275.351562 115.699219 275.09375 115.71875 274.855469 115.742188 C 272.710938 122.328125 269.660156 128.933594 265.914062 134.585938 C 266.046875 134.628906 266.203125 134.660156 266.335938 134.679688 C 268.644531 135.175781 270.964844 135.621094 273.25 136.148438 C 277.039062 127.847656 281.1875 120.1875 285.804688 112.246094 Z M 289.863281 163.050781 C 292.441406 161.148438 291.199219 153.144531 290.917969 150.570312 C 290.722656 148.296875 279.636719 156.730469 279.046875 157.34375 C 274.988281 159.773438 271.914062 163.429688 267.898438 165.882812 C 267.464844 166.160156 267.039062 166.429688 266.636719 166.71875 C 266.523438 167.039062 266.316406 167.347656 266.027344 167.648438 C 264.289062 169.355469 264.289062 169.242188 262.300781 169.851562 C 261.460938 170.480469 260.632812 171.070312 259.773438 171.640625 C 258.882812 172.765625 258.285156 174.140625 257.105469 175.082031 C 254.445312 177.253906 251.847656 178.265625 248.441406 178.898438 C 242.996094 179.890625 234.808594 179.929688 229.5625 177.636719 C 227.804688 176.839844 227.949219 173.957031 229.5625 173.148438 C 229.769531 173.054688 229.957031 172.964844 230.132812 172.871094 C 231.414062 172.238281 232.617188 172.695312 233.359375 173.53125 C 236.476562 174.546875 241.039062 174.566406 245.097656 174.046875 C 243.679688 173.726562 242.292969 173.230469 240.894531 172.332031 C 236.933594 169.808594 233.558594 169.832031 229.5625 167.804688 C 221.574219 163.722656 214.574219 156.730469 206.523438 152.835938 C 209.089844 158.894531 211.957031 165.097656 215.570312 170.667969 C 225.089844 185.390625 239.789062 189.535156 256.585938 186.0625 C 262.664062 184.832031 267.941406 182.640625 273.582031 180.199219 C 277.609375 178.464844 277.898438 175.15625 280.246094 172.175781 C 282.886719 168.816406 286.40625 165.570312 289.863281 163.050781 Z M 260.984375 206.179688 C 268.851562 196.957031 281.074219 193.527344 293.070312 193.867188 C 292.75 191.820312 291.644531 190.082031 290.699219 188.273438 C 290.585938 188.460938 290.515625 188.636719 290.402344 188.820312 C 288.828125 191.746094 284.324219 189.132812 285.941406 186.207031 C 288.300781 181.824219 290.285156 176.074219 288.867188 170.976562 C 287.492188 171.929688 286.269531 172.847656 285.484375 173.84375 C 282.75 177.316406 282.730469 181.875 278.300781 183.765625 C 266.679688 188.792969 255.28125 193.121094 242.292969 192.285156 C 229.253906 191.480469 220.992188 186.382812 212.972656 176.097656 C 209.816406 172.023438 207.464844 167.753906 205.414062 163.339844 C 205.476562 163.792969 205.550781 164.238281 205.59375 164.691406 C 205.800781 167.257812 205.996094 169.488281 207.246094 171.816406 C 207.652344 172.582031 207.464844 173.324219 207.464844 173.957031 C 207.464844 173.957031 207.464844 173.976562 207.464844 174.007812 C 207.464844 174.90625 208.933594 175.804688 209.492188 176.890625 C 210.15625 178.195312 211.191406 179.074219 211.957031 180.273438 C 213.789062 183.085938 209.296875 185.679688 207.484375 182.910156 C 206.792969 181.824219 205.800781 181.015625 205.167969 179.890625 C 204.917969 181.535156 204.804688 183.230469 204.628906 184.035156 C 204.039062 186.742188 204.265625 189.515625 204.351562 192.78125 C 208.78125 192.605469 213.085938 192.78125 217.082031 193.238281 C 229.230469 194.269531 249.933594 196.554688 260.984375 206.179688 Z M 307.984375 250.355469 C 314.535156 246.21875 319.410156 240.71875 322.1875 234.300781 C 308.667969 242.890625 283.1875 237.132812 269.605469 230.277344 C 269.730469 238.984375 271.417969 248.089844 282.101562 250.417969 C 288.164062 251.75 302.28125 253.933594 307.984375 250.355469 Z M 323.449219 212.019531 C 323.5 211.886719 323.519531 211.753906 323.59375 211.660156 C 318.191406 203.183594 303.992188 199.914062 294.945312 199.117188 C 284.035156 198.179688 271.6875 201.539062 264.609375 209.921875 C 264.578125 209.941406 264.554688 209.964844 264.535156 209.996094 C 264.847656 210.4375 265.144531 210.875 265.4375 211.339844 C 266.75 210.304688 268.304688 209.519531 269.636719 208.949219 C 270.921875 208.390625 272.371094 208.144531 273.769531 208.226562 C 274.285156 206.925781 275.1875 205.839844 276.71875 205.230469 C 279.046875 204.289062 280.453125 204.351562 282.121094 205.527344 C 282.367188 205.167969 282.617188 204.824219 282.90625 204.648438 C 283.671875 204.238281 284.417969 203.8125 285.214844 203.449219 C 286.726562 202.746094 288.277344 202.394531 289.976562 202.394531 C 291.394531 202.417969 292.75 203.109375 293.859375 204.101562 C 294.625 203.585938 295.535156 203.222656 296.632812 203.222656 C 298.421875 203.222656 299.972656 204.214844 301.101562 205.550781 C 302.957031 204.484375 305.148438 203.945312 306.972656 205.011719 C 308.214844 205.703125 308.9375 206.65625 309.363281 207.730469 C 310.023438 207.648438 310.695312 207.648438 311.441406 207.84375 C 313.027344 208.277344 314.269531 209.085938 315.1875 210.148438 C 316.867188 209.386719 319.027344 209.519531 321.210938 210.398438 C 322.144531 210.761719 322.796875 211.390625 323.449219 212.019531 Z M 324.597656 224.664062 C 324.710938 223.289062 324.761719 221.894531 324.691406 220.457031 C 324.246094 220.15625 323.882812 219.660156 323.769531 218.917969 C 323.59375 217.882812 321.304688 217.449219 320.5625 216.601562 C 320 215.9375 317.632812 213.128906 317.195312 216.105469 C 316.753906 219.183594 312.34375 218.109375 312.09375 215.421875 C 311.824219 212.402344 310.46875 212.652344 309.339844 213.625 C 309.207031 213.777344 309.070312 213.914062 308.894531 214.027344 C 308.480469 214.449219 308.140625 214.925781 307.902344 215.308594 C 306.183594 218.171875 301.691406 215.558594 303.429688 212.691406 C 303.8125 212.042969 304.289062 211.371094 304.808594 210.707031 C 304.808594 210.378906 304.789062 210.015625 304.671875 209.714844 C 304.488281 209.179688 302.304688 211.140625 302.148438 211.316406 C 300.832031 212.765625 298.257812 212.019531 297.8125 210.191406 C 297.40625 208.566406 296.433594 207.894531 296.414062 210.058594 C 296.363281 213.394531 291.167969 213.394531 291.21875 210.058594 C 291.21875 209.714844 291.257812 209.355469 291.28125 209.023438 C 290.515625 206.988281 288.371094 207.6875 286.945312 208.339844 C 285.773438 208.886719 285.214844 210.171875 284.109375 210.644531 C 283 211.109375 282.101562 211.503906 280.917969 210.894531 C 280.226562 210.511719 278.890625 209.0625 278.46875 210.398438 C 279.65625 212.496094 277.402344 215.609375 275.011719 213.984375 C 273.695312 213.097656 272.214844 213.324219 270.878906 214.066406 C 270.0625 214.523438 268.054688 215.351562 267.804688 216.394531 C 267.804688 216.457031 267.765625 216.507812 267.746094 216.570312 C 268.148438 218.015625 268.394531 219.527344 268.457031 221.128906 C 268.550781 221.324219 268.625 221.53125 268.664062 221.757812 C 268.800781 222.546875 268.894531 223.363281 268.957031 224.148438 C 269.203125 224.21875 269.472656 224.304688 269.730469 224.4375 C 276.863281 228.613281 284.261719 230.691406 292.253906 232.625 C 300.535156 234.628906 319.816406 234.703125 324.597656 224.664062 Z M 333.3125 164.890625 C 333.953125 164.921875 334.605469 164.941406 335.238281 164.980469 C 335.144531 164.753906 335.101562 164.578125 335.007812 164.351562 C 333.136719 164.101562 331.242188 163.855469 329.367188 163.605469 C 325.933594 163.605469 322.351562 163.359375 318.9375 163.605469 C 314.804688 163.898438 308.421875 164.445312 304.539062 166.027344 C 296.839844 169.136719 298.058594 172.023438 301.960938 173.957031 C 302.394531 170.441406 305.894531 167.578125 309.609375 167.484375 C 311.308594 167.441406 311.730469 167.554688 313.410156 168.09375 C 313.886719 168.25 314.101562 168.34375 314.214844 168.382812 C 316.546875 166.71875 318.914062 166.875 321.730469 166.875 C 322.722656 166.875 324.039062 166.71875 325.054688 166.945312 C 325.144531 166.761719 325.28125 166.542969 325.550781 166.222656 C 327.269531 164.308594 331.148438 164.890625 333.3125 164.890625 Z M 331.222656 176.550781 C 335.570312 176.550781 337.402344 174.359375 336.75 170.058594 C 333.859375 169.085938 328.28125 171.246094 327.019531 172 C 325.703125 172.734375 324.710938 172.0625 323.449219 172.0625 C 320.105469 172.0625 317.105469 174.027344 314.121094 174.027344 C 312.933594 174.027344 306.144531 170.976562 307.042969 174.699219 C 307.136719 175.0625 307.136719 175.402344 307.085938 175.691406 C 309.320312 176.210938 311.648438 176.476562 313.472656 176.457031 C 319.390625 176.34375 325.351562 177.449219 331.222656 176.550781 Z M 338.300781 187.507812 C 339.65625 184.4375 340.339844 181.398438 340.566406 178.265625 C 338.21875 179.871094 335.390625 181.015625 332.597656 181.554688 C 324.402344 182.792969 315.324219 181.988281 307.042969 181.417969 C 302.914062 181.152344 298.535156 179.621094 295.421875 176.820312 C 293.515625 191.480469 312.621094 201.621094 325.28125 196.574219 C 330.269531 194.570312 335.960938 192.917969 338.300781 187.507812 Z M 342.804688 162.253906 C 346.207031 165.769531 346.765625 169.222656 345.671875 172.21875 C 346.996094 188.65625 338.238281 199.9375 322.546875 202.746094 C 327.558594 206.222656 331.242188 210.84375 331.128906 216.816406 C 331.054688 220.09375 330.496094 222.90625 329.542969 225.347656 C 328.148438 239.882812 319.390625 254.5 304.238281 257.023438 C 296.664062 258.285156 280.226562 257.859375 273.582031 253.167969 C 270.15625 250.738281 267.980469 245.992188 266.636719 241.371094 C 264.847656 246.273438 262.238281 250.851562 258.957031 254.726562 C 252.507812 262.441406 234.011719 270.144531 223.902344 270.390625 C 215.1875 270.597656 206.65625 269.222656 198.824219 266.359375 C 198.976562 266.8125 199.144531 267.238281 199.246094 267.714844 C 199.359375 268.136719 199.382812 268.550781 199.476562 268.972656 C 199.476562 269.015625 199.527344 269.066406 199.527344 269.109375 C 202.507812 278.941406 200.449219 290.683594 194.640625 299.101562 C 189.34375 306.792969 175.503906 309.605469 166.945312 309.871094 C 156.8125 310.234375 149.527344 308.878906 142.878906 301.375 C 136.566406 294.230469 131.621094 284.625 131.238281 274.96875 C 130.832031 273.800781 130.625 272.695312 130.585938 271.632812 C 126.878906 273.59375 122.613281 274.765625 117.191406 275.125 C 110.980469 275.15625 103.269531 275.261719 97.328125 272.984375 C 90.714844 270.484375 85.613281 266.019531 79.746094 262.183594 C 68.949219 255.132812 62.210938 248.203125 59.40625 235.261719 C 58.03125 228.996094 58.816406 223.539062 61.074219 218.875 C 57.9375 217.097656 53.941406 215.648438 51.097656 214.296875 C 47.082031 212.402344 43.738281 209.941406 40.847656 206.542969 C 34.824219 199.480469 29.019531 191.367188 28.234375 181.875 C 28.191406 181.359375 28.304688 180.921875 28.480469 180.5625 C 28.441406 178.421875 28.976562 176.097656 30.3125 173.574219 C 36.273438 162.367188 51.6875 159.617188 63.269531 158.167969 C 74.464844 156.773438 91.214844 156.195312 102.070312 161.910156 C 102.121094 159.328125 102.164062 156.730469 102.164062 154.25 C 102.164062 144.460938 102.792969 134.910156 105.144531 125.40625 C 105.125 125.367188 105.125 125.324219 105.09375 125.273438 C 104.761719 124.621094 104.648438 123.855469 104.84375 123.207031 C 104.84375 123.039062 104.824219 122.90625 104.84375 122.769531 C 105.125 120.09375 106.75 118.378906 108.777344 116.714844 C 111.167969 114.769531 113.382812 113.167969 116.46875 112.589844 C 118.257812 112.226562 120.742188 112.152344 122.636719 112.785156 C 134.847656 111.027344 146.429688 108.257812 158.933594 108.257812 C 168.621094 108.257812 175.753906 110.964844 184.238281 115.648438 C 184.351562 115.71875 184.445312 115.78125 184.53125 115.875 C 188.164062 115.875 191.960938 116.011719 195.210938 117.363281 C 195.480469 117.40625 195.769531 117.476562 196.089844 117.632812 C 196.246094 117.707031 196.433594 117.808594 196.585938 117.902344 C 198.015625 112.878906 198.324219 107.058594 199.183594 101.980469 C 200.066406 96.617188 200.738281 91.230469 201.691406 85.882812 C 201.867188 84.796875 203.109375 83.921875 204.195312 83.972656 C 207.867188 84.148438 210.21875 88.707031 212.414062 91.25 C 214.398438 93.597656 215.972656 95.695312 217.691406 98.042969 C 217.878906 97.792969 218.03125 97.496094 218.238281 97.246094 C 223.859375 89.511719 230.289062 82.410156 235.773438 74.636719 C 238.640625 70.554688 242.054688 65.972656 247.066406 64.753906 C 248.460938 64.421875 249.496094 65.167969 249.992188 66.160156 C 250.449219 66.429688 250.8125 66.851562 251.039062 67.441406 C 252.882812 71.980469 255.914062 76.777344 255.914062 81.800781 C 255.914062 87.257812 254.0625 91.023438 253.160156 96.324219 C 252.933594 97.628906 252.746094 99.015625 252.589844 100.410156 C 256.015625 94.722656 259.050781 88.921875 265.777344 85.417969 C 270.382812 83.019531 275.332031 77.945312 279.117188 83.609375 C 282.980469 89.335938 278.507812 103.066406 276.636719 109.714844 C 279.84375 108.484375 282.90625 106.941406 286.09375 105.589844 C 288.464844 104.574219 289.75 103.675781 292.253906 104.132812 C 293.039062 104.265625 293.917969 105.125 294.066406 105.929688 C 294.757812 110.28125 289.769531 115.441406 287.585938 118.914062 C 283.859375 124.871094 281.074219 131.074219 278.28125 137.410156 C 282.636719 138.691406 286.726562 140.5 290.152344 143.632812 C 290.855469 143.632812 291.558594 143.769531 292.292969 144.128906 C 295.367188 145.617188 296.132812 147.078125 296.132812 150.570312 C 296.132812 154.859375 297.5625 158.871094 296.902344 163.050781 C 296.839844 163.492188 296.683594 163.949219 296.476562 164.371094 C 299.613281 162.273438 303.679688 160.855469 306.089844 160.207031 C 312.414062 158.488281 319.410156 158.425781 325.910156 158.425781 C 330.859375 158.425781 339.003906 158.28125 342.804688 162.253906 Z M 133.855469 215.917969 C 133.855469 216.28125 131.507812 216.703125 131.484375 216.703125 C 129.519531 217.179688 126.878906 217.902344 125.90625 219.816406 C 124.394531 222.8125 119.925781 220.179688 121.414062 217.199219 C 121.433594 217.179688 121.464844 217.136719 121.488281 217.117188 C 121.433594 216.933594 121.351562 216.757812 121.351562 216.550781 C 121.257812 212.25 116.765625 215.847656 114.285156 214.410156 C 113.746094 214.089844 113.425781 213.59375 113.09375 213.097656 C 112.925781 212.808594 112.867188 212.515625 112.792969 212.21875 C 112.203125 212.3125 111.507812 212.445312 110.941406 212.714844 C 110.847656 213.550781 110.382812 214.222656 109.75 214.65625 C 108.972656 217.273438 104.59375 217.097656 104.6875 214.007812 C 104.742188 213.324219 104.894531 212.671875 105.09375 212.0625 C 104.242188 211.371094 102.878906 211.050781 102.121094 211.453125 C 101.398438 211.835938 101.097656 212.402344 100.371094 212.828125 C 99.070312 213.625 97.195312 212.785156 96.109375 213.488281 C 95.230469 214.046875 94.554688 214.65625 94.121094 215.496094 C 94.121094 216.03125 93.945312 216.507812 93.65625 216.871094 C 92.972656 219.796875 88.460938 218.535156 88.707031 215.515625 C 87.847656 214.429688 85.996094 215.152344 85.839844 216.570312 C 85.75 217.59375 85.273438 218.492188 84.371094 219.03125 C 83.585938 219.484375 77.011719 219.070312 78.503906 221.417969 C 80.199219 224.148438 76.207031 226.628906 74.28125 224.394531 C 73.898438 224.488281 73.492188 224.507812 73.015625 224.394531 C 71.277344 223.992188 71.527344 227.664062 71.527344 228.367188 C 71.527344 229.421875 70.742188 230.710938 69.613281 230.867188 C 68.792969 231.003906 67.757812 230.960938 66.992188 231.269531 C 66 231.703125 65.660156 233.371094 65.585938 234.300781 C 65.585938 234.320312 65.566406 234.339844 65.566406 234.363281 C 73.453125 251.253906 105.621094 251.273438 120.835938 249.445312 C 127.625 248.660156 133.378906 244.574219 139.609375 242.5 C 146.140625 240.335938 149.835938 234.703125 151.917969 228.480469 C 151.800781 228.324219 151.710938 228.160156 151.648438 227.960938 C 151.648438 228.136719 150.46875 226.855469 150.21875 226.742188 C 150.15625 226.722656 150.105469 226.722656 150.042969 226.703125 C 149.855469 227.601562 149.359375 228.480469 148.386719 229.203125 C 147.464844 229.894531 145.996094 229.535156 145.25 228.789062 C 144.351562 227.910156 144.058594 226.949219 144.195312 226.019531 C 143.605469 225.863281 142.996094 225.75 142.382812 225.6875 C 142.136719 225.707031 141.980469 225.707031 141.824219 225.730469 C 141.730469 225.792969 141.691406 225.882812 141.578125 225.976562 C 141.328125 226.207031 141.058594 226.359375 140.8125 226.472656 C 140.78125 226.496094 140.757812 226.515625 140.738281 226.535156 C 138.617188 229.128906 134.960938 225.460938 137.0625 222.886719 C 137.332031 222.578125 137.621094 222.296875 137.921875 222.050781 C 137.851562 221.6875 137.621094 221.128906 137.539062 220.902344 C 137.507812 220.882812 137.539062 220.882812 137.507812 220.882812 C 135.957031 221.261719 134.125 220.476562 134.332031 218.511719 C 134.425781 217.675781 134.371094 216.640625 133.855469 215.917969 Z M 193.875 268.882812 C 191.421875 257.902344 171.261719 255.605469 162.164062 256.621094 C 155.972656 257.292969 149.472656 257.972656 144.058594 261.394531 C 139.683594 264.199219 137.582031 267.195312 137.199219 270.171875 C 137.238281 270.144531 137.261719 270.121094 137.332031 270.101562 C 137.738281 269.925781 138.160156 269.78125 138.59375 269.675781 C 138.617188 269.492188 138.636719 269.335938 138.65625 269.179688 C 138.84375 267.867188 139.226562 266.71875 139.953125 265.636719 C 141.171875 263.765625 144.558594 262.503906 147.15625 262.9375 C 147.488281 262.328125 147.921875 261.777344 148.53125 261.375 C 150.539062 259.960938 152.609375 260.496094 154.421875 261.664062 C 157.710938 259.503906 162.773438 258.667969 165.660156 261.105469 C 166.003906 260.972656 166.34375 260.859375 166.695312 260.746094 C 169.523438 259.867188 171.21875 259.929688 173.15625 261.167969 C 174.832031 260.703125 176.320312 260.0625 178.214844 260.898438 C 179.324219 261.394531 180.015625 262.078125 180.492188 262.90625 C 181.578125 262.523438 182.769531 262.441406 184.085938 262.769531 C 185.75 263.226562 187.21875 264.714844 188.277344 265.996094 C 188.824219 266.648438 189.320312 267.308594 189.859375 267.980469 C 189.972656 268.09375 189.953125 268.25 190.046875 268.386719 C 191.371094 268.023438 193.523438 268.230469 193.875 268.882812 Z M 173.578125 148.566406 C 176.34375 148.566406 177.335938 152.917969 174.304688 153.640625 C 169.230469 154.882812 162.90625 153.371094 157.710938 152.875 C 152.433594 152.378906 145.996094 152.378906 141.308594 149.402344 C 135.367188 145.660156 128.679688 142.683594 123.195312 138.445312 C 118.507812 134.835938 118.714844 126.335938 111.21875 126.222656 C 112.90625 131.300781 114.933594 137.636719 117.988281 142.03125 C 121.011719 146.382812 131.164062 148.8125 135.707031 151.480469 C 141.195312 154.707031 146.472656 158.242188 152.339844 160.742188 C 162.027344 164.867188 176.230469 159.058594 181.238281 150.683594 C 183.566406 146.839844 189.074219 143.675781 192.363281 140.582031 C 194.402344 138.671875 202.207031 123.679688 194.898438 126.585938 C 192.230469 127.671875 186.515625 136.5 184.375 138.828125 C 181.507812 141.875 176.820312 145.144531 173.578125 148.566406 Z M 218.457031 107.265625 C 218.457031 107.148438 219.449219 107.554688 219.699219 107.667969 C 220.421875 107.957031 221.148438 108.257812 221.832031 108.617188 C 222.722656 109.082031 223.632812 109.476562 224.554688 109.808594 C 225.527344 108.433594 226.363281 107.015625 227.152344 105.546875 C 226.425781 105.453125 225.796875 105.507812 225.050781 105.207031 C 223.476562 104.554688 221.933594 104.019531 220.308594 103.46875 C 220.269531 103.46875 220.226562 103.429688 220.175781 103.40625 C 219.75 104.101562 219.316406 104.804688 218.933594 105.484375 C 218.683594 105.929688 218.414062 106.386719 218.148438 106.851562 C 218.261719 106.964844 218.355469 107.109375 218.457031 107.265625 " fill-opacity="1" fill-rule="nonzero"/></g><path fill="#000000" d="M 319.910156 222.316406 C 320.808594 223.226562 321.035156 225.121094 319.910156 225.976562 C 319.183594 226.535156 318.800781 227.582031 317.941406 228.230469 C 316.8125 229.109375 315.363281 229.335938 314.269531 228.230469 C 313.355469 227.332031 313.160156 225.429688 314.269531 224.582031 C 314.992188 224.011719 315.394531 222.980469 316.246094 222.316406 C 317.351562 221.4375 318.820312 221.222656 319.910156 222.316406 " fill-opacity="1" fill-rule="nonzero"/><path fill="#000000" d="M 304.828125 223.402344 C 306.433594 220.476562 310.925781 223.09375 309.320312 226.019531 C 308.917969 226.742188 308.367188 227.375 307.789062 227.960938 C 305.417969 230.332031 301.734375 226.648438 304.105469 224.28125 C 304.539062 223.859375 304.671875 223.671875 304.828125 223.402344 " fill-opacity="1" fill-rule="nonzero"/><path fill="#000000" d="M 294.601562 222.730469 C 294.695312 219.390625 299.882812 219.390625 299.789062 222.730469 C 299.746094 224.625 299.1875 226.382812 298.847656 228.230469 C 298.597656 229.605469 296.921875 230.371094 295.667969 230.03125 C 294.21875 229.628906 293.589844 228.230469 293.859375 226.835938 C 294.105469 225.480469 294.5625 224.148438 294.601562 222.730469 " fill-opacity="1" fill-rule="nonzero"/><path fill="#000000" d="M 294.625 219.238281 C 294.851562 220.632812 294.28125 222.007812 292.824219 222.410156 C 291.558594 222.773438 289.839844 222.007812 289.613281 220.613281 C 289.59375 220.457031 289.59375 220.425781 289.59375 220.425781 C 288.828125 219.371094 288.714844 217.976562 289.726562 216.953125 C 290.648438 216.03125 292.480469 215.878906 293.382812 216.953125 C 293.949219 217.613281 294.488281 218.359375 294.625 219.238281 " fill-opacity="1" fill-rule="nonzero"/><path fill="#000000" d="M 288.144531 222.84375 C 288.929688 224.011719 288.371094 225.707031 287.222656 226.382812 C 285.941406 227.144531 284.46875 226.628906 283.671875 225.460938 C 282.867188 224.28125 282.121094 223.113281 281.707031 221.738281 C 280.765625 218.535156 285.773438 217.160156 286.726562 220.363281 C 286.996094 221.285156 287.625 222.050781 288.144531 222.84375 " fill-opacity="1" fill-rule="nonzero"/><path fill="#000000" d="M 251.917969 156.640625 C 253.066406 153.847656 257.734375 155.222656 256.816406 158.335938 C 256.566406 159.121094 256.164062 159.710938 255.574219 160.320312 C 253.242188 162.726562 249.589844 159.058594 251.917969 156.640625 " fill-opacity="1" fill-rule="nonzero"/><path fill="#000000" d="M 247.832031 156.441406 C 249.1875 156.441406 250.492188 157.632812 250.429688 159.058594 C 250.355469 160.246094 250.046875 161.238281 249.496094 162.324219 C 248.867188 163.585938 247.105469 163.925781 245.9375 163.246094 C 244.675781 162.5 244.375 160.972656 245.003906 159.710938 C 245.140625 159.460938 245.210938 159.347656 245.210938 159.058594 C 245.304688 157.632812 246.339844 156.441406 247.832031 156.441406 " fill-opacity="1" fill-rule="nonzero"/><path fill="#000000" d="M 245.75 224.167969 C 248.710938 225.707031 246.09375 230.195312 243.109375 228.632812 C 242.386719 228.273438 241.601562 227.621094 240.761719 227.582031 C 239.34375 227.507812 238.164062 226.472656 238.164062 224.984375 C 238.164062 223.632812 239.34375 222.316406 240.761719 222.390625 C 242.636719 222.503906 244.105469 223.308594 245.75 224.167969 " fill-opacity="1" fill-rule="nonzero"/><path fill="#000000" d="M 242.074219 155.109375 C 244.984375 156.773438 242.367188 161.261719 239.457031 159.597656 C 238.867188 159.253906 238.351562 158.808594 237.761719 158.46875 C 234.851562 156.792969 237.46875 152.308594 240.378906 153.980469 C 240.96875 154.3125 241.484375 154.769531 242.074219 155.109375 " fill-opacity="1" fill-rule="nonzero"/><path fill="#000000" d="M 240.335938 235.738281 C 241.601562 236.097656 242.636719 237.609375 242.136719 238.941406 C 241.144531 241.578125 238.710938 241.710938 236.25 241.671875 C 232.90625 241.628906 232.90625 236.441406 236.25 236.480469 C 236.671875 236.503906 237.109375 236.523438 237.511719 236.523438 C 237.5625 236.523438 237.699219 236.503906 237.800781 236.480469 C 238.441406 235.828125 239.324219 235.46875 240.335938 235.738281 " fill-opacity="1" fill-rule="nonzero"/><path fill="#000000" d="M 232.480469 222.183594 C 233.652344 222.867188 234.1875 224.550781 233.402344 225.75 C 232.679688 226.804688 231.941406 227.871094 231.03125 228.789062 C 228.703125 231.207031 225.050781 227.558594 227.359375 225.140625 C 227.96875 224.507812 228.445312 223.835938 228.941406 223.113281 C 229.699219 221.933594 231.1875 221.4375 232.480469 222.183594 " fill-opacity="1" fill-rule="nonzero"/><path fill="#000000" d="M 225.121094 238.847656 C 228.332031 237.855469 229.699219 242.859375 226.5 243.832031 C 225.980469 243.988281 225.433594 244.078125 224.914062 244.265625 C 224.78125 244.285156 224.644531 244.328125 224.511719 244.402344 L 224.492188 244.402344 C 223.269531 247.078125 218.757812 245.703125 219.636719 242.613281 C 220.402344 240.027344 222.867188 239.53125 225.121094 238.847656 " fill-opacity="1" fill-rule="nonzero"/><path fill="#000000" d="M 225.527344 213.4375 C 230.039062 213.4375 230.039062 217.945312 225.527344 217.945312 C 222.183594 217.945312 222.183594 213.4375 225.527344 213.4375 " fill-opacity="1" fill-rule="nonzero"/><path fill="#000000" d="M 222.390625 228.253906 C 222.753906 229.566406 221.957031 231.136719 220.578125 231.4375 C 219.121094 231.746094 217.722656 232.285156 216.335938 232.851562 C 215.03125 233.371094 213.488281 232.285156 213.15625 231.054688 C 212.753906 229.566406 213.65625 228.367188 214.957031 227.847656 C 216.335938 227.300781 217.742188 226.761719 219.179688 226.453125 C 220.578125 226.132812 222.007812 226.835938 222.390625 228.253906 " fill-opacity="1" fill-rule="nonzero"/><path fill="#000000" d="M 218.933594 218.535156 C 221.78125 220.269531 219.179688 224.757812 216.316406 223 C 215.164062 222.296875 214.039062 221.324219 212.703125 221.015625 C 209.453125 220.230469 210.828125 215.214844 214.078125 216.011719 C 215.890625 216.457031 217.378906 217.5625 218.933594 218.535156 " fill-opacity="1" fill-rule="nonzero"/><path fill="#000000" d="M 212.238281 238.960938 C 212.621094 240.378906 211.761719 241.710938 210.425781 242.148438 C 208.53125 242.777344 206.65625 243.316406 204.648438 243.355469 C 201.308594 243.46875 201.308594 238.269531 204.648438 238.175781 C 206.160156 238.15625 207.601562 237.628906 209.027344 237.164062 C 210.375 236.707031 211.863281 237.660156 212.238281 238.960938 " fill-opacity="1" fill-rule="nonzero"/><path fill="#000000" d="M 206.773438 220.902344 C 209.046875 218.441406 212.703125 222.121094 210.425781 224.582031 C 210.0625 224.964844 209.773438 225.503906 209.433594 226.019531 C 207.601562 228.820312 203.109375 226.226562 204.941406 223.402344 C 205.5 222.546875 206.046875 221.667969 206.773438 220.902344 " fill-opacity="1" fill-rule="nonzero"/><path fill="#000000" d="M 205.683594 229.511719 C 208.625 231.117188 205.996094 235.601562 203.046875 234 C 202.570312 233.730469 202.113281 233.410156 201.648438 233.140625 C 198.710938 231.550781 201.328125 227.0625 204.265625 228.6875 C 204.734375 228.925781 205.1875 229.265625 205.683594 229.511719 " fill-opacity="1" fill-rule="nonzero"/><path fill="#000000" d="M 204.351562 216.34375 C 204.886719 217.65625 204.765625 219.125 203.429688 219.910156 C 202.320312 220.539062 200.425781 220.269531 199.859375 218.988281 C 199.609375 218.378906 199.070312 217.996094 198.574219 217.519531 C 196.132812 215.214844 199.816406 211.566406 202.25 213.871094 C 203.046875 214.617188 203.90625 215.308594 204.351562 216.34375 " fill-opacity="1" fill-rule="nonzero"/><path fill="#000000" d="M 199.183594 233.753906 C 200.355469 234.433594 200.894531 236.121094 200.105469 237.296875 C 199.703125 237.90625 199.226562 238.539062 198.957031 239.210938 C 198.460938 240.542969 197.238281 241.421875 195.769531 241.007812 C 194.507812 240.679688 193.453125 239.167969 193.96875 237.835938 C 194.402344 236.6875 194.960938 235.695312 195.636719 234.683594 C 196.402344 233.503906 197.921875 233.007812 199.183594 233.753906 " fill-opacity="1" fill-rule="nonzero"/><path fill="#000000" d="M 196.878906 223.722656 C 197.964844 224.664062 197.828125 226.453125 196.878906 227.394531 C 195.84375 228.429688 194.277344 228.324219 193.222656 227.394531 C 192.726562 226.96875 192.035156 226.722656 191.484375 226.382812 C 188.660156 224.625 191.257812 220.136719 194.101562 221.914062 C 195.054688 222.503906 196.027344 222.980469 196.878906 223.722656 " fill-opacity="1" fill-rule="nonzero"/><path fill="#000000" d="M 186.113281 179.640625 C 188.980469 177.851562 191.578125 182.351562 188.753906 184.109375 C 187.832031 184.667969 186.671875 185.046875 186.15625 185.679688 C 185.296875 186.785156 183.402344 186.589844 182.5 185.679688 C 181.394531 184.605469 181.621094 183.117188 182.5 182.007812 C 183.402344 180.832031 184.890625 180.386719 186.113281 179.640625 " fill-opacity="1" fill-rule="nonzero"/><path fill="#000000" d="M 187.5625 228.40625 C 190.8125 229.222656 189.433594 234.226562 186.175781 233.410156 C 184.777344 233.058594 183.472656 232.625 182.160156 232.015625 C 180.898438 231.40625 180.585938 229.605469 181.238281 228.480469 C 182.003906 227.167969 183.515625 226.949219 184.796875 227.558594 C 185.65625 227.960938 186.628906 228.191406 187.5625 228.40625 " fill-opacity="1" fill-rule="nonzero"/><path fill="#000000" d="M 175.960938 185.277344 C 178.734375 183.363281 181.332031 187.871094 178.597656 189.742188 C 171.796875 194.4375 165.433594 198.46875 156.945312 198.261719 C 153.601562 198.199219 153.601562 193.007812 156.945312 193.082031 C 164.417969 193.257812 170.019531 189.378906 175.960938 185.277344 " fill-opacity="1" fill-rule="nonzero"/><path fill="#000000" d="M 169.085938 132.273438 C 171.355469 132.273438 171.355469 139.03125 169.085938 139.03125 C 166.839844 139.03125 167.398438 139.03125 166.839844 139.03125 C 163.488281 139.03125 163.488281 132.273438 166.839844 132.273438 C 167.398438 132.273438 166.839844 132.273438 169.085938 132.273438 " fill-opacity="1" fill-rule="nonzero"/><path fill="#000000" d="M 169.085938 176.457031 C 171.355469 176.457031 171.355469 181.648438 169.085938 181.648438 C 166.839844 181.648438 164.441406 181.667969 162.277344 181.917969 C 160.878906 182.09375 159.359375 180.632812 159.359375 179.34375 C 159.359375 177.792969 160.785156 176.914062 162.183594 176.738281 C 164.324219 176.476562 169.085938 176.457031 169.085938 176.457031 " fill-opacity="1" fill-rule="nonzero"/><path fill="#000000" d="M 156.542969 135.519531 C 158.914062 133.152344 162.597656 136.820312 160.195312 139.167969 C 159.183594 140.179688 158.148438 140.964844 156.8125 141.535156 C 155.496094 142.074219 153.945312 140.945312 153.601562 139.726562 C 153.199219 138.246094 154.132812 137.070312 155.414062 136.53125 C 155.796875 136.375 156.222656 135.808594 156.542969 135.519531 " fill-opacity="1" fill-rule="nonzero"/><path fill="#000000" d="M 151.210938 131.992188 C 152.339844 132.832031 152.929688 134.226562 152.144531 135.558594 C 151.480469 136.664062 149.722656 137.316406 148.59375 136.480469 C 147.515625 135.671875 146.472656 134.226562 145.476562 133.667969 C 142.589844 132.011719 145.1875 127.527344 148.117188 129.179688 C 148.84375 129.585938 149.503906 130.152344 150.0625 130.753906 C 150.351562 131.074219 150.652344 131.382812 150.941406 131.703125 C 150.964844 131.703125 151.210938 131.929688 151.328125 132.066406 C 151.304688 132.042969 151.253906 132.042969 151.210938 131.992188 " fill-opacity="1" fill-rule="nonzero"/><path fill="#000000" d="M 144.257812 133.894531 C 146.523438 133.894531 144.257812 139.074219 144.257812 139.074219 C 139.746094 139.074219 139.746094 133.894531 144.257812 133.894531 " fill-opacity="1" fill-rule="nonzero"/><path fill="#000000" d="M 132.5 229.511719 C 135.324219 227.695312 137.921875 232.179688 135.140625 234 C 134.714844 234.269531 134.300781 234.453125 134.082031 234.765625 C 133.265625 235.890625 131.847656 236.460938 130.53125 235.695312 C 129.40625 235.011719 128.773438 233.277344 129.613281 232.128906 C 130.429688 231.023438 131.351562 230.277344 132.5 229.511719 " fill-opacity="1" fill-rule="nonzero"/><path fill="#000000" d="M 127.851562 224.871094 C 128.183594 226.089844 127.574219 227.199219 126.558594 227.777344 C 126.246094 228.003906 125.90625 228.191406 125.480469 228.34375 C 124.148438 228.820312 122.636719 227.828125 122.292969 226.535156 C 121.964844 225.296875 122.5625 224.21875 123.578125 223.632812 C 123.898438 223.382812 124.238281 223.207031 124.664062 223.074219 C 126 222.597656 127.511719 223.589844 127.851562 224.871094 " fill-opacity="1" fill-rule="nonzero"/><path fill="#000000" d="M 124.125 234.589844 C 125.410156 235.332031 125.679688 236.863281 125.046875 238.15625 C 124.683594 238.847656 124.570312 239.097656 124.570312 239.933594 C 124.507812 243.273438 119.3125 243.273438 119.363281 239.933594 C 119.40625 238.289062 119.863281 236.976562 120.574219 235.507812 C 121.207031 234.25 122.976562 233.90625 124.125 234.589844 " fill-opacity="1" fill-rule="nonzero"/><path fill="#000000" d="M 118.433594 164.828125 C 120.761719 162.40625 124.445312 166.089844 122.117188 168.476562 C 121.351562 169.261719 120.761719 170.097656 120.265625 171.070312 C 118.714844 174.027344 114.222656 171.414062 115.773438 168.433594 C 116.46875 167.101562 117.398438 165.914062 118.433594 164.828125 " fill-opacity="1" fill-rule="nonzero"/><path fill="#000000" d="M 115.347656 229.359375 C 116.292969 230.414062 116.382812 231.996094 115.347656 233.039062 C 114.375 233.980469 112.605469 234.09375 111.664062 233.039062 C 111.300781 232.625 110.917969 231.765625 110.484375 231.457031 C 109.386719 230.597656 108.796875 229.246094 109.5625 227.910156 C 110.226562 226.804688 112.007812 226.132812 113.132812 226.992188 C 114.015625 227.664062 114.757812 228.707031 115.347656 229.359375 " fill-opacity="1" fill-rule="nonzero"/><path fill="#000000" d="M 108.972656 237.203125 C 109.792969 238.375 109.179688 240.089844 108.050781 240.773438 C 106.75 241.503906 105.300781 240.988281 104.480469 239.839844 C 104.128906 239.304688 103.675781 238.847656 103.199219 238.375 C 100.828125 236.003906 104.503906 232.355469 106.882812 234.722656 C 107.648438 235.488281 108.34375 236.328125 108.972656 237.203125 " fill-opacity="1" fill-rule="nonzero"/><path fill="#000000" d="M 99.109375 224.714844 C 99.109375 220.199219 103.632812 220.199219 103.632812 224.714844 C 103.632812 228.054688 99.109375 228.054688 99.109375 224.714844 " fill-opacity="1" fill-rule="nonzero"/><path fill="#000000" d="M 97.652344 186.917969 C 95.839844 189.628906 91.441406 187.035156 93.199219 184.222656 C 93.789062 183.292969 94.578125 182.660156 95.550781 182.164062 C 96.8125 181.535156 98.34375 181.824219 99.089844 183.085938 C 99.792969 184.261719 99.429688 186 98.167969 186.652344 C 98.097656 186.671875 97.652344 187.035156 97.652344 186.917969 " fill-opacity="1" fill-rule="nonzero"/><path fill="#000000" d="M 97.753906 234.589844 C 97.828125 235.984375 96.523438 237.164062 95.167969 237.164062 C 93.695312 237.164062 92.632812 235.984375 92.570312 234.589844 C 92.527344 233.824219 92.320312 233.078125 92.269531 232.335938 C 92.207031 230.910156 93.519531 229.71875 94.867188 229.71875 C 96.355469 229.71875 97.390625 230.910156 97.484375 232.335938 C 97.515625 233.078125 97.710938 233.824219 97.753906 234.589844 " fill-opacity="1" fill-rule="nonzero"/><path fill="#000000" d="M 92.816406 239.664062 C 95.644531 241.421875 93.042969 245.910156 90.179688 244.152344 C 89.722656 243.851562 89.070312 243.203125 88.769531 243.027344 C 85.933594 241.269531 88.554688 236.78125 91.398438 238.539062 C 91.863281 238.828125 92.527344 239.480469 92.816406 239.664062 " fill-opacity="1" fill-rule="nonzero"/><path fill="#000000" d="M 90.085938 184.128906 C 90.085938 186.382812 90.085938 185.8125 90.085938 186.382812 C 90.085938 189.722656 85.570312 189.722656 85.570312 186.382812 C 85.570312 185.8125 85.570312 186.382812 85.570312 184.128906 C 85.570312 181.875 90.085938 181.875 90.085938 184.128906 " fill-opacity="1" fill-rule="nonzero"/><path fill="#000000" d="M 83.667969 231.136719 C 82.4375 230.578125 81.523438 229.453125 81.9375 227.960938 C 82.269531 226.742188 83.832031 225.617188 85.136719 226.152344 C 85.632812 226.382812 86.132812 226.566406 86.585938 226.898438 C 86.855469 227.082031 87.105469 227.28125 87.332031 227.488281 C 87.402344 227.558594 87.445312 227.601562 87.488281 227.621094 C 87.558594 227.664062 87.558594 227.664062 87.488281 227.621094 C 87.488281 227.621094 87.464844 227.582031 87.445312 227.558594 C 90.3125 229.265625 87.695312 233.753906 84.828125 232.015625 C 84.484375 231.820312 84.164062 231.589844 83.855469 231.324219 C 83.667969 231.167969 83.648438 231.136719 83.667969 231.136719 " fill-opacity="1" fill-rule="nonzero"/><path fill="#000000" d="M 82.363281 236.574219 C 83.542969 237.339844 84.039062 238.847656 83.285156 240.109375 C 82.613281 241.289062 80.925781 241.828125 79.746094 241.039062 C 78.8125 240.429688 77.890625 239.863281 76.929688 239.34375 C 73.949219 237.835938 76.558594 233.347656 79.539062 234.878906 C 80.511719 235.375 81.441406 235.964844 82.363281 236.574219 " fill-opacity="1" fill-rule="nonzero"/><path fill="#000000" d="M 81.617188 186.402344 C 82.34375 187.035156 82.675781 188.097656 82.4375 189.039062 C 82.054688 190.464844 80.625 191.160156 79.226562 190.847656 C 77.332031 190.433594 76.558594 188.410156 76.472656 186.652344 C 76.402344 185.253906 77.714844 184.054688 79.070312 184.054688 C 80.449219 184.054688 81.421875 185.121094 81.617188 186.402344 " fill-opacity="1" fill-rule="nonzero"/><path fill="#000000" d="M 76.039062 187.777344 C 76.019531 188.675781 75.976562 189.609375 75.65625 190.464844 C 75.140625 191.769531 73.949219 192.679688 72.457031 192.265625 C 71.207031 191.921875 70.128906 190.394531 70.648438 189.058594 C 70.832031 188.617188 70.832031 188.292969 70.832031 187.777344 C 70.855469 184.4375 76.039062 184.4375 76.039062 187.777344 " fill-opacity="1" fill-rule="nonzero"/><path fill="#000000" d="M 68.050781 182.816406 C 69.746094 185.730469 65.253906 188.324219 63.578125 185.429688 C 63.308594 184.988281 62.945312 184.644531 62.5625 184.261719 C 60.195312 181.894531 63.878906 178.214844 66.25 180.613281 C 66.921875 181.285156 67.574219 181.988281 68.050781 182.816406 " fill-opacity="1" fill-rule="nonzero"/><path fill="#000000" d="M 60.648438 183.582031 C 63.464844 185.347656 60.875 189.835938 58.011719 188.046875 C 56.945312 187.394531 55.753906 186.992188 54.957031 185.949219 C 54.078125 184.851562 53.847656 183.382812 54.957031 182.296875 C 55.855469 181.378906 57.761719 181.171875 58.609375 182.296875 C 59.097656 182.910156 59.882812 183.117188 60.648438 183.582031 " fill-opacity="1" fill-rule="nonzero"/></svg>