<svg xmlns="http://www.w3.org/2000/svg" xmlns:xlink="http://www.w3.org/1999/xlink" width="500" zoomAndPan="magnify" viewBox="0 0 375 374.999991" height="500" preserveAspectRatio="xMidYMid meet" version="1.0"><defs><clipPath id="8bfc2553ce"><path d="M 199 210 L 340.425781 210 L 340.425781 328.671875 L 199 328.671875 Z M 199 210 " clip-rule="nonzero"/></clipPath><clipPath id="66beebd1d1"><path d="M 140 302 L 222 302 L 222 328.671875 L 140 328.671875 Z M 140 302 " clip-rule="nonzero"/></clipPath><clipPath id="7d42898b4d"><path d="M 173 46.671875 L 199 46.671875 L 199 98 L 173 98 Z M 173 46.671875 " clip-rule="nonzero"/></clipPath><clipPath id="b01973bb1b"><path d="M 193 46.671875 L 219 46.671875 L 219 98 L 193 98 Z M 193 46.671875 " clip-rule="nonzero"/></clipPath><clipPath id="f2fc7eecc9"><path d="M 59 154 L 164 154 L 164 328.671875 L 59 328.671875 Z M 59 154 " clip-rule="nonzero"/></clipPath><clipPath id="f79c837a9c"><path d="M 34.425781 203 L 122 203 L 122 304 L 34.425781 304 Z M 34.425781 203 " clip-rule="nonzero"/></clipPath></defs><g clip-path="url(#8bfc2553ce)"><path fill="#100f0d" d="M 205.351562 302.539062 C 224.183594 316.03125 246.332031 323.125 269.601562 323.074219 C 292.875 323.027344 315 315.851562 333.769531 302.289062 L 269.398438 217.023438 Z M 269.613281 328.351562 C 244.3125 328.398438 220.265625 320.398438 200.074219 305.195312 C 198.917969 304.320312 198.675781 302.671875 199.550781 301.511719 L 267.285156 211.054688 C 268.277344 209.738281 270.496094 209.726562 271.488281 211.054688 L 339.570312 301.234375 C 340.453125 302.394531 340.226562 304.046875 339.070312 304.933594 C 318.9375 320.207031 294.914062 328.300781 269.613281 328.351562 " fill-opacity="1" fill-rule="nonzero"/></g><path fill="#100f0d" d="M 269.589844 314.40625 C 247.332031 314.453125 226.175781 307.40625 208.433594 294.046875 C 207.261719 293.175781 207.035156 291.523438 207.90625 290.363281 C 208.777344 289.191406 210.425781 288.964844 211.597656 289.835938 C 228.421875 302.503906 248.46875 309.179688 269.578125 309.128906 C 290.710938 309.09375 310.746094 302.324219 327.546875 289.574219 C 328.695312 288.691406 330.351562 288.917969 331.226562 290.078125 C 332.109375 291.238281 331.882812 292.886719 330.722656 293.773438 C 313.015625 307.226562 291.871094 314.355469 269.589844 314.40625 " fill-opacity="1" fill-rule="nonzero"/><path fill="#100f0d" d="M 241.757812 273.402344 C 239.929688 273.414062 238.4375 274.910156 238.449219 276.742188 C 238.449219 278.582031 239.941406 280.066406 241.769531 280.066406 C 243.609375 280.054688 245.089844 278.570312 245.089844 276.730469 C 245.089844 274.898438 243.597656 273.402344 241.757812 273.402344 " fill-opacity="1" fill-rule="nonzero"/><path fill="#100f0d" d="M 256.875 287.433594 C 255.046875 287.433594 253.554688 288.929688 253.554688 290.757812 C 253.566406 292.601562 255.058594 294.082031 256.886719 294.082031 C 258.710938 294.082031 260.203125 292.589844 260.203125 290.746094 C 260.203125 288.917969 258.699219 287.421875 256.875 287.433594 " fill-opacity="1" fill-rule="nonzero"/><path fill="#100f0d" d="M 269.507812 272.664062 C 267.679688 272.664062 266.1875 274.15625 266.1875 276 C 266.199219 277.828125 267.691406 279.324219 269.519531 279.324219 C 271.355469 279.3125 272.835938 277.816406 272.835938 275.988281 C 272.824219 274.144531 271.34375 272.664062 269.507812 272.664062 " fill-opacity="1" fill-rule="nonzero"/><path fill="#100f0d" d="M 284.621094 286.679688 C 282.785156 286.691406 281.304688 288.1875 281.304688 290.015625 C 281.316406 291.859375 282.808594 293.34375 284.632812 293.34375 C 286.460938 293.34375 287.953125 291.835938 287.953125 290.003906 C 287.941406 288.175781 286.449219 286.679688 284.621094 286.679688 " fill-opacity="1" fill-rule="nonzero"/><path fill="#100f0d" d="M 297.253906 271.921875 C 295.417969 271.921875 293.9375 273.414062 293.9375 275.246094 C 293.9375 277.085938 295.441406 278.582031 297.265625 278.570312 C 299.09375 278.570312 300.585938 277.074219 300.585938 275.234375 C 300.574219 273.402344 299.082031 271.921875 297.253906 271.921875 " fill-opacity="1" fill-rule="nonzero"/><path fill="#100f0d" d="M 256.824219 262.222656 C 258.652344 262.222656 260.144531 260.726562 260.144531 258.882812 C 260.144531 257.054688 258.640625 255.558594 256.8125 255.558594 C 254.988281 255.570312 253.496094 257.066406 253.496094 258.894531 C 253.496094 260.738281 255 262.222656 256.824219 262.222656 " fill-opacity="1" fill-rule="nonzero"/><path fill="#100f0d" d="M 284.574219 261.480469 C 286.402344 261.46875 287.894531 259.972656 287.882812 258.140625 C 287.882812 256.300781 286.390625 254.816406 284.5625 254.816406 C 282.722656 254.828125 281.242188 256.324219 281.242188 258.15625 C 281.242188 259.984375 282.734375 261.480469 284.574219 261.480469 " fill-opacity="1" fill-rule="nonzero"/><path fill="#100f0d" d="M 269.457031 245.175781 C 271.285156 245.175781 272.777344 243.683594 272.765625 241.839844 C 272.765625 240.011719 271.273438 238.515625 269.445312 238.527344 C 267.609375 238.527344 266.117188 240.023438 266.128906 241.863281 C 266.128906 243.695312 267.621094 245.175781 269.457031 245.175781 " fill-opacity="1" fill-rule="nonzero"/><path fill="#100f0d" d="M 265.089844 202.695312 C 264.097656 202.695312 263.140625 202.132812 262.6875 201.175781 C 249.734375 173.402344 222.484375 154.039062 196.421875 154.085938 C 179.3125 154.121094 160.648438 162.960938 146.476562 177.742188 C 145.472656 178.796875 143.8125 178.832031 142.761719 177.816406 C 141.710938 176.8125 141.675781 175.148438 142.679688 174.097656 C 157.820312 158.296875 177.902344 148.847656 196.410156 148.8125 C 224.457031 148.761719 253.671875 169.371094 267.464844 198.949219 C 268.074219 200.265625 267.511719 201.832031 266.1875 202.453125 C 265.828125 202.621094 265.457031 202.695312 265.089844 202.695312 " fill-opacity="1" fill-rule="nonzero"/><g clip-path="url(#66beebd1d1)"><path fill="#100f0d" d="M 196.753906 328.492188 C 174.234375 328.542969 155.035156 320.921875 141.234375 306.5 C 140.230469 305.445312 140.265625 303.773438 141.316406 302.765625 C 142.355469 301.761719 144.027344 301.796875 145.03125 302.851562 C 157.996094 316.402344 175.394531 323.253906 196.742188 323.21875 C 204.335938 323.207031 211.621094 322.226562 218.390625 320.300781 C 219.789062 319.90625 221.246094 320.707031 221.652344 322.117188 C 222.042969 323.519531 221.234375 324.976562 219.835938 325.371094 C 212.585938 327.429688 204.828125 328.480469 196.753906 328.492188 " fill-opacity="1" fill-rule="nonzero"/></g><g clip-path="url(#7d42898b4d)"><path fill="#100f0d" d="M 176.613281 97.140625 C 176.550781 97.140625 176.480469 97.140625 176.421875 97.140625 C 174.976562 97.035156 173.878906 95.777344 173.984375 94.332031 C 175.132812 77.550781 181.914062 61.917969 194.128906 47.863281 C 195.082031 46.765625 196.742188 46.65625 197.84375 47.613281 C 198.941406 48.570312 199.046875 50.234375 198.09375 51.332031 C 186.652344 64.5 180.300781 79.082031 179.226562 94.691406 C 179.132812 96.078125 177.984375 97.140625 176.613281 97.140625 " fill-opacity="1" fill-rule="nonzero"/></g><path fill="#100f0d" d="M 180.601562 129.039062 C 180.515625 129.039062 180.433594 129.039062 180.347656 129.027344 C 178.90625 128.898438 177.84375 127.617188 177.972656 126.160156 C 178.941406 115.8125 184.492188 106.207031 194.5 97.632812 C 195.597656 96.6875 197.269531 96.820312 198.210938 97.929688 C 199.15625 99.03125 199.023438 100.695312 197.914062 101.640625 C 188.996094 109.292969 184.050781 117.714844 183.214844 126.660156 C 183.082031 128.023438 181.949219 129.039062 180.601562 129.039062 " fill-opacity="1" fill-rule="nonzero"/><path fill="#100f0d" d="M 161.78125 164.660156 C 160.421875 164.671875 159.261719 163.617188 159.15625 162.242188 C 159.023438 160.734375 155.667969 125.546875 117.722656 118.648438 C 116.625 118.445312 115.777344 117.570312 115.585938 116.480469 C 115.40625 115.382812 115.933594 114.28125 116.910156 113.742188 C 117.925781 113.179688 142.214844 100 168.839844 117.976562 C 170.046875 118.789062 170.355469 120.429688 169.542969 121.636719 C 168.730469 122.84375 167.097656 123.167969 165.890625 122.355469 C 150.34375 111.851562 135.550781 113.242188 126.988281 115.539062 C 161.171875 126.589844 164.375 161.441406 164.398438 161.8125 C 164.515625 163.273438 163.429688 164.539062 161.984375 164.660156 C 161.914062 164.660156 161.84375 164.660156 161.78125 164.660156 " fill-opacity="1" fill-rule="nonzero"/><path fill="#100f0d" d="M 149.28125 114.363281 C 148.160156 114.363281 147.121094 113.648438 146.761719 112.523438 C 142.679688 99.664062 125.878906 92.25 125.710938 92.179688 C 124.695312 91.722656 124.0625 90.695312 124.136719 89.570312 C 124.207031 88.457031 124.972656 87.515625 126.046875 87.214844 C 147.550781 81.140625 164.148438 92.191406 164.839844 92.65625 C 166.046875 93.480469 166.355469 95.121094 165.542969 96.316406 C 164.730469 97.523438 163.097656 97.835938 161.890625 97.023438 C 161.757812 96.9375 150.117188 89.261719 134.441406 90.933594 C 140.433594 94.726562 148.769531 101.460938 151.789062 110.921875 C 152.21875 112.308594 151.453125 113.792969 150.070312 114.234375 C 149.808594 114.316406 149.542969 114.363281 149.28125 114.363281 " fill-opacity="1" fill-rule="nonzero"/><path fill="#100f0d" d="M 151.347656 92.347656 C 150.117188 92.347656 149.019531 91.484375 148.769531 90.230469 C 146.117188 77.023438 134.199219 70.195312 134.082031 70.125 C 133.113281 69.585938 132.589844 68.496094 132.769531 67.394531 C 132.949219 66.308594 133.796875 65.433594 134.882812 65.230469 C 163.753906 59.835938 181.007812 74.667969 181.734375 75.300781 C 182.820312 76.269531 182.929688 77.933594 181.972656 79.023438 C 181.019531 80.121094 179.347656 80.230469 178.261719 79.273438 C 178.058594 79.09375 164.566406 67.683594 142.140625 69.5625 C 146.464844 73.375 152.0625 79.894531 153.925781 89.1875 C 154.210938 90.613281 153.292969 92.011719 151.859375 92.285156 C 151.691406 92.320312 151.515625 92.347656 151.347656 92.347656 " fill-opacity="1" fill-rule="nonzero"/><g clip-path="url(#b01973bb1b)"><path fill="#100f0d" d="M 215.789062 97.070312 C 214.425781 97.070312 213.269531 96.019531 213.160156 94.617188 C 212.027344 79.023438 205.625 64.464844 194.128906 51.332031 C 193.171875 50.246094 193.28125 48.582031 194.378906 47.613281 C 195.464844 46.65625 197.125 46.765625 198.09375 47.851562 C 210.355469 61.859375 217.195312 77.46875 218.414062 94.234375 C 218.523438 95.695312 217.4375 96.960938 215.980469 97.058594 C 215.917969 97.070312 215.859375 97.070312 215.789062 97.070312 " fill-opacity="1" fill-rule="nonzero"/></g><path fill="#100f0d" d="M 211.929688 128.980469 C 210.582031 128.980469 209.4375 127.964844 209.304688 126.601562 C 208.433594 117.667969 203.453125 109.269531 194.5 101.652344 C 193.398438 100.707031 193.257812 99.042969 194.199219 97.929688 C 195.144531 96.820312 196.804688 96.6875 197.914062 97.632812 C 207.941406 106.171875 213.542969 115.742188 214.546875 126.097656 C 214.6875 127.546875 213.625 128.824219 212.183594 128.96875 C 212.085938 128.980469 212.015625 128.980469 211.929688 128.980469 " fill-opacity="1" fill-rule="nonzero"/><path fill="#100f0d" d="M 230.890625 164.527344 C 230.820312 164.527344 230.75 164.527344 230.675781 164.527344 C 229.230469 164.40625 228.144531 163.140625 228.253906 161.691406 C 228.289062 161.320312 231.359375 126.386719 265.589844 115.226562 C 257.078125 112.917969 242.308594 111.542969 226.605469 122.234375 C 225.410156 123.058594 223.777344 122.738281 222.953125 121.53125 C 222.140625 120.332031 222.449219 118.695312 223.65625 117.871094 C 250.210938 99.785156 274.53125 112.871094 275.558594 113.433594 C 276.539062 113.96875 277.066406 115.070312 276.886719 116.160156 C 276.707031 117.257812 275.859375 118.132812 274.773438 118.335938 C 236.851562 125.394531 233.625 160.605469 233.507812 162.097656 C 233.398438 163.476562 232.242188 164.527344 230.890625 164.527344 " fill-opacity="1" fill-rule="nonzero"/><path fill="#100f0d" d="M 243.191406 114.1875 C 242.925781 114.1875 242.664062 114.136719 242.390625 114.054688 C 241.003906 113.625 240.242188 112.140625 240.671875 110.753906 C 243.65625 101.269531 251.953125 94.511719 257.949219 90.695312 C 242.246094 89.070312 230.640625 96.808594 230.511719 96.890625 C 229.316406 97.714844 227.679688 97.394531 226.855469 96.195312 C 226.042969 94.988281 226.34375 93.363281 227.550781 92.539062 C 228.242188 92.058594 244.800781 80.949219 266.316406 86.941406 C 267.394531 87.238281 268.15625 88.183594 268.242188 89.296875 C 268.324219 90.410156 267.691406 91.449219 266.675781 91.902344 C 266.507812 91.976562 249.722656 99.5 245.699219 112.332031 C 245.339844 113.457031 244.3125 114.171875 243.191406 114.1875 " fill-opacity="1" fill-rule="nonzero"/><path fill="#100f0d" d="M 241.042969 92.167969 C 240.875 92.167969 240.695312 92.15625 240.515625 92.117188 C 239.09375 91.84375 238.164062 90.457031 238.449219 89.019531 C 240.277344 79.726562 245.839844 73.183594 250.164062 69.359375 C 227.65625 67.539062 214.222656 79.070312 214.082031 79.203125 C 212.980469 80.15625 211.320312 80.050781 210.367188 78.960938 C 209.398438 77.875 209.507812 76.210938 210.59375 75.253906 C 211.308594 74.609375 228.515625 59.707031 257.398438 65.003906 C 258.484375 65.195312 259.332031 66.058594 259.511719 67.15625 C 259.703125 68.246094 259.179688 69.332031 258.222656 69.882812 C 258.105469 69.957031 246.199219 76.90625 243.609375 90.039062 C 243.371094 91.292969 242.269531 92.167969 241.042969 92.167969 " fill-opacity="1" fill-rule="nonzero"/><g clip-path="url(#f2fc7eecc9)"><path fill="#100f0d" d="M 113.757812 159.539062 C 113.675781 159.539062 113.59375 159.5625 113.507812 159.585938 C 112.074219 160.125 110.632812 160.988281 109.234375 162.183594 C 109.089844 162.304688 109.019531 162.457031 109.007812 162.648438 C 109.007812 162.769531 109.042969 162.984375 109.257812 163.1875 C 117.449219 170.53125 119.550781 178.089844 119.859375 183.136719 C 120.195312 188.449219 120.625 193.125 121.164062 197.429688 C 129.746094 265.355469 80.386719 303.28125 70.40625 310.195312 C 68.710938 311.367188 67.277344 312.671875 66.15625 314.058594 L 65.988281 314.261719 C 65.066406 315.433594 64.792969 316.941406 65.257812 318.398438 C 65.722656 319.859375 66.835938 320.957031 68.292969 321.390625 C 73.066406 322.800781 77.722656 323.421875 82.214844 323.410156 C 117.734375 323.351562 143.335938 283.75 143.621094 283.308594 C 165.292969 247.304688 158.882812 218.085938 149.675781 199.917969 C 145.054688 190.816406 137.675781 182.683594 128.339844 176.390625 C 119.441406 170.398438 115.742188 163.488281 114.320312 159.910156 C 114.226562 159.683594 114.011719 159.539062 113.757812 159.539062 Z M 82.226562 328.699219 C 77.257812 328.710938 72.113281 328.015625 66.800781 326.4375 C 63.683594 325.515625 61.234375 323.113281 60.242188 319.988281 C 59.253906 316.890625 59.863281 313.53125 61.855469 310.996094 L 62.046875 310.746094 C 63.503906 308.960938 65.292969 307.3125 67.40625 305.851562 C 76.949219 299.25 124.136719 262.988281 115.945312 198.101562 C 115.382812 193.675781 114.941406 188.890625 114.605469 183.460938 C 114.355469 179.40625 112.613281 173.269531 105.746094 167.109375 C 104.445312 165.949219 103.71875 164.300781 103.742188 162.578125 C 103.765625 160.878906 104.53125 159.265625 105.832031 158.164062 C 107.707031 156.574219 109.664062 155.390625 111.683594 154.648438 C 114.726562 153.523438 118.035156 154.972656 119.214844 157.960938 C 120.410156 160.988281 123.5625 166.824219 131.277344 172.015625 C 141.351562 178.808594 149.339844 187.625 154.367188 197.527344 C 164.171875 216.890625 171.046875 247.964844 148.085938 286.082031 C 147.765625 286.597656 120.636719 328.613281 82.226562 328.699219 " fill-opacity="1" fill-rule="nonzero"/></g><g clip-path="url(#f79c837a9c)"><path fill="#100f0d" d="M 66.75 303.484375 C 56.601562 303.507812 47.21875 300.792969 38.75 295.375 C 36.136719 293.714844 34.523438 290.855469 34.441406 287.746094 C 34.359375 284.648438 35.800781 281.726562 38.296875 279.933594 C 38.308594 279.921875 38.535156 279.765625 38.550781 279.753906 C 40.53125 278.367188 42.703125 277.46875 44.566406 276.765625 C 84.253906 261.851562 108.554688 237.84375 116.769531 205.421875 C 117.125 204.007812 118.558594 203.148438 119.96875 203.507812 C 121.378906 203.867188 122.226562 205.300781 121.867188 206.710938 C 113.199219 240.917969 87.8125 266.144531 46.417969 281.703125 C 44.863281 282.289062 43.0625 283.03125 41.558594 284.085938 L 39.828125 282.074219 L 41.367188 284.214844 C 40.28125 285.003906 39.671875 286.238281 39.707031 287.601562 C 39.742188 288.976562 40.421875 290.195312 41.582031 290.9375 C 52.484375 297.910156 65.128906 299.871094 79.15625 296.785156 C 80.566406 296.476562 81.976562 297.371094 82.285156 298.796875 C 82.597656 300.21875 81.699219 301.628906 80.28125 301.941406 C 75.636719 302.957031 71.121094 303.472656 66.75 303.484375 " fill-opacity="1" fill-rule="nonzero"/></g></svg>