<svg xmlns="http://www.w3.org/2000/svg" xmlns:xlink="http://www.w3.org/1999/xlink" width="500" zoomAndPan="magnify" viewBox="0 0 375 374.999991" height="500" preserveAspectRatio="xMidYMid meet" version="1.0"><defs><clipPath id="ae45d3e600"><path d="M 197 207 L 321.578125 207 L 321.578125 311 L 197 311 Z M 197 207 " clip-rule="nonzero"/></clipPath><clipPath id="8603fb5ee7"><path d="M 75 158 L 167 158 L 167 311.332031 L 75 311.332031 Z M 75 158 " clip-rule="nonzero"/></clipPath><clipPath id="3dba06314e"><path d="M 53.078125 201 L 130 201 L 130 290 L 53.078125 290 Z M 53.078125 201 " clip-rule="nonzero"/></clipPath></defs><g clip-path="url(#ae45d3e600)"><path fill="#ffffff" d="M 203.246094 288.238281 C 219.789062 300.070312 239.246094 306.289062 259.691406 306.25 C 280.136719 306.207031 299.574219 299.914062 316.0625 288.015625 L 259.515625 213.234375 Z M 259.703125 310.875 C 237.476562 310.914062 216.347656 303.898438 198.609375 290.566406 C 197.59375 289.800781 197.382812 288.351562 198.148438 287.335938 L 257.65625 208 C 258.527344 206.847656 260.480469 206.835938 261.347656 208 L 321.164062 287.09375 C 321.9375 288.109375 321.738281 289.558594 320.722656 290.335938 C 303.035156 303.730469 281.929688 310.832031 259.703125 310.875 " fill-opacity="1" fill-rule="nonzero"/></g><path fill="#ffffff" d="M 259.683594 298.644531 C 240.128906 298.683594 221.539062 292.507812 205.953125 280.789062 C 204.925781 280.023438 204.726562 278.574219 205.492188 277.558594 C 206.257812 276.53125 207.703125 276.332031 208.734375 277.097656 C 223.511719 288.207031 241.125 294.058594 259.671875 294.015625 C 278.238281 293.984375 295.839844 288.046875 310.597656 276.867188 C 311.605469 276.089844 313.0625 276.289062 313.828125 277.308594 C 314.605469 278.324219 314.40625 279.773438 313.390625 280.546875 C 297.832031 292.347656 279.253906 298.601562 259.683594 298.644531 " fill-opacity="1" fill-rule="nonzero"/><path fill="#ffffff" d="M 235.230469 262.683594 C 233.625 262.695312 232.3125 264.003906 232.324219 265.609375 C 232.324219 267.226562 233.636719 268.527344 235.242188 268.527344 C 236.855469 268.515625 238.15625 267.214844 238.15625 265.601562 C 238.15625 263.996094 236.84375 262.683594 235.230469 262.683594 " fill-opacity="1" fill-rule="nonzero"/><path fill="#ffffff" d="M 248.511719 274.988281 C 246.90625 274.988281 245.59375 276.300781 245.59375 277.90625 C 245.605469 279.519531 246.914062 280.820312 248.519531 280.820312 C 250.125 280.820312 251.4375 279.507812 251.4375 277.894531 C 251.4375 276.289062 250.113281 274.976562 248.511719 274.988281 " fill-opacity="1" fill-rule="nonzero"/><path fill="#ffffff" d="M 259.609375 262.035156 C 258.003906 262.035156 256.691406 263.34375 256.691406 264.960938 C 256.703125 266.566406 258.015625 267.875 259.617188 267.875 C 261.234375 267.867188 262.535156 266.554688 262.535156 264.949219 C 262.523438 263.335938 261.222656 262.035156 259.609375 262.035156 " fill-opacity="1" fill-rule="nonzero"/><path fill="#ffffff" d="M 272.886719 274.328125 C 271.273438 274.339844 269.972656 275.648438 269.972656 277.253906 C 269.984375 278.871094 271.292969 280.171875 272.898438 280.171875 C 274.503906 280.171875 275.816406 278.847656 275.816406 277.242188 C 275.804688 275.640625 274.492188 274.328125 272.886719 274.328125 " fill-opacity="1" fill-rule="nonzero"/><path fill="#ffffff" d="M 283.988281 261.382812 C 282.371094 261.382812 281.070312 262.695312 281.070312 264.300781 C 281.070312 265.914062 282.390625 267.226562 283.996094 267.214844 C 285.601562 267.214844 286.914062 265.90625 286.914062 264.289062 C 286.902344 262.683594 285.589844 261.382812 283.988281 261.382812 " fill-opacity="1" fill-rule="nonzero"/><path fill="#ffffff" d="M 248.46875 252.875 C 250.074219 252.875 251.382812 251.566406 251.382812 249.949219 C 251.382812 248.34375 250.0625 247.03125 248.457031 247.03125 C 246.851562 247.042969 245.542969 248.355469 245.542969 249.960938 C 245.542969 251.574219 246.863281 252.875 248.46875 252.875 " fill-opacity="1" fill-rule="nonzero"/><path fill="#ffffff" d="M 272.847656 252.226562 C 274.453125 252.214844 275.761719 250.902344 275.753906 249.300781 C 275.753906 247.683594 274.441406 246.382812 272.835938 246.382812 C 271.21875 246.394531 269.917969 247.703125 269.917969 249.308594 C 269.917969 250.914062 271.230469 252.226562 272.847656 252.226562 " fill-opacity="1" fill-rule="nonzero"/><path fill="#ffffff" d="M 259.566406 237.929688 C 261.171875 237.929688 262.484375 236.617188 262.472656 235 C 262.472656 233.394531 261.160156 232.085938 259.554688 232.09375 C 257.941406 232.09375 256.628906 233.40625 256.640625 235.023438 C 256.640625 236.628906 257.949219 237.929688 259.566406 237.929688 " fill-opacity="1" fill-rule="nonzero"/><path fill="#ffffff" d="M 255.726562 200.667969 C 254.855469 200.667969 254.015625 200.175781 253.617188 199.335938 C 242.238281 174.980469 218.300781 157.996094 195.398438 158.039062 C 180.367188 158.070312 163.972656 165.820312 151.519531 178.785156 C 150.640625 179.710938 149.183594 179.742188 148.257812 178.847656 C 147.335938 177.96875 147.304688 176.511719 148.1875 175.585938 C 161.488281 161.730469 179.128906 153.441406 195.390625 153.410156 C 220.03125 153.371094 245.699219 171.445312 257.816406 197.386719 C 258.347656 198.539062 257.855469 199.914062 256.691406 200.457031 C 256.378906 200.605469 256.050781 200.667969 255.726562 200.667969 " fill-opacity="1" fill-rule="nonzero"/><path fill="#ffffff" d="M 195.695312 311 C 175.910156 311.042969 159.042969 304.359375 146.917969 291.710938 C 146.035156 290.785156 146.066406 289.316406 146.988281 288.4375 C 147.902344 287.554688 149.371094 287.585938 150.253906 288.511719 C 161.644531 300.394531 176.929688 306.40625 195.683594 306.375 C 202.355469 306.363281 208.753906 305.503906 214.703125 303.8125 C 215.929688 303.46875 217.207031 304.171875 217.566406 305.410156 C 217.910156 306.636719 217.199219 307.914062 215.972656 308.261719 C 209.601562 310.066406 202.785156 310.988281 195.695312 311 " fill-opacity="1" fill-rule="nonzero"/><path fill="#ffffff" d="M 177.996094 108.097656 C 177.945312 108.097656 177.882812 108.097656 177.828125 108.097656 C 176.5625 108 175.59375 106.898438 175.691406 105.628906 C 176.695312 90.914062 182.65625 77.203125 193.386719 64.878906 C 194.226562 63.914062 195.683594 63.820312 196.648438 64.65625 C 197.613281 65.496094 197.707031 66.953125 196.867188 67.917969 C 186.820312 79.46875 181.238281 92.257812 180.296875 105.945312 C 180.210938 107.164062 179.203125 108.097656 177.996094 108.097656 " fill-opacity="1" fill-rule="nonzero"/><path fill="#ffffff" d="M 181.5 136.070312 C 181.429688 136.070312 181.355469 136.070312 181.28125 136.0625 C 180.011719 135.945312 179.078125 134.824219 179.195312 133.542969 C 180.042969 124.46875 184.921875 116.046875 193.710938 108.527344 C 194.675781 107.695312 196.144531 107.8125 196.972656 108.789062 C 197.800781 109.753906 197.6875 111.210938 196.710938 112.039062 C 188.875 118.753906 184.53125 126.136719 183.796875 133.984375 C 183.683594 135.179688 182.6875 136.070312 181.5 136.070312 " fill-opacity="1" fill-rule="nonzero"/><path fill="#ffffff" d="M 164.96875 167.3125 C 163.773438 167.320312 162.757812 166.398438 162.660156 165.191406 C 162.546875 163.871094 159.597656 133.007812 126.261719 126.957031 C 125.296875 126.777344 124.550781 126.011719 124.382812 125.058594 C 124.226562 124.09375 124.6875 123.128906 125.546875 122.65625 C 126.441406 122.164062 147.777344 110.601562 171.167969 126.367188 C 172.226562 127.082031 172.5 128.519531 171.789062 129.578125 C 171.074219 130.636719 169.636719 130.921875 168.578125 130.207031 C 154.921875 121 141.921875 122.214844 134.402344 124.230469 C 164.433594 133.921875 167.246094 164.488281 167.265625 164.8125 C 167.371094 166.09375 166.417969 167.207031 165.148438 167.3125 C 165.085938 167.3125 165.023438 167.3125 164.96875 167.3125 " fill-opacity="1" fill-rule="nonzero"/><path fill="#ffffff" d="M 153.988281 123.199219 C 153 123.199219 152.089844 122.570312 151.773438 121.585938 C 148.1875 110.308594 133.425781 103.804688 133.28125 103.742188 C 132.386719 103.34375 131.832031 102.441406 131.894531 101.457031 C 131.957031 100.480469 132.628906 99.652344 133.574219 99.390625 C 152.464844 94.058594 167.046875 103.753906 167.65625 104.164062 C 168.714844 104.886719 168.988281 106.324219 168.273438 107.371094 C 167.558594 108.429688 166.125 108.703125 165.0625 107.992188 C 164.949219 107.917969 154.722656 101.183594 140.949219 102.652344 C 146.214844 105.976562 153.535156 111.882812 156.1875 120.179688 C 156.566406 121.398438 155.894531 122.699219 154.679688 123.085938 C 154.449219 123.160156 154.21875 123.199219 153.988281 123.199219 " fill-opacity="1" fill-rule="nonzero"/><path fill="#ffffff" d="M 155.800781 103.890625 C 154.722656 103.890625 153.753906 103.132812 153.535156 102.03125 C 151.207031 90.453125 140.738281 84.460938 140.632812 84.398438 C 139.785156 83.925781 139.320312 82.972656 139.480469 82.007812 C 139.636719 81.054688 140.382812 80.289062 141.335938 80.109375 C 166.699219 75.378906 181.859375 88.386719 182.496094 88.941406 C 183.453125 89.792969 183.546875 91.25 182.707031 92.203125 C 181.867188 93.167969 180.398438 93.261719 179.445312 92.425781 C 179.265625 92.265625 167.414062 82.257812 147.714844 83.90625 C 151.511719 87.253906 156.429688 92.96875 158.066406 101.121094 C 158.320312 102.367188 157.511719 103.59375 156.253906 103.835938 C 156.105469 103.867188 155.949219 103.890625 155.800781 103.890625 " fill-opacity="1" fill-rule="nonzero"/><path fill="#ffffff" d="M 212.414062 108.03125 C 211.21875 108.03125 210.203125 107.109375 210.105469 105.882812 C 209.109375 92.203125 203.488281 79.4375 193.386719 67.917969 C 192.546875 66.964844 192.640625 65.507812 193.605469 64.65625 C 194.5625 63.820312 196.019531 63.914062 196.867188 64.867188 C 207.640625 77.152344 213.652344 90.839844 214.722656 105.546875 C 214.816406 106.828125 213.863281 107.9375 212.582031 108.023438 C 212.53125 108.03125 212.476562 108.03125 212.414062 108.03125 " fill-opacity="1" fill-rule="nonzero"/><path fill="#ffffff" d="M 209.027344 136.019531 C 207.839844 136.019531 206.835938 135.128906 206.71875 133.933594 C 205.953125 126.097656 201.578125 118.734375 193.710938 112.050781 C 192.746094 111.222656 192.621094 109.765625 193.449219 108.789062 C 194.277344 107.8125 195.734375 107.695312 196.710938 108.527344 C 205.523438 116.015625 210.441406 124.40625 211.324219 133.492188 C 211.449219 134.761719 210.515625 135.882812 209.246094 136.007812 C 209.164062 136.019531 209.101562 136.019531 209.027344 136.019531 " fill-opacity="1" fill-rule="nonzero"/><path fill="#ffffff" d="M 225.683594 167.195312 C 225.621094 167.195312 225.558594 167.195312 225.496094 167.195312 C 224.226562 167.089844 223.273438 165.976562 223.367188 164.710938 C 223.398438 164.382812 226.09375 133.742188 256.167969 123.957031 C 248.6875 121.933594 235.710938 120.726562 221.917969 130.101562 C 220.871094 130.828125 219.433594 130.542969 218.707031 129.484375 C 217.996094 128.433594 218.269531 127 219.328125 126.273438 C 242.65625 110.414062 264.023438 121.890625 264.925781 122.382812 C 265.785156 122.855469 266.25 123.820312 266.089844 124.773438 C 265.933594 125.738281 265.1875 126.503906 264.234375 126.683594 C 230.917969 132.871094 228.085938 163.753906 227.980469 165.066406 C 227.886719 166.273438 226.871094 167.195312 225.683594 167.195312 " fill-opacity="1" fill-rule="nonzero"/><path fill="#ffffff" d="M 236.488281 123.042969 C 236.257812 123.042969 236.027344 123 235.785156 122.929688 C 234.570312 122.550781 233.898438 121.25 234.277344 120.035156 C 236.898438 111.714844 244.1875 105.789062 249.453125 102.441406 C 235.660156 101.015625 225.464844 107.800781 225.347656 107.875 C 224.300781 108.597656 222.863281 108.316406 222.140625 107.265625 C 221.425781 106.207031 221.6875 104.78125 222.746094 104.058594 C 223.355469 103.636719 237.90625 93.894531 256.808594 99.148438 C 257.75 99.410156 258.421875 100.238281 258.496094 101.214844 C 258.570312 102.191406 258.015625 103.101562 257.121094 103.5 C 256.976562 103.5625 242.226562 110.164062 238.691406 121.417969 C 238.378906 122.402344 237.476562 123.035156 236.488281 123.042969 " fill-opacity="1" fill-rule="nonzero"/><path fill="#ffffff" d="M 234.601562 103.730469 C 234.453125 103.730469 234.296875 103.722656 234.140625 103.691406 C 232.890625 103.449219 232.074219 102.230469 232.324219 100.972656 C 233.929688 92.824219 238.816406 87.085938 242.613281 83.726562 C 222.839844 82.132812 211.039062 92.246094 210.914062 92.359375 C 209.949219 93.199219 208.492188 93.105469 207.652344 92.152344 C 206.800781 91.195312 206.898438 89.738281 207.851562 88.898438 C 208.480469 88.332031 223.597656 75.261719 248.972656 79.910156 C 249.925781 80.078125 250.671875 80.832031 250.828125 81.796875 C 250.996094 82.753906 250.535156 83.707031 249.695312 84.191406 C 249.589844 84.253906 239.132812 90.347656 236.855469 101.863281 C 236.644531 102.964844 235.679688 103.730469 234.601562 103.730469 " fill-opacity="1" fill-rule="nonzero"/><g clip-path="url(#8603fb5ee7)"><path fill="#ffffff" d="M 122.78125 162.820312 C 122.707031 162.820312 122.632812 162.84375 122.558594 162.863281 C 121.300781 163.335938 120.03125 164.089844 118.804688 165.140625 C 118.679688 165.246094 118.613281 165.378906 118.605469 165.546875 C 118.605469 165.652344 118.636719 165.84375 118.824219 166.019531 C 126.019531 172.460938 127.867188 179.089844 128.140625 183.515625 C 128.433594 188.175781 128.8125 192.277344 129.28125 196.054688 C 136.824219 255.625 93.460938 288.886719 84.691406 294.949219 C 83.203125 295.980469 81.941406 297.121094 80.957031 298.339844 L 80.808594 298.515625 C 80.003906 299.546875 79.761719 300.867188 80.167969 302.148438 C 80.578125 303.425781 81.554688 304.390625 82.835938 304.769531 C 87.03125 306.007812 91.121094 306.550781 95.066406 306.542969 C 126.273438 306.488281 148.761719 271.757812 149.015625 271.371094 C 168.054688 239.796875 162.421875 214.167969 154.332031 198.234375 C 150.273438 190.25 143.789062 183.117188 135.585938 177.601562 C 127.773438 172.347656 124.519531 166.28125 123.273438 163.144531 C 123.1875 162.945312 123 162.820312 122.78125 162.820312 Z M 95.074219 311.179688 C 90.710938 311.1875 86.191406 310.582031 81.523438 309.195312 C 78.785156 308.386719 76.636719 306.28125 75.765625 303.542969 C 74.894531 300.824219 75.429688 297.878906 77.179688 295.652344 L 77.347656 295.433594 C 78.628906 293.871094 80.203125 292.421875 82.058594 291.144531 C 90.4375 285.351562 131.894531 253.546875 124.699219 196.640625 C 124.207031 192.757812 123.816406 188.5625 123.523438 183.800781 C 123.304688 180.246094 121.773438 174.863281 115.742188 169.460938 C 114.597656 168.445312 113.957031 166.996094 113.976562 165.484375 C 114 163.996094 114.671875 162.578125 115.8125 161.613281 C 117.460938 160.21875 119.179688 159.179688 120.953125 158.53125 C 123.628906 157.542969 126.535156 158.8125 127.574219 161.4375 C 128.621094 164.089844 131.390625 169.210938 138.167969 173.761719 C 147.019531 179.71875 154.039062 187.449219 158.457031 196.136719 C 167.066406 213.121094 173.109375 240.371094 152.9375 273.804688 C 152.65625 274.253906 128.820312 311.105469 95.074219 311.179688 " fill-opacity="1" fill-rule="nonzero"/></g><g clip-path="url(#3dba06314e)"><path fill="#ffffff" d="M 81.480469 289.066406 C 72.566406 289.085938 64.320312 286.707031 56.882812 281.953125 C 54.585938 280.496094 53.167969 277.988281 53.097656 275.261719 C 53.023438 272.542969 54.292969 269.984375 56.484375 268.410156 C 56.496094 268.402344 56.695312 268.265625 56.703125 268.253906 C 58.445312 267.039062 60.355469 266.25 61.992188 265.632812 C 96.859375 252.550781 118.207031 231.496094 125.421875 203.058594 C 125.738281 201.820312 126.996094 201.066406 128.234375 201.382812 C 129.472656 201.695312 130.214844 202.953125 129.902344 204.191406 C 122.285156 234.195312 99.984375 256.316406 63.617188 269.964844 C 62.253906 270.476562 60.667969 271.128906 59.347656 272.050781 L 57.828125 270.289062 L 59.179688 272.167969 C 58.226562 272.859375 57.691406 273.941406 57.722656 275.136719 C 57.753906 276.339844 58.351562 277.410156 59.367188 278.0625 C 68.945312 284.175781 80.054688 285.898438 92.378906 283.191406 C 93.617188 282.917969 94.855469 283.707031 95.128906 284.953125 C 95.402344 286.203125 94.613281 287.441406 93.367188 287.710938 C 89.285156 288.605469 85.320312 289.054688 81.480469 289.066406 " fill-opacity="1" fill-rule="nonzero"/></g></svg>