<svg xmlns="http://www.w3.org/2000/svg" xmlns:xlink="http://www.w3.org/1999/xlink" width="500" zoomAndPan="magnify" viewBox="0 0 375 374.999991" height="500" preserveAspectRatio="xMidYMid meet" version="1.0"><defs><clipPath id="a8dcf27c91"><path d="M 64.308594 64.464844 L 311 64.464844 L 311 310.464844 L 64.308594 310.464844 Z M 64.308594 64.464844 " clip-rule="nonzero"/></clipPath></defs><g clip-path="url(#a8dcf27c91)"><path fill="#ffffff" d="M 265.121094 64.527344 L 109.519531 64.527344 C 84.542969 64.527344 64.222656 84.847656 64.222656 109.824219 L 64.222656 265.421875 C 64.222656 290.398438 84.542969 310.71875 109.519531 310.71875 L 265.121094 310.71875 C 290.097656 310.71875 310.417969 290.398438 310.417969 265.421875 L 310.417969 109.824219 C 310.417969 84.84375 290.097656 64.527344 265.121094 64.527344 Z M 298.175781 265.417969 C 298.175781 283.644531 283.347656 298.472656 265.121094 298.472656 L 109.519531 298.472656 C 91.292969 298.472656 76.464844 283.644531 76.464844 265.417969 L 76.464844 109.824219 C 76.464844 91.597656 91.292969 76.769531 109.519531 76.769531 L 265.121094 76.769531 C 283.347656 76.769531 298.175781 91.597656 298.175781 109.824219 Z M 298.175781 265.417969 " fill-opacity="1" fill-rule="nonzero"/></g><path fill="#ffffff" d="M 243.167969 106.890625 C 231.734375 106.890625 222.433594 116.191406 222.433594 127.621094 C 222.433594 129.101562 222.59375 130.542969 222.894531 131.9375 C 212.617188 125.347656 200.414062 121.503906 187.320312 121.503906 C 150.867188 121.507812 121.210938 151.167969 121.210938 187.621094 C 121.210938 224.074219 150.867188 253.734375 187.320312 253.734375 C 223.777344 253.734375 253.4375 224.074219 253.4375 187.621094 C 253.4375 172.832031 248.554688 159.164062 240.320312 148.136719 C 241.253906 148.265625 242.203125 148.355469 243.171875 148.355469 C 254.605469 148.355469 263.90625 139.058594 263.90625 127.625 C 263.90625 116.195312 254.605469 106.890625 243.167969 106.890625 Z M 187.320312 241.492188 C 157.617188 241.492188 133.453125 217.324219 133.453125 187.621094 C 133.453125 157.917969 157.617188 133.75 187.320312 133.746094 C 217.027344 133.75 241.195312 157.917969 241.195312 187.621094 C 241.195312 217.324219 217.027344 241.492188 187.320312 241.492188 Z M 243.167969 136.113281 C 238.488281 136.113281 234.675781 132.304688 234.675781 127.621094 C 234.675781 122.941406 238.488281 119.132812 243.167969 119.132812 C 247.851562 119.132812 251.664062 122.945312 251.664062 127.625 C 251.664062 132.304688 247.851562 136.113281 243.167969 136.113281 Z M 243.167969 136.113281 " fill-opacity="1" fill-rule="nonzero"/></svg>