<svg xmlns="http://www.w3.org/2000/svg" xmlns:xlink="http://www.w3.org/1999/xlink" width="500" zoomAndPan="magnify" viewBox="0 0 375 374.999991" height="500" preserveAspectRatio="xMidYMid meet" version="1.0"><defs><clipPath id="ebfb49a5d7"><path d="M 53.738281 37.5 L 331.238281 37.5 L 331.238281 335.25 L 53.738281 335.25 Z M 53.738281 37.5 " clip-rule="nonzero"/></clipPath></defs><g clip-path="url(#ebfb49a5d7)"><path fill="#100f0d" d="M 63.703125 151.636719 L 103.328125 151.636719 L 103.328125 161.5625 L 63.703125 161.5625 Z M 88.46875 106.976562 L 147.90625 106.976562 L 147.90625 141.710938 L 88.46875 141.710938 Z M 108.28125 47.425781 L 128.09375 47.425781 L 128.09375 72.238281 L 108.28125 72.238281 Z M 105.707031 82.164062 L 130.667969 82.164062 L 142.546875 97.050781 L 93.828125 97.050781 Z M 177.625 118.953125 L 189.585938 106.976562 L 215.203125 106.976562 L 237.066406 128.878906 L 237.066406 141.710938 L 177.625 141.710938 Z M 212.300781 87.125 L 212.300781 97.050781 L 192.488281 97.050781 L 192.488281 87.125 Z M 212.300781 47.425781 L 237.066406 47.425781 L 237.066406 59.929688 L 215.511719 77.199219 L 177.976562 77.199219 C 180.394531 60.394531 194.867188 47.425781 212.300781 47.425781 Z M 256.878906 57.351562 L 246.972656 57.351562 L 246.972656 47.425781 L 256.878906 47.425781 Z M 261.832031 161.5625 L 192.488281 161.5625 L 192.488281 151.636719 L 261.832031 151.636719 Z M 172.671875 151.636719 L 182.578125 151.636719 L 182.578125 186.375 C 182.578125 188.253906 183.644531 189.980469 185.308594 190.8125 L 215.066406 205.722656 C 216.515625 206.4375 217.601562 207.699219 218.105469 209.25 C 218.625 210.800781 218.492188 212.484375 217.640625 214.230469 C 216.1875 217.101562 212.726562 218.261719 209.863281 216.828125 L 189.757812 206.75 C 188.210938 205.992188 186.390625 206.070312 184.921875 206.960938 C 183.46875 207.871094 182.578125 209.460938 182.578125 211.1875 L 182.578125 260.8125 C 182.578125 266.277344 178.128906 270.738281 172.671875 270.738281 L 172.671875 226.074219 L 162.765625 226.074219 L 162.765625 270.738281 L 152.859375 270.738281 L 152.859375 226.074219 L 142.953125 226.074219 L 142.953125 270.738281 L 133.046875 270.738281 L 133.046875 226.074219 L 123.140625 226.074219 L 123.140625 270.738281 C 117.683594 270.738281 113.234375 266.277344 113.234375 260.8125 L 113.234375 151.636719 Z M 236.699219 245.925781 L 232.113281 245.925781 C 215.722656 245.925781 202.394531 259.28125 202.394531 275.699219 L 202.394531 305.476562 C 202.394531 308.964844 203.03125 312.296875 204.132812 315.398438 L 97.777344 315.398438 L 79.238281 171.488281 L 103.328125 171.488281 L 103.328125 260.8125 C 103.328125 271.765625 112.210938 280.664062 123.140625 280.664062 L 172.671875 280.664062 C 183.605469 280.664062 192.488281 271.765625 192.488281 260.8125 L 192.488281 219.210938 L 205.429688 225.707031 C 213.152344 229.582031 222.613281 226.425781 226.617188 218.417969 C 228.53125 214.558594 228.863281 210.199219 227.527344 206.128906 C 226.171875 202.058594 223.328125 198.761719 219.496094 196.84375 L 192.488281 183.3125 L 192.488281 171.488281 L 246.292969 171.488281 Z M 282.457031 258.503906 C 285.941406 256.761719 289.828125 255.851562 293.699219 255.851562 L 301.457031 255.851562 C 312.390625 255.851562 321.269531 264.746094 321.269531 275.699219 C 321.269531 286.652344 312.390625 295.550781 301.457031 295.550781 L 293.699219 295.550781 C 289.828125 295.550781 285.941406 294.640625 282.457031 292.894531 C 277.542969 290.433594 272.164062 289.210938 266.785156 289.210938 C 261.40625 289.210938 256.027344 290.433594 251.113281 292.894531 C 247.628906 294.640625 243.742188 295.550781 239.871094 295.550781 L 232.113281 295.550781 C 221.179688 295.550781 212.300781 286.652344 212.300781 275.699219 C 212.300781 264.746094 221.179688 255.851562 232.113281 255.851562 L 239.871094 255.851562 C 243.742188 255.851562 247.628906 256.761719 251.113281 258.503906 C 260.921875 263.429688 272.648438 263.429688 282.457031 258.503906 Z M 301.457031 325.324219 L 293.699219 325.324219 C 289.828125 325.324219 285.941406 324.394531 282.457031 322.667969 C 277.542969 320.207031 272.164062 318.984375 266.785156 318.984375 C 261.40625 318.984375 256.027344 320.207031 251.113281 322.667969 C 247.628906 324.394531 243.742188 325.324219 239.871094 325.324219 L 232.113281 325.324219 C 221.179688 325.324219 212.300781 316.425781 212.300781 305.476562 L 212.300781 297.835938 C 217.5625 302.566406 224.488281 305.476562 232.113281 305.476562 L 239.871094 305.476562 C 245.289062 305.476562 250.707031 304.195312 255.542969 301.773438 C 262.585938 298.246094 270.984375 298.246094 278.027344 301.773438 C 282.863281 304.195312 288.28125 305.476562 293.699219 305.476562 L 301.457031 305.476562 C 309.082031 305.476562 316.007812 302.566406 321.269531 297.835938 L 321.269531 305.476562 C 321.269531 316.425781 312.390625 325.324219 301.457031 325.324219 Z M 58.75 171.488281 L 69.257812 171.488281 L 88.507812 321.003906 C 88.835938 323.464844 90.925781 325.324219 93.421875 325.324219 L 210.015625 325.324219 C 215.472656 331.390625 223.347656 335.25 232.113281 335.25 L 239.871094 335.25 C 245.289062 335.25 250.707031 333.96875 255.542969 331.546875 C 262.585938 328.019531 270.984375 328.019531 278.027344 331.546875 C 282.863281 333.96875 288.28125 335.25 293.699219 335.25 L 301.457031 335.25 C 317.84375 335.25 331.175781 321.894531 331.175781 305.476562 L 331.175781 275.699219 C 331.175781 259.28125 317.84375 245.925781 301.457031 245.925781 L 293.699219 245.925781 C 288.28125 245.925781 282.863281 247.203125 278.027344 249.628906 C 270.984375 253.15625 262.585938 253.15625 255.542969 249.628906 C 252.71875 248.210938 249.699219 247.242188 246.605469 246.640625 L 256.277344 171.488281 L 266.785156 171.488281 C 269.511719 171.488281 271.738281 169.257812 271.738281 166.523438 L 271.738281 146.675781 C 271.738281 143.941406 269.511719 141.710938 266.785156 141.710938 L 246.972656 141.710938 L 246.972656 126.824219 C 246.972656 125.507812 246.449219 124.246094 245.519531 123.316406 L 222.207031 99.957031 L 222.207031 84.546875 L 229.714844 78.539062 L 242.539062 104.242188 L 251.402344 99.785156 L 237.625 72.179688 L 243.761719 67.273438 L 261.832031 67.273438 C 264.558594 67.273438 266.785156 65.046875 266.785156 62.3125 L 266.785156 42.460938 C 266.785156 39.730469 264.558594 37.5 261.832031 37.5 L 212.300781 37.5 C 187.726562 37.5 167.71875 57.542969 167.71875 82.164062 C 167.71875 84.894531 169.945312 87.125 172.671875 87.125 L 182.578125 87.125 L 182.578125 99.957031 L 169.171875 113.390625 C 168.242188 114.320312 167.71875 115.582031 167.71875 116.898438 L 167.71875 141.710938 L 157.8125 141.710938 L 157.8125 102.011719 C 157.8125 101.390625 157.679688 100.792969 157.445312 100.230469 C 157.367188 100.015625 157.253906 99.859375 157.136719 99.667969 C 157 99.414062 156.90625 99.144531 156.730469 98.910156 L 138 75.457031 L 138 42.460938 C 138 39.730469 135.777344 37.5 133.046875 37.5 L 103.328125 37.5 C 100.601562 37.5 98.375 39.730469 98.375 42.460938 L 98.375 75.457031 L 79.644531 98.910156 C 79.472656 99.144531 79.375 99.414062 79.238281 99.667969 C 79.125 99.859375 79.007812 100.015625 78.929688 100.230469 C 78.699219 100.792969 78.5625 101.390625 78.5625 102.011719 L 78.5625 141.710938 L 58.75 141.710938 C 56.023438 141.710938 53.796875 143.941406 53.796875 146.675781 L 53.796875 166.523438 C 53.796875 169.257812 56.023438 171.488281 58.75 171.488281 " fill-opacity="1" fill-rule="nonzero"/></g><path fill="#100f0d" d="M 306.410156 265.773438 L 296.503906 265.773438 L 296.503906 275.699219 L 306.410156 275.699219 L 306.410156 265.773438 " fill-opacity="1" fill-rule="nonzero"/><path fill="#100f0d" d="M 256.878906 265.773438 L 246.972656 265.773438 L 246.972656 275.699219 L 256.878906 275.699219 L 256.878906 265.773438 " fill-opacity="1" fill-rule="nonzero"/><path fill="#100f0d" d="M 227.160156 280.664062 L 237.066406 280.664062 L 237.066406 270.738281 L 227.160156 270.738281 L 227.160156 280.664062 " fill-opacity="1" fill-rule="nonzero"/><path fill="#100f0d" d="M 286.597656 270.738281 L 276.691406 270.738281 L 276.691406 280.664062 L 286.597656 280.664062 L 286.597656 270.738281 " fill-opacity="1" fill-rule="nonzero"/></svg>