<svg xmlns="http://www.w3.org/2000/svg" xmlns:xlink="http://www.w3.org/1999/xlink" width="500" zoomAndPan="magnify" viewBox="0 0 375 374.999991" height="500" preserveAspectRatio="xMidYMid meet" version="1.0"><defs><clipPath id="0c559525ca"><path d="M 56.191406 46.875 L 318.691406 46.875 L 318.691406 328.125 L 56.191406 328.125 Z M 56.191406 46.875 " clip-rule="nonzero"/></clipPath></defs><g clip-path="url(#0c559525ca)"><path fill="#ffffff" d="M 65.625 154.6875 L 103.125 154.6875 L 103.125 164.0625 L 65.625 164.0625 Z M 89.0625 112.5 L 145.3125 112.5 L 145.3125 145.3125 L 89.0625 145.3125 Z M 107.8125 56.25 L 126.5625 56.25 L 126.5625 79.6875 L 107.8125 79.6875 Z M 105.378906 89.0625 L 128.996094 89.0625 L 140.242188 103.125 L 94.132812 103.125 Z M 173.4375 123.816406 L 184.753906 112.5 L 208.996094 112.5 L 229.6875 133.191406 L 229.6875 145.3125 L 173.4375 145.3125 Z M 206.25 93.75 L 206.25 103.125 L 187.5 103.125 L 187.5 93.75 Z M 206.25 56.25 L 229.6875 56.25 L 229.6875 68.058594 L 209.289062 84.375 L 173.765625 84.375 C 176.054688 68.5 189.753906 56.25 206.25 56.25 Z M 248.4375 65.625 L 239.0625 65.625 L 239.0625 56.25 L 248.4375 56.25 Z M 253.125 164.0625 L 187.5 164.0625 L 187.5 154.6875 L 253.125 154.6875 Z M 168.75 154.6875 L 178.125 154.6875 L 178.125 187.5 C 178.125 189.277344 179.132812 190.90625 180.707031 191.691406 L 208.867188 205.773438 C 210.242188 206.453125 211.265625 207.640625 211.742188 209.105469 C 212.238281 210.570312 212.109375 212.164062 211.304688 213.8125 C 209.929688 216.523438 206.652344 217.621094 203.941406 216.265625 L 184.917969 206.746094 C 183.453125 206.03125 181.730469 206.101562 180.339844 206.945312 C 178.96875 207.804688 178.125 209.308594 178.125 210.9375 L 178.125 257.8125 C 178.125 262.976562 173.914062 267.1875 168.75 267.1875 L 168.75 225 L 159.375 225 L 159.375 267.1875 L 150 267.1875 L 150 225 L 140.625 225 L 140.625 267.1875 L 131.25 267.1875 L 131.25 225 L 121.875 225 L 121.875 267.1875 C 116.710938 267.1875 112.5 262.976562 112.5 257.8125 L 112.5 154.6875 Z M 229.339844 243.75 L 225 243.75 C 209.492188 243.75 196.875 256.367188 196.875 271.875 L 196.875 300 C 196.875 303.296875 197.480469 306.445312 198.523438 309.375 L 97.871094 309.375 L 80.328125 173.4375 L 103.125 173.4375 L 103.125 257.8125 C 103.125 268.15625 111.53125 276.5625 121.875 276.5625 L 168.75 276.5625 C 179.09375 276.5625 187.5 268.15625 187.5 257.8125 L 187.5 218.519531 L 199.75 224.652344 C 207.054688 228.3125 216.007812 225.328125 219.800781 217.765625 C 221.613281 214.125 221.921875 210.003906 220.660156 206.160156 C 219.378906 202.3125 216.6875 199.199219 213.0625 197.386719 L 187.5 184.605469 L 187.5 173.4375 L 238.421875 173.4375 Z M 272.644531 255.632812 C 275.941406 253.984375 279.621094 253.125 283.28125 253.125 L 290.625 253.125 C 300.96875 253.125 309.375 261.53125 309.375 271.875 C 309.375 282.21875 300.96875 290.625 290.625 290.625 L 283.28125 290.625 C 279.621094 290.625 275.941406 289.765625 272.644531 288.117188 C 267.992188 285.789062 262.902344 284.636719 257.8125 284.636719 C 252.722656 284.636719 247.632812 285.789062 242.980469 288.117188 C 239.683594 289.765625 236.003906 290.625 232.34375 290.625 L 225 290.625 C 214.65625 290.625 206.25 282.21875 206.25 271.875 C 206.25 261.53125 214.65625 253.125 225 253.125 L 232.34375 253.125 C 236.003906 253.125 239.683594 253.984375 242.980469 255.632812 C 252.265625 260.285156 263.359375 260.285156 272.644531 255.632812 Z M 290.625 318.75 L 283.28125 318.75 C 279.621094 318.75 275.941406 317.871094 272.644531 316.242188 C 267.992188 313.914062 262.902344 312.761719 257.8125 312.761719 C 252.722656 312.761719 247.632812 313.914062 242.980469 316.242188 C 239.683594 317.871094 236.003906 318.75 232.34375 318.75 L 225 318.75 C 214.65625 318.75 206.25 310.34375 206.25 300 L 206.25 292.785156 C 211.230469 297.253906 217.785156 300 225 300 L 232.34375 300 C 237.46875 300 242.597656 298.792969 247.175781 296.503906 C 253.839844 293.171875 261.785156 293.171875 268.449219 296.503906 C 273.027344 298.792969 278.15625 300 283.28125 300 L 290.625 300 C 297.839844 300 304.394531 297.253906 309.375 292.785156 L 309.375 300 C 309.375 310.34375 300.96875 318.75 290.625 318.75 Z M 60.9375 173.4375 L 70.878906 173.4375 L 89.097656 314.667969 C 89.410156 316.992188 91.386719 318.75 93.75 318.75 L 204.089844 318.75 C 209.253906 324.480469 216.707031 328.125 225 328.125 L 232.34375 328.125 C 237.46875 328.125 242.597656 326.917969 247.175781 324.628906 C 253.839844 321.296875 261.785156 321.296875 268.449219 324.628906 C 273.027344 326.917969 278.15625 328.125 283.28125 328.125 L 290.625 328.125 C 306.132812 328.125 318.75 315.507812 318.75 300 L 318.75 271.875 C 318.75 256.367188 306.132812 243.75 290.625 243.75 L 283.28125 243.75 C 278.15625 243.75 273.027344 244.957031 268.449219 247.246094 C 261.785156 250.578125 253.839844 250.578125 247.175781 247.246094 C 244.5 245.910156 241.644531 244.996094 238.714844 244.425781 L 247.871094 173.4375 L 257.8125 173.4375 C 260.394531 173.4375 262.5 171.332031 262.5 168.75 L 262.5 150 C 262.5 147.417969 260.394531 145.3125 257.8125 145.3125 L 239.0625 145.3125 L 239.0625 131.25 C 239.0625 130.003906 238.566406 128.816406 237.6875 127.9375 L 215.625 105.871094 L 215.625 91.316406 L 222.730469 85.636719 L 234.871094 109.917969 L 243.253906 105.707031 L 230.21875 79.632812 L 236.023438 75 L 253.125 75 C 255.707031 75 257.8125 72.894531 257.8125 70.3125 L 257.8125 51.5625 C 257.8125 48.980469 255.707031 46.875 253.125 46.875 L 206.25 46.875 C 182.996094 46.875 164.0625 65.808594 164.0625 89.0625 C 164.0625 91.644531 166.167969 93.75 168.75 93.75 L 178.125 93.75 L 178.125 105.871094 L 165.4375 118.5625 C 164.558594 119.441406 164.0625 120.628906 164.0625 121.875 L 164.0625 145.3125 L 154.6875 145.3125 L 154.6875 107.8125 C 154.6875 107.226562 154.558594 106.660156 154.339844 106.128906 C 154.265625 105.925781 154.15625 105.78125 154.046875 105.597656 C 153.917969 105.359375 153.828125 105.101562 153.660156 104.882812 L 135.9375 82.726562 L 135.9375 51.5625 C 135.9375 48.980469 133.832031 46.875 131.25 46.875 L 103.125 46.875 C 100.542969 46.875 98.4375 48.980469 98.4375 51.5625 L 98.4375 82.726562 L 80.710938 104.882812 C 80.546875 105.101562 80.457031 105.359375 80.328125 105.597656 C 80.21875 105.78125 80.109375 105.925781 80.035156 106.128906 C 79.816406 106.660156 79.6875 107.226562 79.6875 107.8125 L 79.6875 145.3125 L 60.9375 145.3125 C 58.355469 145.3125 56.25 147.417969 56.25 150 L 56.25 168.75 C 56.25 171.332031 58.355469 173.4375 60.9375 173.4375 " fill-opacity="1" fill-rule="nonzero"/></g><path fill="#ffffff" d="M 295.3125 262.5 L 285.9375 262.5 L 285.9375 271.875 L 295.3125 271.875 L 295.3125 262.5 " fill-opacity="1" fill-rule="nonzero"/><path fill="#ffffff" d="M 248.4375 262.5 L 239.0625 262.5 L 239.0625 271.875 L 248.4375 271.875 L 248.4375 262.5 " fill-opacity="1" fill-rule="nonzero"/><path fill="#ffffff" d="M 220.3125 276.5625 L 229.6875 276.5625 L 229.6875 267.1875 L 220.3125 267.1875 L 220.3125 276.5625 " fill-opacity="1" fill-rule="nonzero"/><path fill="#ffffff" d="M 276.5625 267.1875 L 267.1875 267.1875 L 267.1875 276.5625 L 276.5625 276.5625 L 276.5625 267.1875 " fill-opacity="1" fill-rule="nonzero"/></svg>