<svg xmlns="http://www.w3.org/2000/svg" xmlns:xlink="http://www.w3.org/1999/xlink" width="50" zoomAndPan="magnify" viewBox="0 0 37.5 37.499999" height="50" preserveAspectRatio="xMidYMid meet" version="1.0"><defs><clipPath id="ff24301966"><path d="M 0 0 L 37.007812 0 L 37.007812 37.007812 L 0 37.007812 Z M 0 0 " clip-rule="nonzero"/></clipPath><clipPath id="6da0add665"><path d="M 7.34375 8.363281 L 29.546875 8.363281 L 29.546875 13 L 7.34375 13 Z M 7.34375 8.363281 " clip-rule="nonzero"/></clipPath><clipPath id="fc87e9b139"><path d="M 7.34375 16 L 29.546875 16 L 29.546875 21 L 7.34375 21 Z M 7.34375 16 " clip-rule="nonzero"/></clipPath><clipPath id="e663f57514"><path d="M 7.34375 24 L 29.546875 24 L 29.546875 28.347656 L 7.34375 28.347656 Z M 7.34375 24 " clip-rule="nonzero"/></clipPath></defs><g clip-path="url(#ff24301966)"><path fill="#ffffff" d="M 0 0 L 37.007812 0 L 37.007812 37.007812 L 0 37.007812 Z M 0 0 " fill-opacity="1" fill-rule="nonzero"/><path fill="#ffffff" d="M 0 0 L 37.007812 0 L 37.007812 37.007812 L 0 37.007812 Z M 0 0 " fill-opacity="1" fill-rule="nonzero"/></g><g clip-path="url(#6da0add665)"><path fill="#009b3e" d="M 9.375 12.417969 L 27.621094 12.417969 C 27.890625 12.417969 28.148438 12.367188 28.394531 12.261719 C 28.644531 12.160156 28.863281 12.011719 29.054688 11.824219 C 29.246094 11.632812 29.390625 11.414062 29.492188 11.164062 C 29.597656 10.917969 29.648438 10.660156 29.648438 10.390625 C 29.648438 10.121094 29.597656 9.863281 29.492188 9.613281 C 29.390625 9.367188 29.246094 9.144531 29.054688 8.957031 C 28.863281 8.765625 28.644531 8.621094 28.394531 8.515625 C 28.148438 8.414062 27.890625 8.363281 27.621094 8.363281 L 9.375 8.363281 C 9.105469 8.363281 8.847656 8.414062 8.597656 8.515625 C 8.351562 8.621094 8.132812 8.765625 7.941406 8.957031 C 7.75 9.144531 7.605469 9.367188 7.503906 9.613281 C 7.398438 9.863281 7.347656 10.121094 7.347656 10.390625 C 7.347656 10.660156 7.398438 10.917969 7.503906 11.164062 C 7.605469 11.414062 7.75 11.632812 7.941406 11.824219 C 8.132812 12.011719 8.351562 12.160156 8.597656 12.261719 C 8.847656 12.367188 9.105469 12.417969 9.375 12.417969 Z M 9.375 12.417969 " fill-opacity="1" fill-rule="nonzero"/></g><g clip-path="url(#fc87e9b139)"><path fill="#009b3e" d="M 27.621094 16.472656 L 9.375 16.472656 C 9.105469 16.472656 8.847656 16.523438 8.597656 16.625 C 8.351562 16.726562 8.132812 16.875 7.941406 17.066406 C 7.75 17.253906 7.605469 17.472656 7.503906 17.722656 C 7.398438 17.972656 7.347656 18.230469 7.347656 18.5 C 7.347656 18.765625 7.398438 19.027344 7.503906 19.273438 C 7.605469 19.523438 7.75 19.742188 7.941406 19.933594 C 8.132812 20.121094 8.351562 20.269531 8.597656 20.371094 C 8.847656 20.472656 9.105469 20.527344 9.375 20.527344 L 27.621094 20.527344 C 27.890625 20.527344 28.148438 20.472656 28.394531 20.371094 C 28.644531 20.269531 28.863281 20.121094 29.054688 19.933594 C 29.246094 19.742188 29.390625 19.523438 29.492188 19.273438 C 29.597656 19.027344 29.648438 18.765625 29.648438 18.5 C 29.648438 18.230469 29.597656 17.972656 29.492188 17.722656 C 29.390625 17.472656 29.246094 17.253906 29.054688 17.066406 C 28.863281 16.875 28.644531 16.726562 28.394531 16.625 C 28.148438 16.523438 27.890625 16.472656 27.621094 16.472656 Z M 27.621094 16.472656 " fill-opacity="1" fill-rule="nonzero"/></g><g clip-path="url(#e663f57514)"><path fill="#009b3e" d="M 27.621094 24.582031 L 9.375 24.582031 C 9.105469 24.582031 8.847656 24.632812 8.597656 24.734375 C 8.351562 24.835938 8.132812 24.984375 7.941406 25.175781 C 7.75 25.363281 7.605469 25.582031 7.503906 25.832031 C 7.398438 26.082031 7.347656 26.339844 7.347656 26.609375 C 7.347656 26.875 7.398438 27.136719 7.503906 27.382812 C 7.605469 27.632812 7.75 27.851562 7.941406 28.042969 C 8.132812 28.230469 8.351562 28.378906 8.597656 28.480469 C 8.847656 28.582031 9.105469 28.636719 9.375 28.636719 L 27.621094 28.636719 C 27.890625 28.636719 28.148438 28.582031 28.394531 28.480469 C 28.644531 28.378906 28.863281 28.230469 29.054688 28.042969 C 29.246094 27.851562 29.390625 27.632812 29.492188 27.382812 C 29.597656 27.136719 29.648438 26.875 29.648438 26.609375 C 29.648438 26.339844 29.597656 26.082031 29.492188 25.832031 C 29.390625 25.582031 29.246094 25.363281 29.054688 25.175781 C 28.863281 24.984375 28.644531 24.835938 28.394531 24.734375 C 28.148438 24.632812 27.890625 24.582031 27.621094 24.582031 Z M 27.621094 24.582031 " fill-opacity="1" fill-rule="nonzero"/></g><path stroke-linecap="butt" transform="matrix(0.740132, 0, 0, 0.740132, 12.582236, 18.133222)" fill="none" stroke-linejoin="miter" d="M -0.000277292 0.500835 L 16.001946 0.500835 " stroke="#009b3e" stroke-width="1" stroke-opacity="1" stroke-miterlimit="4"/></svg>