<svg width="152" height="147" viewBox="0 0 152 147" fill="none" xmlns="http://www.w3.org/2000/svg">
<g clip-path="url(#clip0_92_20)">
<path d="M167.2 -14.7002H-15.2V161.7H167.2V-14.7002Z" fill="white"/>
<path d="M167.2 -14.7002H-15.2V161.7H167.2V-14.7002Z" fill="#009B3E"/>
<mask id="mask0_92_20" style="mask-type:luminance" maskUnits="userSpaceOnUse" x="30" y="33" width="92" height="17">
<path d="M30.1641 33.2173H121.972V49.3919H30.1641V33.2173Z" fill="white"/>
</mask>
<g mask="url(#mask0_92_20)">
<path d="M38.5114 49.3291H113.487C113.759 49.3291 114.032 49.3168 114.304 49.2908C114.575 49.2648 114.844 49.2265 115.112 49.1744C115.379 49.1239 115.644 49.0596 115.905 48.983C116.166 48.9065 116.423 48.8177 116.674 48.7166C116.926 48.6155 117.173 48.5022 117.414 48.3782C117.654 48.2542 117.889 48.1179 118.115 47.9724C118.342 47.8254 118.56 47.6677 118.772 47.5008C118.983 47.3339 119.184 47.1563 119.377 46.9694C119.57 46.7842 119.754 46.5882 119.926 46.3845C120.099 46.1808 120.262 45.968 120.413 45.749C120.565 45.5301 120.705 45.3034 120.834 45.0707C120.962 44.8379 121.079 44.6006 121.184 44.3556C121.288 44.1121 121.38 43.8641 121.459 43.6114C121.538 43.3588 121.603 43.103 121.657 42.8443C121.711 42.5855 121.75 42.3252 121.777 42.0633C121.804 41.7999 121.817 41.5366 121.817 41.2732C121.817 41.0098 121.804 40.7464 121.777 40.4831C121.75 40.2212 121.711 39.9609 121.657 39.7021C121.603 39.4433 121.538 39.1876 121.459 38.935C121.38 38.6823 121.288 38.4343 121.184 38.1908C121.079 37.9458 120.962 37.7084 120.834 37.4757C120.705 37.2429 120.565 37.0163 120.414 36.7973C120.262 36.5784 120.099 36.3655 119.926 36.1619C119.754 35.9582 119.57 35.7622 119.377 35.5769C119.184 35.3901 118.983 35.2125 118.772 35.0456C118.56 34.8787 118.342 34.721 118.115 34.574C117.889 34.4285 117.654 34.2922 117.414 34.1682C117.173 34.0442 116.926 33.9308 116.674 33.8298C116.423 33.7287 116.166 33.6399 115.905 33.5633C115.644 33.4868 115.379 33.4225 115.112 33.3719C114.844 33.3199 114.575 33.2816 114.304 33.2556C114.032 33.2295 113.759 33.2173 113.487 33.2173H38.5114C38.2391 33.2173 37.9668 33.2295 37.696 33.2556C37.4237 33.2816 37.1545 33.3199 36.8869 33.3719C36.6194 33.4225 36.3549 33.4868 36.0937 33.5633C35.8324 33.6399 35.5759 33.7287 35.3242 33.8298C35.0724 33.9308 34.8254 34.0442 34.5848 34.1682C34.3441 34.2922 34.1098 34.4285 33.8834 34.574C33.6569 34.721 33.4384 34.8787 33.2263 35.0456C33.0157 35.2125 32.8146 35.3901 32.6214 35.5769C32.4283 35.7622 32.2446 35.9582 32.072 36.1619C31.8994 36.3655 31.7364 36.5784 31.5859 36.7973C31.4339 37.0163 31.293 37.2429 31.1648 37.4757C31.0365 37.7084 30.9194 37.9458 30.8149 38.1908C30.7104 38.4343 30.6185 38.6823 30.5394 38.935C30.4602 39.1876 30.3953 39.4433 30.3414 39.7021C30.2876 39.9609 30.248 40.2212 30.2211 40.4831C30.1942 40.7464 30.1815 41.0098 30.1815 41.2732C30.1815 41.5366 30.1942 41.7999 30.2211 42.0633C30.248 42.3252 30.2876 42.5855 30.3414 42.8443C30.3953 43.103 30.4602 43.3588 30.5394 43.6114C30.6185 43.8641 30.7104 44.1121 30.8149 44.3556C30.9194 44.6006 31.0365 44.8379 31.1648 45.0707C31.293 45.3034 31.4339 45.5301 31.5859 45.749C31.7364 45.968 31.8994 46.1808 32.072 46.3845C32.2446 46.5882 32.4283 46.7842 32.6214 46.9694C32.8146 47.1563 33.0157 47.3339 33.2263 47.5008C33.4384 47.6677 33.6569 47.8254 33.8834 47.9724C34.1098 48.1179 34.3441 48.2542 34.5848 48.3782C34.8254 48.5022 35.0724 48.6155 35.3242 48.7166C35.5759 48.8177 35.8324 48.9065 36.0937 48.983C36.3549 49.0596 36.6194 49.1239 36.8869 49.1744C37.1545 49.2265 37.4237 49.2648 37.696 49.2908C37.9668 49.3168 38.2391 49.3291 38.5114 49.3291Z" fill="white"/>
</g>
<mask id="mask1_92_20" style="mask-type:luminance" maskUnits="userSpaceOnUse" x="30" y="65" width="92" height="17">
<path d="M30.1641 65.0718H121.972V81.9278H30.1641V65.0718Z" fill="white"/>
</mask>
<g mask="url(#mask1_92_20)">
<path d="M113.487 65.4424H38.5114C38.2391 65.4424 37.9668 65.4562 37.696 65.4822C37.4237 65.5067 37.1545 65.5465 36.8869 65.597C36.6194 65.6491 36.3549 65.7134 36.0937 65.79C35.8324 65.8665 35.5759 65.9554 35.3242 66.0564C35.0724 66.1575 34.8254 66.2693 34.5848 66.3933C34.3441 66.5189 34.1098 66.6536 33.8834 66.8006C33.6569 66.9476 33.4384 67.1038 33.2263 67.2707C33.0157 67.4391 32.8146 67.6152 32.6214 67.802C32.4283 67.9889 32.2446 68.1849 32.072 68.3885C31.8994 68.5922 31.7364 68.8035 31.5859 69.024C31.4339 69.2429 31.293 69.468 31.1648 69.7008C31.0365 69.9335 30.9194 70.1724 30.8149 70.4159C30.7104 70.6594 30.6185 70.9074 30.5394 71.1601C30.4602 71.4127 30.3953 71.6684 30.3414 71.9272C30.2876 72.186 30.248 72.4463 30.2211 72.7097C30.1942 72.9715 30.1815 73.2349 30.1815 73.4998C30.1815 73.7632 30.1942 74.0266 30.2211 74.2884C30.248 74.5518 30.2876 74.8121 30.3414 75.0709C30.3953 75.3297 30.4602 75.5854 30.5394 75.838C30.6185 76.0907 30.7104 76.3388 30.8149 76.5822C30.9194 76.8257 31.0365 77.0646 31.1648 77.2973C31.293 77.5301 31.4339 77.7552 31.5859 77.9757C31.7364 78.1946 31.8994 78.4059 32.072 78.6096C32.2446 78.8148 32.4283 79.0093 32.6214 79.1961C32.8146 79.3829 33.0157 79.559 33.2263 79.7274C33.4384 79.8943 33.6569 80.052 33.8834 80.1975C34.1098 80.3445 34.3441 80.4808 34.5848 80.6048C34.8254 80.7289 35.0724 80.8422 35.3242 80.9432C35.5759 81.0428 35.8324 81.1316 36.0937 81.2081C36.3549 81.2847 36.6194 81.349 36.8869 81.4011C37.1545 81.4531 37.4237 81.4914 37.696 81.5174C37.9668 81.5435 38.2391 81.5557 38.5114 81.5557H113.487C113.759 81.5557 114.032 81.5435 114.304 81.5174C114.575 81.4914 114.844 81.4531 115.112 81.4011C115.379 81.349 115.644 81.2847 115.905 81.2081C116.166 81.1316 116.423 81.0428 116.674 80.9432C116.926 80.8422 117.173 80.7289 117.414 80.6048C117.654 80.4808 117.889 80.3445 118.115 80.1975C118.342 80.052 118.56 79.8943 118.772 79.7274C118.983 79.559 119.184 79.3829 119.377 79.1961C119.57 79.0093 119.754 78.8148 119.926 78.6096C120.099 78.4059 120.262 78.1946 120.413 77.9757C120.565 77.7552 120.705 77.5301 120.834 77.2973C120.962 77.0646 121.079 76.8257 121.184 76.5822C121.288 76.3388 121.38 76.0907 121.459 75.838C121.538 75.5854 121.603 75.3297 121.657 75.0709C121.711 74.8121 121.75 74.5518 121.777 74.2884C121.804 74.0266 121.817 73.7632 121.817 73.4998C121.817 73.2349 121.804 72.9715 121.777 72.7097C121.75 72.4463 121.711 72.186 121.657 71.9272C121.603 71.6684 121.538 71.4127 121.459 71.1601C121.38 70.9074 121.288 70.6594 121.184 70.4159C121.079 70.1724 120.962 69.9335 120.834 69.7008C120.705 69.468 120.565 69.2429 120.414 69.024C120.262 68.8035 120.099 68.5922 119.926 68.3885C119.754 68.1849 119.57 67.9889 119.377 67.802C119.184 67.6152 118.983 67.4391 118.772 67.2707C118.56 67.1038 118.342 66.9476 118.115 66.8006C117.889 66.6536 117.654 66.5189 117.414 66.3933C117.173 66.2693 116.926 66.1575 116.674 66.0564C116.423 65.9554 116.166 65.8665 115.905 65.79C115.644 65.7134 115.379 65.6491 115.112 65.597C114.844 65.5465 114.575 65.5067 114.304 65.4822C114.032 65.4562 113.759 65.4424 113.487 65.4424Z" fill="white"/>
</g>
<mask id="mask2_92_20" style="mask-type:luminance" maskUnits="userSpaceOnUse" x="30" y="97" width="92" height="17">
<path d="M30.1641 97.6079H121.972V113.773H30.1641V97.6079Z" fill="white"/>
</mask>
<g mask="url(#mask2_92_20)">
<path d="M113.487 97.6689H38.5114C38.2391 97.6689 37.9668 97.6812 37.696 97.7072C37.4237 97.7333 37.1545 97.7715 36.8869 97.8236C36.6194 97.8757 36.3549 97.9384 36.0937 98.015C35.8324 98.0916 35.5759 98.1804 35.3242 98.2814C35.0724 98.3825 34.8254 98.4958 34.5848 98.6199C34.3441 98.7439 34.1098 98.8802 33.8834 99.0272C33.6569 99.1726 33.4384 99.3304 33.2263 99.4973C33.0157 99.6642 32.8146 99.8418 32.6214 100.029C32.4283 100.215 32.2446 100.41 32.072 100.614C31.8994 100.819 31.7364 101.03 31.5859 101.249C31.4339 101.468 31.293 101.695 31.1648 101.927C31.0365 102.16 30.9194 102.399 30.8149 102.642C30.7104 102.886 30.6185 103.134 30.5394 103.387C30.4602 103.639 30.3953 103.895 30.3414 104.154C30.2876 104.413 30.248 104.673 30.2211 104.936C30.1942 105.198 30.1815 105.461 30.1815 105.725C30.1815 105.99 30.1942 106.252 30.2211 106.515C30.248 106.777 30.2876 107.039 30.3414 107.297C30.3953 107.556 30.4602 107.812 30.5394 108.065C30.6185 108.316 30.7104 108.564 30.8149 108.809C30.9194 109.052 31.0365 109.29 31.1648 109.522C31.293 109.755 31.4339 109.982 31.5859 110.201C31.7364 110.421 31.8994 110.633 32.072 110.836C32.2446 111.04 32.4283 111.236 32.6214 111.423C32.8146 111.608 33.0157 111.786 33.2263 111.952C33.4384 112.121 33.6569 112.277 33.8834 112.424C34.1098 112.571 34.3441 112.706 34.5848 112.83C34.8254 112.955 35.0724 113.067 35.3242 113.168C35.5759 113.269 35.8324 113.358 36.0937 113.435C36.3549 113.511 36.6194 113.576 36.8869 113.628C37.1545 113.678 37.4237 113.716 37.696 113.742C37.9668 113.769 38.2391 113.782 38.5114 113.782H113.487C113.759 113.782 114.032 113.769 114.304 113.742C114.575 113.716 114.844 113.678 115.112 113.628C115.379 113.576 115.644 113.511 115.905 113.435C116.166 113.358 116.423 113.269 116.674 113.168C116.926 113.067 117.173 112.955 117.414 112.83C117.654 112.706 117.889 112.571 118.115 112.424C118.342 112.277 118.56 112.121 118.772 111.952C118.983 111.786 119.184 111.608 119.377 111.423C119.57 111.236 119.754 111.04 119.926 110.836C120.099 110.633 120.262 110.421 120.413 110.201C120.565 109.982 120.705 109.755 120.834 109.522C120.962 109.29 121.079 109.052 121.184 108.809C121.288 108.564 121.38 108.316 121.459 108.065C121.538 107.812 121.603 107.556 121.657 107.297C121.711 107.039 121.75 106.777 121.777 106.515C121.804 106.252 121.817 105.99 121.817 105.725C121.817 105.461 121.804 105.198 121.777 104.936C121.75 104.673 121.711 104.413 121.657 104.154C121.603 103.895 121.538 103.639 121.459 103.387C121.38 103.134 121.288 102.886 121.184 102.642C121.079 102.399 120.962 102.16 120.834 101.927C120.705 101.695 120.565 101.468 120.414 101.249C120.262 101.03 120.099 100.819 119.926 100.614C119.754 100.41 119.57 100.215 119.377 100.029C119.184 99.8418 118.983 99.6642 118.772 99.4973C118.56 99.3304 118.342 99.1726 118.115 99.0272C117.889 98.8802 117.654 98.7439 117.414 98.6199C117.173 98.4958 116.926 98.3825 116.674 98.2814C116.423 98.1804 116.166 98.0916 115.905 98.015C115.644 97.9384 115.379 97.8757 115.112 97.8236C114.844 97.7715 114.575 97.7333 114.304 97.7072C114.032 97.6812 113.759 97.6689 113.487 97.6689Z" fill="white"/>
</g>
</g>
<defs>
<clipPath id="clip0_92_20">
<rect width="152" height="147" fill="white"/>
</clipPath>
</defs>
</svg>
