<svg xmlns="http://www.w3.org/2000/svg" xmlns:xlink="http://www.w3.org/1999/xlink" width="500" zoomAndPan="magnify" viewBox="0 0 375 374.999991" height="500" preserveAspectRatio="xMidYMid meet" version="1.0"><defs><clipPath id="e0d33199b9"><path d="M 34.671875 34 L 340.671875 34 L 340.671875 341 L 34.671875 341 Z M 34.671875 34 " clip-rule="nonzero"/></clipPath><clipPath id="51cf6de7fe"><path d="M 217 162 L 324 162 L 324 212.816406 L 217 212.816406 Z M 217 162 " clip-rule="nonzero"/></clipPath></defs><g clip-path="url(#e0d33199b9)"><path fill="#ffffff" d="M 216.789062 34.671875 L 325.835938 48.527344 C 333.753906 49.53125 340.320312 57.136719 340.320312 67.660156 L 340.320312 307.332031 C 340.320312 317.859375 333.753906 325.429688 325.835938 326.433594 L 216.789062 340.320312 C 200.546875 342.394531 194.109375 328.570312 194.109375 319.273438 L 194.109375 55.691406 C 194.109375 46.421875 200.546875 32.597656 216.789062 34.671875 Z M 116.792969 136.523438 L 116.792969 158.167969 C 116.792969 160.839844 118.960938 163.007812 121.597656 163.007812 L 169.886719 163.007812 C 172.554688 163.007812 174.722656 165.175781 174.722656 167.84375 L 174.722656 207.148438 C 174.722656 209.816406 172.554688 211.984375 169.886719 211.984375 L 121.597656 211.984375 C 118.960938 211.984375 116.792969 214.152344 116.792969 216.824219 L 116.792969 238.46875 C 116.792969 240.292969 115.816406 241.894531 114.183594 242.742188 C 112.519531 243.589844 110.667969 243.464844 109.15625 242.394531 L 36.710938 191.4375 C 35.394531 190.496094 34.671875 189.113281 34.671875 187.480469 C 34.671875 185.847656 35.394531 184.464844 36.710938 183.523438 L 109.15625 132.566406 C 110.667969 131.496094 112.519531 131.371094 114.183594 132.21875 C 115.816406 133.066406 116.792969 134.671875 116.792969 136.523438 Z M 129.421875 48.652344 L 175.570312 48.652344 C 176.953125 48.652344 178.148438 49.1875 179.089844 50.222656 C 180.03125 51.230469 180.441406 52.484375 180.316406 53.867188 C 180.253906 54.496094 180.253906 55.09375 180.253906 55.691406 L 180.253906 69.828125 C 180.253906 72.464844 178.085938 74.601562 175.476562 74.601562 L 138.5625 74.601562 C 136.050781 74.601562 133.976562 76.707031 133.976562 79.25 L 133.976562 124.207031 C 133.976562 125.277344 133.347656 126.15625 132.375 126.46875 C 131.402344 126.816406 130.332031 126.5 129.703125 125.683594 C 128.164062 123.675781 126.152344 121.976562 123.796875 120.753906 C 118.675781 118.113281 112.675781 118.113281 107.648438 120.691406 L 107.648438 70.832031 C 107.648438 58.644531 117.453125 48.652344 129.421875 48.652344 Z M 133.976562 250.753906 L 133.976562 295.710938 C 133.976562 298.285156 136.050781 300.359375 138.5625 300.359375 L 175.476562 300.359375 C 178.085938 300.359375 180.253906 302.496094 180.253906 305.132812 L 180.253906 319.273438 C 180.253906 319.867188 180.253906 320.496094 180.316406 321.125 C 180.441406 322.507812 180.03125 323.734375 179.089844 324.769531 C 178.148438 325.773438 176.953125 326.308594 175.570312 326.308594 L 129.421875 326.308594 C 117.453125 326.308594 107.648438 316.351562 107.648438 304.128906 L 107.648438 254.304688 C 112.675781 256.847656 118.675781 256.878906 123.828125 254.207031 C 126.152344 252.984375 128.164062 251.289062 129.703125 249.308594 C 130.332031 248.460938 131.402344 248.144531 132.375 248.492188 C 133.347656 248.835938 133.976562 249.714844 133.976562 250.753906 Z M 232.71875 174.507812 C 239.914062 174.507812 245.722656 180.316406 245.722656 187.480469 C 245.722656 194.644531 239.914062 200.488281 232.71875 200.488281 C 225.554688 200.488281 219.742188 194.644531 219.742188 187.480469 C 219.742188 180.316406 225.554688 174.507812 232.71875 174.507812 Z M 232.71875 174.507812 " fill-opacity="1" fill-rule="evenodd"/></g><g clip-path="url(#51cf6de7fe)"><path fill="#ffffff" d="M 323.230469 163.882812 C 323.914062 165.933594 324.597656 208.746094 322.527344 210.511719 C 319.414062 213.15625 218.035156 212.617188 218.035156 211.363281 C 218.035156 210.113281 216.347656 164.753906 218.035156 163.882812 C 221.789062 161.945312 322.546875 161.832031 323.230469 163.882812 Z M 323.230469 163.882812 " fill-opacity="1" fill-rule="nonzero"/></g><path fill="#ffffff" d="M 284.796875 176.613281 C 284.109375 177.09375 282.589844 177.34375 280.851562 177.433594 C 281.003906 181.625 281.480469 196.117188 280.808594 197.285156 C 280.027344 198.652344 277.808594 199.832031 276.960938 197.285156 C 276.363281 193.574219 276.222656 181.308594 276.226562 177.339844 C 275.28125 177.257812 274.445312 177.140625 273.832031 177.003906 C 271.222656 176.417969 271.429688 174.109375 273.375 173.003906 C 274.382812 172.429688 282.492188 172.613281 284.332031 172.921875 C 286.171875 173.238281 286.484375 175.441406 284.796875 176.613281 Z M 234.316406 192.523438 C 231.53125 195.183594 229.09375 195.734375 228.808594 192.523438 C 228.519531 189.316406 232.476562 187.640625 232.859375 187.152344 C 233.242188 186.660156 234.097656 184.535156 231.574219 183.964844 C 229.050781 183.390625 227.578125 180.339844 233.777344 177.417969 C 236.757812 175.667969 236.746094 171 231.597656 173.222656 C 224.460938 176.164062 221.261719 185.339844 227.78125 186.761719 C 225.667969 189.714844 222.878906 195.476562 228.011719 198.160156 C 233.140625 200.84375 237.578125 195.03125 238.136719 193.847656 C 238.699219 192.660156 237.101562 189.867188 234.316406 192.523438 Z M 269.121094 195.027344 C 268.566406 194.972656 267.394531 194.921875 266.035156 194.90625 L 265.089844 176.46875 C 266.5 176.25 267.730469 175.9375 268.351562 175.511719 C 269.464844 174.5625 269.292969 172.816406 267.195312 172.683594 C 265.09375 172.550781 260.34375 172.636719 258.160156 173.46875 C 255.835938 174.351562 256.96875 176.65625 257.972656 176.851562 C 258.308594 176.917969 259.386719 176.933594 260.734375 176.875 C 260.9375 179.691406 261.707031 191.433594 261.921875 194.964844 C 260.632812 195.027344 259.566406 195.140625 259.125 195.324219 C 257.632812 195.953125 257.492188 198.109375 259.574219 198.621094 C 261.652344 199.136719 268.875 198.492188 269.953125 197.894531 C 271.03125 197.296875 270.753906 195.203125 269.121094 195.027344 Z M 253.234375 172.746094 C 252.644531 172.484375 251.957031 172.71875 251.378906 172.992188 C 250.878906 173.226562 250.265625 173.761719 250.011719 174.234375 C 248.933594 176.238281 247.921875 178.175781 246.941406 180.097656 C 245.257812 176.707031 243.816406 174.003906 243.390625 173.585938 C 242.242188 172.464844 238.425781 171.535156 239.390625 175.675781 C 239.429688 175.847656 241.65625 180.628906 244.160156 185.71875 C 242.484375 189.214844 240.875 192.746094 239.234375 196.546875 C 239.359375 197.324219 239.664062 198.109375 240.34375 198.554688 C 242.46875 199.9375 243.832031 196.4375 244.566406 195.195312 C 245.363281 193.855469 246.128906 192.496094 246.882812 191.132812 C 248.53125 194.324219 250 196.960938 250.714844 197.761719 C 252.5 199.75 254.472656 198.554688 253.75 195.449219 C 253.4375 194.109375 251.683594 190.074219 249.695312 185.824219 C 251.222656 182.785156 252.484375 179.988281 253.910156 176.566406 C 254.253906 175.742188 254.28125 175.109375 254.152344 174.230469 C 254.074219 173.632812 253.800781 172.996094 253.234375 172.746094 Z M 295.707031 200.21875 C 296.234375 201.726562 301.574219 207.136719 301.574219 207.136719 C 301.574219 207.136719 299.402344 207.234375 299.167969 207.15625 C 298.9375 207.078125 291.796875 199.132812 291.796875 198.878906 C 291.796875 198.621094 291.796875 185.574219 291.796875 185.574219 C 291.796875 185.574219 294.222656 185.757812 295.011719 185.539062 C 295.804688 185.320312 297.714844 182.894531 297.714844 182.894531 C 297.714844 182.894531 299.371094 187.007812 299.332031 187.101562 C 299.292969 187.191406 295.601562 194.964844 294.941406 196.804688 C 294.277344 198.640625 296.429688 198.585938 297.089844 198.089844 C 297.75 197.59375 302.050781 188.238281 302.050781 188.238281 C 302.050781 188.238281 302.328125 193.566406 302.878906 194.15625 C 303.429688 194.746094 306.554688 194.578125 310.414062 194.46875 C 311.902344 194.425781 311.609375 192.242188 310.484375 192.003906 C 309.785156 191.855469 305.046875 191.933594 305.046875 191.933594 C 305.046875 191.933594 304.789062 187.082031 304.476562 186.015625 C 304.164062 184.949219 302.566406 181.292969 302.566406 181.292969 L 305.066406 181.328125 C 305.066406 181.328125 305.691406 182.929688 306.515625 184.140625 C 307.34375 185.355469 308.703125 184.453125 308.574219 183.496094 C 308.449219 182.539062 306.371094 178.957031 305.507812 178.847656 C 300.492188 178.609375 298.121094 178.554688 297.128906 179.472656 C 296.136719 180.390625 294.296875 183.109375 294.171875 183.054688 C 294.042969 183 291.855469 183.019531 291.800781 183.054688 C 291.800781 183.054688 291.664062 172.890625 291.800781 172.757812 C 291.933594 172.625 309.472656 172.554688 309.53125 172.757812 C 309.589844 172.964844 309.566406 191.308594 309.664062 191.3125 C 311.546875 191.40625 312.097656 192.359375 312 193.773438 C 311.878906 195.523438 309.464844 195.199219 309.464844 195.199219 L 309.464844 198.929688 L 317.085938 206.613281 L 304.542969 206.773438 C 304.542969 206.773438 301.054688 202.621094 298.925781 200.453125 C 296.796875 198.285156 295.472656 199.546875 295.707031 200.21875 Z M 299.234375 174.714844 C 298.136719 173.503906 295.621094 173.960938 295.300781 175.902344 C 295.179688 176.636719 295.714844 178.714844 297.910156 178.554688 C 300.105469 178.394531 300.332031 175.925781 299.234375 174.714844 Z M 299.234375 174.714844 " fill-opacity="1" fill-rule="nonzero"/></svg>