<svg xmlns="http://www.w3.org/2000/svg" xmlns:xlink="http://www.w3.org/1999/xlink" width="50" zoomAndPan="magnify" viewBox="0 0 37.5 37.499999" height="50" preserveAspectRatio="xMidYMid meet" version="1.0"><defs><clipPath id="69d63c24c8"><path d="M 0 0 L 37.007812 0 L 37.007812 37.007812 L 0 37.007812 Z M 0 0 " clip-rule="nonzero"/></clipPath><clipPath id="5d9e7b9da9"><path d="M 11 6 L 27.707031 6 L 27.707031 31 L 11 31 Z M 11 6 " clip-rule="nonzero"/></clipPath></defs><g clip-path="url(#69d63c24c8)"><path fill="#ffffff" d="M 0 0 L 37.007812 0 L 37.007812 37.007812 L 0 37.007812 Z M 0 0 " fill-opacity="1" fill-rule="nonzero"/><path fill="#98f6ac" d="M 0 0 L 37.007812 0 L 37.007812 37.007812 L 0 37.007812 Z M 0 0 " fill-opacity="1" fill-rule="nonzero"/></g><g clip-path="url(#5d9e7b9da9)"><path fill="#ffffff" d="M 27.796875 18.699219 L 16.101562 6.882812 C 13.84375 4.601562 9.203125 8.824219 11.925781 11.476562 L 19.324219 18.699219 L 11.6875 25.800781 C 9.359375 27.960938 13.667969 32.402344 15.984375 30.15625 Z M 27.796875 18.699219 " fill-opacity="1" fill-rule="nonzero"/></g></svg>