<svg xmlns="http://www.w3.org/2000/svg" xmlns:xlink="http://www.w3.org/1999/xlink" width="50" zoomAndPan="magnify" viewBox="0 0 37.5 37.499999" height="50" preserveAspectRatio="xMidYMid meet" version="1.0"><defs><clipPath id="395431cee3"><path d="M 0 0 L 37.007812 0 L 37.007812 37.007812 L 0 37.007812 Z M 0 0 " clip-rule="nonzero"/></clipPath><clipPath id="f0cb2c2d33"><path d="M 9.296875 6 L 26 6 L 26 31 L 9.296875 31 Z M 9.296875 6 " clip-rule="nonzero"/></clipPath></defs><g clip-path="url(#395431cee3)"><path fill="#ffffff" d="M 0 0 L 37.007812 0 L 37.007812 37.007812 L 0 37.007812 Z M 0 0 " fill-opacity="1" fill-rule="nonzero"/><path fill="#98f6ac" d="M 0 0 L 37.007812 0 L 37.007812 37.007812 L 0 37.007812 Z M 0 0 " fill-opacity="1" fill-rule="nonzero"/></g><g clip-path="url(#f0cb2c2d33)"><path fill="#ffffff" d="M 9.203125 18.699219 L 20.898438 6.882812 C 23.160156 4.601562 27.796875 8.824219 25.078125 11.476562 L 17.675781 18.699219 L 25.316406 25.800781 C 27.640625 27.960938 23.332031 32.402344 21.019531 30.15625 Z M 9.203125 18.699219 " fill-opacity="1" fill-rule="nonzero"/></g></svg>