<svg xmlns="http://www.w3.org/2000/svg" xmlns:xlink="http://www.w3.org/1999/xlink" width="500" zoomAndPan="magnify" viewBox="0 0 375 374.999991" height="500" preserveAspectRatio="xMidYMid meet" version="1.0"><defs><clipPath id="9bf8e00f95"><path d="M 33.246094 33.246094 L 341.496094 33.246094 L 341.496094 341.496094 L 33.246094 341.496094 Z M 33.246094 33.246094 " clip-rule="nonzero"/></clipPath></defs><path fill="#ffffff" d="M 251.949219 131.808594 C 251.449219 130.007812 250.246094 128.546875 248.527344 127.644531 C 248.894531 123.613281 248.347656 118.664062 247.417969 114.582031 C 246.597656 111.238281 245.34375 107.496094 243.414062 103.574219 C 241.390625 99.734375 238.882812 95.621094 235.367188 91.84375 C 232.023438 87.925781 227.71875 84.375 222.847656 81.222656 C 180.460938 54.34375 121.925781 86.140625 126.472656 127.660156 C 124.769531 128.546875 123.5625 130.023438 123.082031 131.808594 C 113.039062 131.984375 104.972656 139.4375 104.972656 148.644531 C 104.972656 157.851562 113.039062 165.324219 123.082031 165.5 C 123.871094 168.410156 126.617188 170.609375 130.039062 170.609375 C 134.105469 170.609375 137.382812 167.605469 137.382812 163.894531 L 137.382812 133.414062 C 137.382812 131.292969 136.257812 129.492188 134.601562 128.253906 C 136.433594 117.761719 141.882812 106.675781 149.53125 99.800781 C 160.761719 88.855469 180.253906 82.527344 201.671875 87.296875 C 209.898438 89.757812 218.011719 93.886719 224.777344 100.488281 C 232.296875 107.253906 238.402344 117.394531 240.394531 128.273438 C 236.058594 131.484375 237.617188 134.265625 237.617188 163.894531 C 237.617188 166.207031 238.980469 168.167969 240.941406 169.375 L 240.941406 171.945312 C 240.941406 173.582031 240.476562 175.191406 239.589844 176.574219 C 230 191.5 229.371094 193.027344 214.894531 197.652344 C 210.347656 199.117188 205.207031 199.742188 200 201.011719 C 195.226562 196.273438 186.761719 199.390625 186.761719 205.734375 C 186.761719 213.722656 199.246094 215.554688 201.671875 207.550781 C 205.171875 206.699219 208.789062 206.203125 212.195312 205.15625 C 230.867188 199.484375 236.972656 196.113281 246.855469 177.246094 C 247.785156 175.464844 248.285156 173.488281 248.285156 171.464844 L 248.285156 169.792969 C 250.117188 168.925781 251.433594 167.382812 251.949219 165.5 C 261.957031 165.308594 270.023438 157.851562 270.023438 148.644531 C 270.023438 139.457031 261.957031 132 251.949219 131.808594 " fill-opacity="1" fill-rule="nonzero"/><path fill="#ffffff" d="M 187.53125 240.78125 C 193.523438 232.359375 198.730469 225.128906 203.855469 217.820312 C 209.851562 209.269531 215.890625 206.507812 225.355469 209.703125 C 237.390625 213.769531 249.3125 218.300781 260.945312 223.363281 C 270.957031 227.734375 276.582031 235.511719 275.953125 247.046875 C 275.632812 252.734375 275.953125 258.441406 275.875 264.128906 C 275.664062 279.808594 268.53125 287.105469 252.992188 287.183594 C 232.941406 287.296875 212.886719 287.21875 192.832031 287.21875 C 169.519531 287.21875 146.21875 287.28125 122.90625 287.183594 C 106.242188 287.121094 99.21875 280.003906 99.125 263.421875 C 99.09375 258.003906 99.398438 252.558594 99.058594 247.160156 C 98.320312 235.15625 104.507812 227.429688 114.710938 223.027344 C 126.359375 217.996094 138.347656 213.609375 150.398438 209.625 C 160.679688 206.203125 163.863281 207.730469 170.226562 216.644531 C 175.703125 224.328125 181.214844 231.992188 187.53125 240.78125 " fill-opacity="1" fill-rule="nonzero"/><path fill="#ffffff" d="M 230 140.691406 C 228.90625 154.832031 224.441406 172.925781 209.609375 186.839844 C 197.027344 198.632812 177.84375 198.9375 165.46875 186.855469 C 148.308594 170.097656 142.910156 148.808594 145.5625 125.828125 C 146.960938 113.792969 154.285156 104.332031 166.609375 100.296875 C 184.910156 94.304688 202.636719 93.726562 218.765625 106.515625 C 228.183594 113.988281 230.335938 124.238281 230 140.691406 " fill-opacity="1" fill-rule="nonzero"/><g clip-path="url(#9bf8e00f95)"><path fill="#ffffff" d="M 187.5 329.667969 C 108.972656 329.667969 45.328125 266.023438 45.328125 187.5 C 45.328125 108.972656 108.972656 45.328125 187.5 45.328125 C 266.023438 45.328125 329.667969 108.972656 329.667969 187.5 C 329.667969 266.023438 266.023438 329.667969 187.5 329.667969 Z M 187.5 33.246094 C 102.304688 33.246094 33.246094 102.304688 33.246094 187.5 C 33.246094 272.691406 102.304688 341.753906 187.5 341.753906 C 272.691406 341.753906 341.753906 272.691406 341.753906 187.5 C 341.753906 102.304688 272.691406 33.246094 187.5 33.246094 " fill-opacity="1" fill-rule="nonzero"/></g></svg>